G04*
G04 #@! TF.GenerationSoftware,Altium Limited,Altium Designer,26.7.1 (11)*
G04*
G04 Layer_Color=16711935*
G04 Board_Origin=26900000|31050000*
%FSLAX44Y44*%
%MOMM*%
G71*
G04*
G04 #@! TF.SameCoordinates,39C4F808-2633-438C-917E-FFE2347619B5*
G04*
G04*
G04 #@! TF.FilePolarity,Negative*
G04*
G01*
G75*
%ADD19R,0.8000X1.2500*%
%ADD20R,1.2500X0.8000*%
%ADD22R,1.2581X1.0121*%
%ADD23R,1.0121X1.2581*%
%ADD27R,1.5046X1.5562*%
%ADD42R,1.5500X1.5500*%
%ADD43C,1.6500*%
%ADD44C,1.5500*%
%ADD45C,4.8000*%
G04:AMPARAMS|DCode=46|XSize=1.65mm|YSize=1.65mm|CornerRadius=0.4125mm|HoleSize=0mm|Usage=FLASHONLY|Rotation=270.000|XOffset=0mm|YOffset=0mm|HoleType=Round|Shape=RoundedRectangle|*
%AMROUNDEDRECTD46*
21,1,1.6500,0.8250,0,0,270.0*
21,1,0.8250,1.6500,0,0,270.0*
1,1,0.8250,-0.4125,-0.4125*
1,1,0.8250,-0.4125,0.4125*
1,1,0.8250,0.4125,0.4125*
1,1,0.8250,0.4125,-0.4125*
%
%ADD46ROUNDEDRECTD46*%
%ADD47C,0.6500*%
%ADD48O,2.1000X1.0000*%
%ADD49O,1.8000X1.0000*%
%ADD50C,0.6096*%
D19*
X294260Y81280D02*
D03*
X310260D02*
D03*
D20*
X580390Y191390D02*
D03*
X579120Y245490D02*
D03*
X580390Y207390D02*
D03*
X579120Y229490D02*
D03*
D22*
X286870Y130810D02*
D03*
X504548Y50546D02*
D03*
X520088D02*
D03*
X302410Y130810D02*
D03*
D23*
X275590Y78890D02*
D03*
Y63350D02*
D03*
D27*
X284362Y102870D02*
D03*
X302378D02*
D03*
D42*
X440690Y29210D02*
D03*
D43*
X82550Y285990D02*
D03*
Y313690D02*
D03*
Y202890D02*
D03*
Y147490D02*
D03*
X110950Y272140D02*
D03*
Y216740D02*
D03*
Y244440D02*
D03*
Y327540D02*
D03*
Y161340D02*
D03*
Y299840D02*
D03*
Y189040D02*
D03*
X82550Y175190D02*
D03*
Y230590D02*
D03*
Y258290D02*
D03*
D44*
X491490Y29210D02*
D03*
X516890D02*
D03*
X466090D02*
D03*
D45*
X96750Y397090D02*
D03*
Y64090D02*
D03*
D46*
X110950Y133640D02*
D03*
D47*
X731957Y174300D02*
D03*
Y232100D02*
D03*
D48*
X726957Y246400D02*
D03*
Y160000D02*
D03*
D49*
X768757Y246400D02*
D03*
Y160000D02*
D03*
D50*
X345290Y153820D02*
D03*
X345440Y136144D02*
D03*
M02*
