G04*
G04 #@! TF.GenerationSoftware,Altium Limited,Altium Designer,26.7.1 (11)*
G04*
G04 Layer_Color=16711935*
G04 Board_Origin=26900000|31050000*
%FSLAX25Y25*%
%MOIN*%
G70*
G04*
G04 #@! TF.SameCoordinates,40CBDD28-AB79-417D-9518-67BF38A8FD92*
G04*
G04*
G04 #@! TF.FilePolarity,Negative*
G04*
G01*
G75*
%ADD18R,0.03985X0.04953*%
%ADD19R,0.04921X0.03150*%
%ADD21R,0.03150X0.04921*%
%ADD22R,0.05924X0.06127*%
%ADD23R,0.04953X0.03985*%
%ADD42C,0.06102*%
%ADD43R,0.06102X0.06102*%
%ADD44C,0.06496*%
G04:AMPARAMS|DCode=45|XSize=64.96mil|YSize=64.96mil|CornerRadius=16.24mil|HoleSize=0mil|Usage=FLASHONLY|Rotation=270.000|XOffset=0mil|YOffset=0mil|HoleType=Round|Shape=RoundedRectangle|*
%AMROUNDEDRECTD45*
21,1,0.06496,0.03248,0,0,270.0*
21,1,0.03248,0.06496,0,0,270.0*
1,1,0.03248,-0.01624,-0.01624*
1,1,0.03248,-0.01624,0.01624*
1,1,0.03248,0.01624,0.01624*
1,1,0.03248,0.01624,-0.01624*
%
%ADD45ROUNDEDRECTD45*%
%ADD46C,0.18898*%
%ADD47C,0.02559*%
%ADD48O,0.08268X0.03937*%
%ADD49O,0.07087X0.03937*%
D18*
X108500Y24941D02*
D03*
Y31059D02*
D03*
D19*
X228000Y96650D02*
D03*
X228500Y75350D02*
D03*
Y81650D02*
D03*
X228000Y90350D02*
D03*
D21*
X115850Y32000D02*
D03*
X122150D02*
D03*
D22*
X111954Y40500D02*
D03*
X119046D02*
D03*
D23*
X112941Y51500D02*
D03*
X195941Y37500D02*
D03*
X202059D02*
D03*
X119059Y51500D02*
D03*
D42*
X193500Y29000D02*
D03*
X173500D02*
D03*
X183500D02*
D03*
D43*
X203500D02*
D03*
D44*
X32500Y58067D02*
D03*
Y79878D02*
D03*
Y123500D02*
D03*
Y112594D02*
D03*
Y101689D02*
D03*
Y90784D02*
D03*
Y68972D02*
D03*
X43681Y74425D02*
D03*
Y118047D02*
D03*
Y63520D02*
D03*
Y128953D02*
D03*
Y96236D02*
D03*
Y85331D02*
D03*
Y107142D02*
D03*
D45*
Y52614D02*
D03*
D46*
X38091Y25232D02*
D03*
Y156335D02*
D03*
D47*
X288172Y68622D02*
D03*
Y91378D02*
D03*
D48*
X286204Y97008D02*
D03*
Y62992D02*
D03*
D49*
X302660Y97008D02*
D03*
Y62992D02*
D03*
M02*
