G04*
G04 #@! TF.GenerationSoftware,Altium Limited,Altium Designer,26.7.1 (11)*
G04*
G04 Layer_Physical_Order=2*
G04 Layer_Color=36540*
G04 Board_Origin=26900000|31050000*
%FSLAX44Y44*%
%MOMM*%
G71*
G04*
G04 #@! TF.SameCoordinates,64C68C79-8744-4C56-AC4C-B085EE5176D7*
G04*
G04*
G04 #@! TF.FilePolarity,Positive*
G04*
G01*
G75*
%ADD42R,1.5500X1.5500*%
%ADD43C,1.6500*%
%ADD44C,1.5500*%
%ADD45C,4.8000*%
G04:AMPARAMS|DCode=46|XSize=1.65mm|YSize=1.65mm|CornerRadius=0.4125mm|HoleSize=0mm|Usage=FLASHONLY|Rotation=270.000|XOffset=0mm|YOffset=0mm|HoleType=Round|Shape=RoundedRectangle|*
%AMROUNDEDRECTD46*
21,1,1.6500,0.8250,0,0,270.0*
21,1,0.8250,1.6500,0,0,270.0*
1,1,0.8250,-0.4125,-0.4125*
1,1,0.8250,-0.4125,0.4125*
1,1,0.8250,0.4125,0.4125*
1,1,0.8250,0.4125,-0.4125*
%
%ADD46ROUNDEDRECTD46*%
%ADD47C,0.6500*%
%ADD48O,2.1000X1.0000*%
%ADD49O,1.8000X1.0000*%
%ADD50C,0.6096*%
G36*
X400050Y50800D02*
X475742D01*
Y34088D01*
X474218Y33680D01*
X473511Y34904D01*
X471784Y36631D01*
X469670Y37852D01*
X467311Y38484D01*
X464869D01*
X462510Y37852D01*
X460396Y36631D01*
X458669Y34904D01*
X457448Y32790D01*
X456816Y30431D01*
Y27989D01*
X457448Y25630D01*
X458669Y23516D01*
X460396Y21789D01*
X462510Y20568D01*
X464869Y19936D01*
X467311D01*
X469670Y20568D01*
X471784Y21789D01*
X473511Y23516D01*
X474218Y24740D01*
X475742Y24332D01*
Y5080D01*
X5179D01*
X5080Y5179D01*
Y455930D01*
X400050D01*
Y50800D01*
D02*
G37*
G36*
X791210Y5080D02*
X480822D01*
Y24060D01*
X482346Y24468D01*
X483256Y22892D01*
X485172Y20976D01*
X487518Y19621D01*
X490135Y18920D01*
X490220D01*
Y29210D01*
Y39500D01*
X490135D01*
X487518Y38799D01*
X485172Y37444D01*
X483256Y35528D01*
X482346Y33952D01*
X480822Y34360D01*
Y455930D01*
X791210D01*
Y5080D01*
D02*
G37*
%LPC*%
G36*
X170047Y431737D02*
Y427484D01*
X174300D01*
X173515Y429380D01*
X171943Y430952D01*
X170047Y431737D01*
D02*
G37*
G36*
X167507D02*
X165612Y430952D01*
X164040Y429380D01*
X163255Y427484D01*
X167507D01*
Y431737D01*
D02*
G37*
G36*
X174300Y424944D02*
X170047D01*
Y420692D01*
X171943Y421477D01*
X173515Y423049D01*
X174300Y424944D01*
D02*
G37*
G36*
X167507D02*
X163255D01*
X164040Y423049D01*
X165612Y421477D01*
X167507Y420692D01*
Y424944D01*
D02*
G37*
G36*
X182747Y407607D02*
Y403354D01*
X187000D01*
X186215Y405250D01*
X184643Y406822D01*
X182747Y407607D01*
D02*
G37*
G36*
X180207D02*
X178312Y406822D01*
X176740Y405250D01*
X175955Y403354D01*
X180207D01*
Y407607D01*
D02*
G37*
G36*
X187000Y400814D02*
X182747D01*
Y396562D01*
X184643Y397347D01*
X186215Y398919D01*
X187000Y400814D01*
D02*
G37*
G36*
X180207D02*
X175955D01*
X176740Y398919D01*
X178312Y397347D01*
X180207Y396562D01*
Y400814D01*
D02*
G37*
G36*
X182880Y380172D02*
Y375920D01*
X187132D01*
X186347Y377815D01*
X184775Y379387D01*
X182880Y380172D01*
D02*
G37*
G36*
X180340D02*
X178445Y379387D01*
X176873Y377815D01*
X176088Y375920D01*
X180340D01*
Y380172D01*
D02*
G37*
G36*
X99114Y421090D02*
X94386D01*
X89749Y420168D01*
X85382Y418358D01*
X81451Y415732D01*
X78108Y412389D01*
X75482Y408458D01*
X73672Y404091D01*
X72750Y399454D01*
Y394726D01*
X73672Y390089D01*
X75482Y385722D01*
X78108Y381791D01*
X81451Y378448D01*
X85382Y375821D01*
X89749Y374012D01*
X94386Y373090D01*
X99114D01*
X103750Y374012D01*
X108118Y375821D01*
X112049Y378448D01*
X115392Y381791D01*
X118019Y385722D01*
X119828Y390089D01*
X120750Y394726D01*
Y399454D01*
X119828Y404091D01*
X118019Y408458D01*
X115392Y412389D01*
X112049Y415732D01*
X108118Y418358D01*
X103750Y420168D01*
X99114Y421090D01*
D02*
G37*
G36*
X187132Y373380D02*
X182880D01*
Y369128D01*
X184775Y369913D01*
X186347Y371485D01*
X187132Y373380D01*
D02*
G37*
G36*
X180340D02*
X176088D01*
X176873Y371485D01*
X178445Y369913D01*
X180340Y369128D01*
Y373380D01*
D02*
G37*
G36*
X186329Y361442D02*
X184511D01*
X182830Y360746D01*
X181544Y359460D01*
X180848Y357779D01*
Y355961D01*
X181544Y354280D01*
X182830Y352994D01*
X184511Y352298D01*
X186329D01*
X188010Y352994D01*
X189296Y354280D01*
X189992Y355961D01*
Y357779D01*
X189296Y359460D01*
X188010Y360746D01*
X186329Y361442D01*
D02*
G37*
G36*
X331470Y353502D02*
Y349250D01*
X335722D01*
X334937Y351145D01*
X333365Y352717D01*
X331470Y353502D01*
D02*
G37*
G36*
X328930D02*
X327035Y352717D01*
X325463Y351145D01*
X324678Y349250D01*
X328930D01*
Y353502D01*
D02*
G37*
G36*
X317500D02*
Y349250D01*
X321752D01*
X320967Y351145D01*
X319395Y352717D01*
X317500Y353502D01*
D02*
G37*
G36*
X314960D02*
X313065Y352717D01*
X311493Y351145D01*
X310708Y349250D01*
X314960D01*
Y353502D01*
D02*
G37*
G36*
X335722Y346710D02*
X331470D01*
Y342458D01*
X333365Y343243D01*
X334937Y344815D01*
X335722Y346710D01*
D02*
G37*
G36*
X328930D02*
X324678D01*
X325463Y344815D01*
X327035Y343243D01*
X328930Y342458D01*
Y346710D01*
D02*
G37*
G36*
X321752D02*
X317500D01*
Y342458D01*
X319395Y343243D01*
X320967Y344815D01*
X321752Y346710D01*
D02*
G37*
G36*
X314960D02*
X310708D01*
X311493Y344815D01*
X313065Y343243D01*
X314960Y342458D01*
Y346710D01*
D02*
G37*
G36*
X182880Y336992D02*
Y332740D01*
X187132D01*
X186347Y334635D01*
X184775Y336207D01*
X182880Y336992D01*
D02*
G37*
G36*
X180340D02*
X178445Y336207D01*
X176873Y334635D01*
X176088Y332740D01*
X180340D01*
Y336992D01*
D02*
G37*
G36*
X284510Y333212D02*
Y328960D01*
X288762D01*
X287977Y330855D01*
X286405Y332427D01*
X284510Y333212D01*
D02*
G37*
G36*
X281970D02*
X280075Y332427D01*
X278503Y330855D01*
X277718Y328960D01*
X281970D01*
Y333212D01*
D02*
G37*
G36*
X187132Y330200D02*
X182880D01*
Y325948D01*
X184775Y326733D01*
X186347Y328305D01*
X187132Y330200D01*
D02*
G37*
G36*
X180340D02*
X176088D01*
X176873Y328305D01*
X178445Y326733D01*
X180340Y325948D01*
Y330200D01*
D02*
G37*
G36*
X357779Y332232D02*
X355961D01*
X354280Y331536D01*
X352994Y330250D01*
X352298Y328569D01*
Y326751D01*
X352994Y325070D01*
X354280Y323784D01*
X355961Y323088D01*
X357779D01*
X359460Y323784D01*
X360746Y325070D01*
X361442Y326751D01*
Y328569D01*
X360746Y330250D01*
X359460Y331536D01*
X357779Y332232D01*
D02*
G37*
G36*
X288762Y326420D02*
X284510D01*
Y322168D01*
X286405Y322953D01*
X287977Y324525D01*
X288762Y326420D01*
D02*
G37*
G36*
X281970D02*
X277718D01*
X278503Y324525D01*
X280075Y322953D01*
X281970Y322168D01*
Y326420D01*
D02*
G37*
G36*
X112237Y337314D02*
X109663D01*
X107177Y336648D01*
X104949Y335361D01*
X103129Y333541D01*
X101842Y331313D01*
X101176Y328827D01*
Y326253D01*
X101842Y323767D01*
X103129Y321539D01*
X104949Y319719D01*
X107177Y318432D01*
X109663Y317766D01*
X112237D01*
X114723Y318432D01*
X116951Y319719D01*
X118771Y321539D01*
X120058Y323767D01*
X120724Y326253D01*
Y328827D01*
X120058Y331313D01*
X118771Y333541D01*
X116951Y335361D01*
X114723Y336648D01*
X112237Y337314D01*
D02*
G37*
G36*
X83970Y324480D02*
X83820D01*
Y314960D01*
X93340D01*
Y315110D01*
X92605Y317855D01*
X91184Y320315D01*
X89175Y322324D01*
X86715Y323745D01*
X83970Y324480D01*
D02*
G37*
G36*
X81280D02*
X81130D01*
X78385Y323745D01*
X75925Y322324D01*
X73916Y320315D01*
X72495Y317855D01*
X71760Y315110D01*
Y314960D01*
X81280D01*
Y324480D01*
D02*
G37*
G36*
X185059Y316992D02*
X183241D01*
X181560Y316296D01*
X180274Y315010D01*
X179578Y313329D01*
Y311511D01*
X180274Y309830D01*
X181560Y308544D01*
X183241Y307848D01*
X185059D01*
X186740Y308544D01*
X188026Y309830D01*
X188722Y311511D01*
Y313329D01*
X188026Y315010D01*
X186740Y316296D01*
X185059Y316992D01*
D02*
G37*
G36*
X93340Y312420D02*
X83820D01*
Y302900D01*
X83970D01*
X86715Y303635D01*
X89175Y305056D01*
X91184Y307065D01*
X92605Y309525D01*
X93340Y312269D01*
Y312420D01*
D02*
G37*
G36*
X81280D02*
X71760D01*
Y312269D01*
X72495Y309525D01*
X73916Y307065D01*
X75925Y305056D01*
X78385Y303635D01*
X81130Y302900D01*
X81280D01*
Y312420D01*
D02*
G37*
G36*
X112237Y309614D02*
X109663D01*
X107177Y308948D01*
X104949Y307661D01*
X103129Y305841D01*
X101842Y303613D01*
X101176Y301127D01*
Y298553D01*
X101842Y296067D01*
X103129Y293839D01*
X104949Y292019D01*
X107177Y290732D01*
X109663Y290066D01*
X112237D01*
X114723Y290732D01*
X116951Y292019D01*
X118771Y293839D01*
X120058Y296067D01*
X120724Y298553D01*
Y301127D01*
X120058Y303613D01*
X118771Y305841D01*
X116951Y307661D01*
X114723Y308948D01*
X112237Y309614D01*
D02*
G37*
G36*
X182880Y293812D02*
Y289560D01*
X187132D01*
X186347Y291455D01*
X184775Y293027D01*
X182880Y293812D01*
D02*
G37*
G36*
X180340D02*
X178445Y293027D01*
X176873Y291455D01*
X176088Y289560D01*
X180340D01*
Y293812D01*
D02*
G37*
G36*
X83970Y296780D02*
X83820D01*
Y287260D01*
X93340D01*
Y287411D01*
X92605Y290155D01*
X91184Y292615D01*
X89175Y294624D01*
X86715Y296045D01*
X83970Y296780D01*
D02*
G37*
G36*
X81280D02*
X81130D01*
X78385Y296045D01*
X75925Y294624D01*
X73916Y292615D01*
X72495Y290155D01*
X71760Y287411D01*
Y287260D01*
X81280D01*
Y296780D01*
D02*
G37*
G36*
X267970Y291272D02*
Y287020D01*
X272222D01*
X271437Y288915D01*
X269865Y290487D01*
X267970Y291272D01*
D02*
G37*
G36*
X265430D02*
X263535Y290487D01*
X261963Y288915D01*
X261178Y287020D01*
X265430D01*
Y291272D01*
D02*
G37*
G36*
X252730D02*
Y287020D01*
X256982D01*
X256197Y288915D01*
X254625Y290487D01*
X252730Y291272D01*
D02*
G37*
G36*
X250190D02*
X248295Y290487D01*
X246723Y288915D01*
X245938Y287020D01*
X250190D01*
Y291272D01*
D02*
G37*
G36*
X187132Y287020D02*
X182880D01*
Y282768D01*
X184775Y283553D01*
X186347Y285125D01*
X187132Y287020D01*
D02*
G37*
G36*
X180340D02*
X176088D01*
X176873Y285125D01*
X178445Y283553D01*
X180340Y282768D01*
Y287020D01*
D02*
G37*
G36*
X237129Y290322D02*
X235311D01*
X233630Y289626D01*
X232344Y288340D01*
X231648Y286659D01*
Y284841D01*
X232344Y283160D01*
X233630Y281874D01*
X235311Y281178D01*
X237129D01*
X238810Y281874D01*
X240096Y283160D01*
X240792Y284841D01*
Y286659D01*
X240096Y288340D01*
X238810Y289626D01*
X237129Y290322D01*
D02*
G37*
G36*
X272222Y284480D02*
X267970D01*
Y280228D01*
X269865Y281013D01*
X271437Y282585D01*
X272222Y284480D01*
D02*
G37*
G36*
X265430D02*
X261178D01*
X261963Y282585D01*
X263535Y281013D01*
X265430Y280228D01*
Y284480D01*
D02*
G37*
G36*
X256982D02*
X252730D01*
Y280228D01*
X254625Y281013D01*
X256197Y282585D01*
X256982Y284480D01*
D02*
G37*
G36*
X250190D02*
X245938D01*
X246723Y282585D01*
X248295Y281013D01*
X250190Y280228D01*
Y284480D01*
D02*
G37*
G36*
X93340Y284720D02*
X83820D01*
Y275200D01*
X83970D01*
X86715Y275935D01*
X89175Y277356D01*
X91184Y279365D01*
X92605Y281825D01*
X93340Y284569D01*
Y284720D01*
D02*
G37*
G36*
X81280D02*
X71760D01*
Y284569D01*
X72495Y281825D01*
X73916Y279365D01*
X75925Y277356D01*
X78385Y275935D01*
X81130Y275200D01*
X81280D01*
Y284720D01*
D02*
G37*
G36*
X183789Y273812D02*
X181971D01*
X180290Y273116D01*
X179004Y271830D01*
X178308Y270149D01*
Y268331D01*
X179004Y266650D01*
X180290Y265364D01*
X181971Y264668D01*
X183789D01*
X185470Y265364D01*
X186756Y266650D01*
X187452Y268331D01*
Y270149D01*
X186756Y271830D01*
X185470Y273116D01*
X183789Y273812D01*
D02*
G37*
G36*
X112237Y281914D02*
X109663D01*
X107177Y281248D01*
X104949Y279961D01*
X103129Y278141D01*
X101842Y275913D01*
X101176Y273427D01*
Y270853D01*
X101842Y268367D01*
X103129Y266139D01*
X104949Y264319D01*
X107177Y263032D01*
X109663Y262366D01*
X112237D01*
X114723Y263032D01*
X116951Y264319D01*
X118771Y266139D01*
X120058Y268367D01*
X120724Y270853D01*
Y273427D01*
X120058Y275913D01*
X118771Y278141D01*
X116951Y279961D01*
X114723Y281248D01*
X112237Y281914D01*
D02*
G37*
G36*
X290469Y267462D02*
X288651D01*
X286970Y266766D01*
X285684Y265480D01*
X284988Y263799D01*
Y261981D01*
X285684Y260300D01*
X286970Y259014D01*
X288651Y258318D01*
X290469D01*
X292150Y259014D01*
X293436Y260300D01*
X294132Y261981D01*
Y263799D01*
X293436Y265480D01*
X292150Y266766D01*
X290469Y267462D01*
D02*
G37*
G36*
X378714Y255458D02*
Y251206D01*
X382966D01*
X382181Y253101D01*
X380609Y254673D01*
X378714Y255458D01*
D02*
G37*
G36*
X376174D02*
X374279Y254673D01*
X372707Y253101D01*
X371922Y251206D01*
X376174D01*
Y255458D01*
D02*
G37*
G36*
X227330Y253172D02*
Y248920D01*
X231582D01*
X230797Y250815D01*
X229225Y252387D01*
X227330Y253172D01*
D02*
G37*
G36*
X224790D02*
X222895Y252387D01*
X221323Y250815D01*
X220538Y248920D01*
X224790D01*
Y253172D01*
D02*
G37*
G36*
X83837Y268064D02*
X81263D01*
X78777Y267398D01*
X76549Y266111D01*
X74729Y264291D01*
X73442Y262063D01*
X72776Y259577D01*
Y257003D01*
X73442Y254517D01*
X74729Y252289D01*
X76549Y250469D01*
X78777Y249182D01*
X81263Y248516D01*
X83837D01*
X86323Y249182D01*
X88551Y250469D01*
X90371Y252289D01*
X91658Y254517D01*
X92324Y257003D01*
Y259577D01*
X91658Y262063D01*
X90371Y264291D01*
X88551Y266111D01*
X86323Y267398D01*
X83837Y268064D01*
D02*
G37*
G36*
X382966Y248666D02*
X378714D01*
Y244414D01*
X380609Y245199D01*
X382181Y246771D01*
X382966Y248666D01*
D02*
G37*
G36*
X367939Y249682D02*
X366121D01*
X364440Y248986D01*
X363154Y247700D01*
X362458Y246019D01*
Y244201D01*
X363154Y242520D01*
X364199Y241475D01*
X364186Y240320D01*
X364028Y239755D01*
X363865Y239687D01*
X362293Y238115D01*
X361508Y236220D01*
X372552D01*
X371767Y238115D01*
X370195Y239687D01*
X370032Y239755D01*
X369874Y240320D01*
X369861Y241475D01*
X370906Y242520D01*
X371602Y244201D01*
Y245758D01*
X372408Y246276D01*
X373010Y246467D01*
X374279Y245199D01*
X376174Y244414D01*
Y248666D01*
X371561D01*
X370507Y248099D01*
X369620Y248986D01*
X367939Y249682D01*
D02*
G37*
G36*
X231582Y246380D02*
X227330D01*
Y242128D01*
X229225Y242913D01*
X230797Y244485D01*
X231582Y246380D01*
D02*
G37*
G36*
X224790D02*
X220538D01*
X221323Y244485D01*
X222895Y242913D01*
X224790Y242128D01*
Y246380D01*
D02*
G37*
G36*
X112237Y254214D02*
X109663D01*
X107177Y253548D01*
X104949Y252261D01*
X103129Y250441D01*
X101842Y248213D01*
X101176Y245727D01*
Y243153D01*
X101842Y240667D01*
X103129Y238439D01*
X104949Y236619D01*
X107177Y235332D01*
X109663Y234666D01*
X112237D01*
X114723Y235332D01*
X116951Y236619D01*
X118771Y238439D01*
X120058Y240667D01*
X120724Y243153D01*
Y245727D01*
X120058Y248213D01*
X118771Y250441D01*
X116951Y252261D01*
X114723Y253548D01*
X112237Y254214D01*
D02*
G37*
G36*
X157480Y237932D02*
Y233680D01*
X161732D01*
X160947Y235575D01*
X159375Y237147D01*
X157480Y237932D01*
D02*
G37*
G36*
X154940D02*
X153045Y237147D01*
X151473Y235575D01*
X150688Y233680D01*
X154940D01*
Y237932D01*
D02*
G37*
G36*
X140970Y235392D02*
Y231140D01*
X145222D01*
X144437Y233035D01*
X142865Y234607D01*
X140970Y235392D01*
D02*
G37*
G36*
X138430D02*
X136535Y234607D01*
X134963Y233035D01*
X134178Y231140D01*
X138430D01*
Y235392D01*
D02*
G37*
G36*
X372552Y233680D02*
X368300D01*
Y229428D01*
X370195Y230213D01*
X371767Y231785D01*
X372552Y233680D01*
D02*
G37*
G36*
X365760D02*
X361508D01*
X362293Y231785D01*
X363865Y230213D01*
X365760Y229428D01*
Y233680D01*
D02*
G37*
G36*
X161732Y231140D02*
X157480D01*
Y226888D01*
X159375Y227673D01*
X160947Y229245D01*
X161732Y231140D01*
D02*
G37*
G36*
X154940D02*
X150688D01*
X151473Y229245D01*
X153045Y227673D01*
X154940Y226888D01*
Y231140D01*
D02*
G37*
G36*
X145222Y228600D02*
X140970D01*
Y224348D01*
X142865Y225133D01*
X144437Y226705D01*
X145222Y228600D01*
D02*
G37*
G36*
X138430D02*
X134178D01*
X134963Y226705D01*
X136535Y225133D01*
X138430Y224348D01*
Y228600D01*
D02*
G37*
G36*
X83837Y240364D02*
X81263D01*
X78777Y239698D01*
X76549Y238411D01*
X74729Y236591D01*
X73442Y234363D01*
X72776Y231877D01*
Y229303D01*
X73442Y226817D01*
X74729Y224589D01*
X76549Y222769D01*
X78777Y221482D01*
X81263Y220816D01*
X83837D01*
X86323Y221482D01*
X88551Y222769D01*
X90371Y224589D01*
X91658Y226817D01*
X92324Y229303D01*
Y231877D01*
X91658Y234363D01*
X90371Y236591D01*
X88551Y238411D01*
X86323Y239698D01*
X83837Y240364D01*
D02*
G37*
G36*
X233319Y229362D02*
X231501D01*
X229820Y228666D01*
X228534Y227380D01*
X227838Y225699D01*
Y223881D01*
X228534Y222200D01*
X229820Y220914D01*
X231501Y220218D01*
X233319D01*
X235000Y220914D01*
X236286Y222200D01*
X236982Y223881D01*
Y225699D01*
X236286Y227380D01*
X235000Y228666D01*
X233319Y229362D01*
D02*
G37*
G36*
X112237Y226514D02*
X109663D01*
X107177Y225848D01*
X104949Y224561D01*
X103129Y222741D01*
X101842Y220513D01*
X101176Y218027D01*
Y215453D01*
X101842Y212967D01*
X103129Y210739D01*
X104949Y208919D01*
X107177Y207632D01*
X109663Y206966D01*
X112237D01*
X114723Y207632D01*
X116951Y208919D01*
X118771Y210739D01*
X120058Y212967D01*
X120724Y215453D01*
Y218027D01*
X120058Y220513D01*
X118771Y222741D01*
X116951Y224561D01*
X114723Y225848D01*
X112237Y226514D01*
D02*
G37*
G36*
X157480Y206182D02*
Y201930D01*
X161732D01*
X160947Y203825D01*
X159375Y205397D01*
X157480Y206182D01*
D02*
G37*
G36*
X154940D02*
X153045Y205397D01*
X151473Y203825D01*
X150688Y201930D01*
X154940D01*
Y206182D01*
D02*
G37*
G36*
X140970D02*
Y201930D01*
X145222D01*
X144437Y203825D01*
X142865Y205397D01*
X140970Y206182D01*
D02*
G37*
G36*
X138430D02*
X136535Y205397D01*
X134963Y203825D01*
X134178Y201930D01*
X138430D01*
Y206182D01*
D02*
G37*
G36*
X161732Y199390D02*
X157480D01*
Y195138D01*
X159375Y195923D01*
X160947Y197495D01*
X161732Y199390D01*
D02*
G37*
G36*
X154940D02*
X150688D01*
X151473Y197495D01*
X153045Y195923D01*
X154940Y195138D01*
Y199390D01*
D02*
G37*
G36*
X145222D02*
X140970D01*
Y195138D01*
X142865Y195923D01*
X144437Y197495D01*
X145222Y199390D01*
D02*
G37*
G36*
X138430D02*
X134178D01*
X134963Y197495D01*
X136535Y195923D01*
X138430Y195138D01*
Y199390D01*
D02*
G37*
G36*
X277769Y201422D02*
X275951D01*
X274270Y200726D01*
X272984Y199440D01*
X272288Y197759D01*
Y195941D01*
X272984Y194260D01*
X274270Y192974D01*
X275951Y192278D01*
X277769D01*
X279450Y192974D01*
X280736Y194260D01*
X281432Y195941D01*
Y197759D01*
X280736Y199440D01*
X279450Y200726D01*
X277769Y201422D01*
D02*
G37*
G36*
X83970Y213680D02*
X81130D01*
X78385Y212945D01*
X75925Y211524D01*
X73916Y209515D01*
X72495Y207055D01*
X71760Y204310D01*
Y201469D01*
X72495Y198725D01*
X73916Y196265D01*
X75925Y194256D01*
X78385Y192835D01*
X81130Y192100D01*
X83970D01*
X86715Y192835D01*
X89175Y194256D01*
X91184Y196265D01*
X92605Y198725D01*
X93340Y201469D01*
Y204310D01*
X92605Y207055D01*
X91184Y209515D01*
X89175Y211524D01*
X86715Y212945D01*
X83970Y213680D01*
D02*
G37*
G36*
X258719Y195072D02*
X256901D01*
X255220Y194376D01*
X253934Y193090D01*
X253238Y191409D01*
Y189591D01*
X253934Y187910D01*
X255220Y186624D01*
X256901Y185928D01*
X258719D01*
X260400Y186624D01*
X261686Y187910D01*
X262382Y189591D01*
Y191409D01*
X261686Y193090D01*
X260400Y194376D01*
X258719Y195072D01*
D02*
G37*
G36*
X112237Y198814D02*
X109663D01*
X107177Y198148D01*
X104949Y196861D01*
X103129Y195041D01*
X101842Y192813D01*
X101176Y190327D01*
Y187753D01*
X101842Y185267D01*
X103129Y183039D01*
X104949Y181219D01*
X107177Y179932D01*
X109663Y179266D01*
X112237D01*
X114723Y179932D01*
X116951Y181219D01*
X118771Y183039D01*
X120058Y185267D01*
X120724Y187753D01*
Y190327D01*
X120058Y192813D01*
X118771Y195041D01*
X116951Y196861D01*
X114723Y198148D01*
X112237Y198814D01*
D02*
G37*
G36*
X271419Y183642D02*
X269601D01*
X267920Y182946D01*
X266634Y181660D01*
X265938Y179979D01*
Y178161D01*
X266634Y176480D01*
X267920Y175194D01*
X269601Y174498D01*
X271419D01*
X273100Y175194D01*
X274386Y176480D01*
X275082Y178161D01*
Y179979D01*
X274386Y181660D01*
X273100Y182946D01*
X271419Y183642D01*
D02*
G37*
G36*
X357779Y182372D02*
X355961D01*
X354280Y181676D01*
X352994Y180390D01*
X352298Y178709D01*
Y176891D01*
X352994Y175210D01*
X354280Y173924D01*
X355961Y173228D01*
X357779D01*
X359460Y173924D01*
X360746Y175210D01*
X361442Y176891D01*
Y178709D01*
X360746Y180390D01*
X359460Y181676D01*
X357779Y182372D01*
D02*
G37*
G36*
X358140Y170622D02*
Y166370D01*
X362392D01*
X361607Y168265D01*
X360035Y169837D01*
X358140Y170622D01*
D02*
G37*
G36*
X355600D02*
X353705Y169837D01*
X352133Y168265D01*
X351348Y166370D01*
X355600D01*
Y170622D01*
D02*
G37*
G36*
X83837Y184964D02*
X81263D01*
X78777Y184298D01*
X76549Y183011D01*
X74729Y181191D01*
X73442Y178963D01*
X72776Y176477D01*
Y173903D01*
X73442Y171417D01*
X74729Y169189D01*
X76549Y167369D01*
X78777Y166082D01*
X81263Y165416D01*
X83837D01*
X86323Y166082D01*
X88551Y167369D01*
X90371Y169189D01*
X91658Y171417D01*
X92324Y173903D01*
Y176477D01*
X91658Y178963D01*
X90371Y181191D01*
X88551Y183011D01*
X86323Y184298D01*
X83837Y184964D01*
D02*
G37*
G36*
X362392Y163830D02*
X358140D01*
Y159578D01*
X360035Y160363D01*
X361607Y161935D01*
X362392Y163830D01*
D02*
G37*
G36*
X355600D02*
X351348D01*
X352133Y161935D01*
X353705Y160363D01*
X355600Y159578D01*
Y163830D01*
D02*
G37*
G36*
X284480Y155382D02*
X282585Y154597D01*
X281013Y153025D01*
X280441Y152912D01*
X280025Y153327D01*
X278130Y154112D01*
Y148590D01*
Y143068D01*
X280025Y143853D01*
X281597Y145425D01*
X282169Y145538D01*
X282585Y145123D01*
X284480Y144338D01*
Y149860D01*
Y155382D01*
D02*
G37*
G36*
X287020D02*
Y151130D01*
X291272D01*
X290487Y153025D01*
X288915Y154597D01*
X287020Y155382D01*
D02*
G37*
G36*
X275590Y154112D02*
X273695Y153327D01*
X272123Y151755D01*
X271338Y149860D01*
X275590D01*
Y154112D01*
D02*
G37*
G36*
X112538Y173400D02*
X109362D01*
X106295Y172578D01*
X103545Y170990D01*
X101300Y168745D01*
X99712Y165995D01*
X98890Y162928D01*
Y159752D01*
X99712Y156685D01*
X101300Y153935D01*
X103545Y151690D01*
X106295Y150102D01*
X109362Y149280D01*
X112538D01*
X115605Y150102D01*
X118355Y151690D01*
X120600Y153935D01*
X122188Y156685D01*
X123010Y159752D01*
Y162928D01*
X122188Y165995D01*
X120600Y168745D01*
X118355Y170990D01*
X115605Y172578D01*
X112538Y173400D01*
D02*
G37*
G36*
X346199Y158392D02*
X344381D01*
X342700Y157696D01*
X341414Y156410D01*
X340718Y154729D01*
Y152910D01*
X341414Y151230D01*
X342700Y149944D01*
X344381Y149248D01*
X346199D01*
X347880Y149944D01*
X349166Y151230D01*
X349862Y152910D01*
Y154729D01*
X349166Y156410D01*
X347880Y157696D01*
X346199Y158392D01*
D02*
G37*
G36*
X304439Y155702D02*
X302621D01*
X300940Y155006D01*
X299654Y153720D01*
X298958Y152039D01*
Y150221D01*
X299654Y148540D01*
X300940Y147254D01*
X302621Y146558D01*
X304439D01*
X306120Y147254D01*
X307406Y148540D01*
X308102Y150221D01*
Y152039D01*
X307406Y153720D01*
X306120Y155006D01*
X304439Y155702D01*
D02*
G37*
G36*
X251968Y150048D02*
Y145796D01*
X256220D01*
X255435Y147691D01*
X253863Y149263D01*
X251968Y150048D01*
D02*
G37*
G36*
X249428D02*
X247533Y149263D01*
X245961Y147691D01*
X245176Y145796D01*
X249428D01*
Y150048D01*
D02*
G37*
G36*
X291272Y148590D02*
X287020D01*
Y144338D01*
X288915Y145123D01*
X290487Y146695D01*
X291272Y148590D01*
D02*
G37*
G36*
X209443Y153416D02*
X207625D01*
X205944Y152720D01*
X204658Y151434D01*
X203962Y149753D01*
Y147935D01*
X204658Y146254D01*
X205944Y144968D01*
X207625Y144272D01*
X209443D01*
X211124Y144968D01*
X212410Y146254D01*
X213106Y147935D01*
Y149753D01*
X212410Y151434D01*
X211124Y152720D01*
X209443Y153416D01*
D02*
G37*
G36*
X275590Y147320D02*
X271338D01*
X272123Y145425D01*
X273695Y143853D01*
X275590Y143068D01*
Y147320D01*
D02*
G37*
G36*
X256220Y143256D02*
X251968D01*
Y139004D01*
X253863Y139789D01*
X255435Y141361D01*
X256220Y143256D01*
D02*
G37*
G36*
X249428D02*
X245176D01*
X245961Y141361D01*
X247533Y139789D01*
X249428Y139004D01*
Y143256D01*
D02*
G37*
G36*
X346710Y141666D02*
Y137414D01*
X350962D01*
X350177Y139309D01*
X348605Y140881D01*
X346710Y141666D01*
D02*
G37*
G36*
X344170D02*
X342275Y140881D01*
X340703Y139309D01*
X339918Y137414D01*
X344170D01*
Y141666D01*
D02*
G37*
G36*
X83970Y158280D02*
X81130D01*
X78385Y157545D01*
X75925Y156124D01*
X73916Y154115D01*
X72495Y151655D01*
X71760Y148911D01*
Y146069D01*
X72495Y143325D01*
X73916Y140865D01*
X75925Y138856D01*
X78385Y137435D01*
X81130Y136700D01*
X83970D01*
X86715Y137435D01*
X89175Y138856D01*
X91184Y140865D01*
X92605Y143325D01*
X93340Y146069D01*
Y148911D01*
X92605Y151655D01*
X91184Y154115D01*
X89175Y156124D01*
X86715Y157545D01*
X83970Y158280D01*
D02*
G37*
G36*
X271780Y140142D02*
Y135890D01*
X276032D01*
X275247Y137785D01*
X273675Y139357D01*
X271780Y140142D01*
D02*
G37*
G36*
X269240D02*
X267345Y139357D01*
X265773Y137785D01*
X264988Y135890D01*
X269240D01*
Y140142D01*
D02*
G37*
G36*
X350962Y134874D02*
X346710D01*
Y130622D01*
X348605Y131407D01*
X350177Y132979D01*
X350962Y134874D01*
D02*
G37*
G36*
X344170D02*
X339918D01*
X340703Y132979D01*
X342275Y131407D01*
X344170Y130622D01*
Y134874D01*
D02*
G37*
G36*
X276032Y133350D02*
X271780D01*
Y129098D01*
X273675Y129883D01*
X275247Y131455D01*
X276032Y133350D01*
D02*
G37*
G36*
X269240D02*
X264988D01*
X265773Y131455D01*
X267345Y129883D01*
X269240Y129098D01*
Y133350D01*
D02*
G37*
G36*
X115075Y145768D02*
X106825D01*
X104754Y145496D01*
X102823Y144696D01*
X101166Y143424D01*
X99894Y141767D01*
X99094Y139836D01*
X98821Y137765D01*
Y129515D01*
X99094Y127444D01*
X99894Y125513D01*
X101166Y123856D01*
X102823Y122584D01*
X104754Y121784D01*
X106825Y121511D01*
X115075D01*
X117146Y121784D01*
X119077Y122584D01*
X120734Y123856D01*
X122006Y125513D01*
X122806Y127444D01*
X123078Y129515D01*
Y137765D01*
X122806Y139836D01*
X122006Y141767D01*
X120734Y143424D01*
X119077Y144696D01*
X117146Y145496D01*
X115075Y145768D01*
D02*
G37*
G36*
X271780Y119822D02*
Y115570D01*
X276032D01*
X275247Y117465D01*
X273675Y119037D01*
X271780Y119822D01*
D02*
G37*
G36*
X269240D02*
X267345Y119037D01*
X265773Y117465D01*
X264988Y115570D01*
X269240D01*
Y119822D01*
D02*
G37*
G36*
X276032Y113030D02*
X271780D01*
Y108778D01*
X273675Y109563D01*
X275247Y111135D01*
X276032Y113030D01*
D02*
G37*
G36*
X269240D02*
X264988D01*
X265773Y111135D01*
X267345Y109563D01*
X269240Y108778D01*
Y113030D01*
D02*
G37*
G36*
X201930Y103312D02*
Y99060D01*
X206182D01*
X205397Y100955D01*
X203825Y102527D01*
X201930Y103312D01*
D02*
G37*
G36*
X199390D02*
X197495Y102527D01*
X195923Y100955D01*
X195138Y99060D01*
X199390D01*
Y103312D01*
D02*
G37*
G36*
X270510Y102042D02*
Y97790D01*
X274762D01*
X273977Y99685D01*
X272405Y101257D01*
X270510Y102042D01*
D02*
G37*
G36*
X267970D02*
X266075Y101257D01*
X264503Y99685D01*
X263718Y97790D01*
X267970D01*
Y102042D01*
D02*
G37*
G36*
X206182Y96520D02*
X201930D01*
Y92268D01*
X203825Y93053D01*
X205397Y94625D01*
X206182Y96520D01*
D02*
G37*
G36*
X199390D02*
X195138D01*
X195923Y94625D01*
X197495Y93053D01*
X199390Y92268D01*
Y96520D01*
D02*
G37*
G36*
X274762Y95250D02*
X270510D01*
Y90998D01*
X272405Y91783D01*
X273977Y93355D01*
X274762Y95250D01*
D02*
G37*
G36*
X267970D02*
X263718D01*
X264503Y93355D01*
X266075Y91783D01*
X267970Y90998D01*
Y95250D01*
D02*
G37*
G36*
X251607Y100076D02*
X249789D01*
X248108Y99380D01*
X246822Y98094D01*
X246126Y96413D01*
Y94595D01*
X246822Y92914D01*
X248108Y91628D01*
X249789Y90932D01*
X251607D01*
X253288Y91628D01*
X254574Y92914D01*
X255270Y94595D01*
Y96413D01*
X254574Y98094D01*
X253288Y99380D01*
X251607Y100076D01*
D02*
G37*
G36*
X239415Y89916D02*
X237597D01*
X235916Y89220D01*
X234630Y87934D01*
X233934Y86253D01*
Y84435D01*
X234630Y82754D01*
X235916Y81468D01*
X237597Y80772D01*
X239415D01*
X241096Y81468D01*
X242382Y82754D01*
X243078Y84435D01*
Y86253D01*
X242382Y87934D01*
X241096Y89220D01*
X239415Y89916D01*
D02*
G37*
G36*
X262021Y86360D02*
X260203D01*
X258522Y85664D01*
X257236Y84378D01*
X256540Y82697D01*
Y80879D01*
X257236Y79198D01*
X258522Y77912D01*
X260203Y77216D01*
X262021D01*
X263702Y77912D01*
X264988Y79198D01*
X265684Y80879D01*
Y82697D01*
X264988Y84378D01*
X263702Y85664D01*
X262021Y86360D01*
D02*
G37*
G36*
X335173Y82804D02*
X333355D01*
X331674Y82108D01*
X330388Y80822D01*
X329692Y79141D01*
Y77323D01*
X330388Y75642D01*
X331674Y74356D01*
X333355Y73660D01*
X335173D01*
X336854Y74356D01*
X338140Y75642D01*
X338836Y77323D01*
Y79141D01*
X338140Y80822D01*
X336854Y82108D01*
X335173Y82804D01*
D02*
G37*
G36*
X230271Y81026D02*
X228453D01*
X226772Y80330D01*
X225486Y79044D01*
X224790Y77363D01*
Y75545D01*
X225486Y73864D01*
X226772Y72578D01*
X228453Y71882D01*
X230271D01*
X231952Y72578D01*
X233238Y73864D01*
X233934Y75545D01*
Y77363D01*
X233238Y79044D01*
X231952Y80330D01*
X230271Y81026D01*
D02*
G37*
G36*
X310388Y74610D02*
Y70358D01*
X314640D01*
X313855Y72253D01*
X312283Y73825D01*
X310388Y74610D01*
D02*
G37*
G36*
X307848D02*
X305953Y73825D01*
X304381Y72253D01*
X303596Y70358D01*
X307848D01*
Y74610D01*
D02*
G37*
G36*
X261874Y74102D02*
Y69850D01*
X266126D01*
X265341Y71745D01*
X263769Y73317D01*
X261874Y74102D01*
D02*
G37*
G36*
X259334D02*
X257439Y73317D01*
X255867Y71745D01*
X255082Y69850D01*
X259334D01*
Y74102D01*
D02*
G37*
G36*
X369824Y73848D02*
Y69596D01*
X374076D01*
X373291Y71491D01*
X371719Y73063D01*
X369824Y73848D01*
D02*
G37*
G36*
X367284D02*
X365389Y73063D01*
X363817Y71491D01*
X363032Y69596D01*
X367284D01*
Y73848D01*
D02*
G37*
G36*
X239014Y70292D02*
Y66040D01*
X243266D01*
X242481Y67935D01*
X240909Y69507D01*
X239014Y70292D01*
D02*
G37*
G36*
X236474D02*
X234579Y69507D01*
X233007Y67935D01*
X232222Y66040D01*
X236474D01*
Y70292D01*
D02*
G37*
G36*
X383286Y68514D02*
Y64262D01*
X387538D01*
X386753Y66157D01*
X385181Y67729D01*
X383286Y68514D01*
D02*
G37*
G36*
X380746D02*
X378851Y67729D01*
X377279Y66157D01*
X376494Y64262D01*
X380746D01*
Y68514D01*
D02*
G37*
G36*
X314640Y67818D02*
X310388D01*
Y63566D01*
X312283Y64351D01*
X313855Y65923D01*
X314640Y67818D01*
D02*
G37*
G36*
X307848D02*
X303596D01*
X304381Y65923D01*
X305953Y64351D01*
X307848Y63566D01*
Y67818D01*
D02*
G37*
G36*
X266126Y67310D02*
X261874D01*
Y63058D01*
X263769Y63843D01*
X265341Y65415D01*
X266126Y67310D01*
D02*
G37*
G36*
X259334D02*
X255082D01*
X255867Y65415D01*
X257439Y63843D01*
X259334Y63058D01*
Y67310D01*
D02*
G37*
G36*
X374076Y67056D02*
X369824D01*
Y62804D01*
X371719Y63589D01*
X373291Y65161D01*
X374076Y67056D01*
D02*
G37*
G36*
X367284D02*
X363032D01*
X363817Y65161D01*
X365389Y63589D01*
X367284Y62804D01*
Y67056D01*
D02*
G37*
G36*
X243266Y63500D02*
X239014D01*
Y59248D01*
X240909Y60033D01*
X242481Y61605D01*
X243266Y63500D01*
D02*
G37*
G36*
X236474D02*
X232222D01*
X233007Y61605D01*
X234579Y60033D01*
X236474Y59248D01*
Y63500D01*
D02*
G37*
G36*
X387538Y61722D02*
X383286D01*
Y57470D01*
X385181Y58255D01*
X386753Y59827D01*
X387538Y61722D01*
D02*
G37*
G36*
X380746D02*
X376494D01*
X377279Y59827D01*
X378851Y58255D01*
X380746Y57470D01*
Y61722D01*
D02*
G37*
G36*
X99114Y88090D02*
X94386D01*
X89749Y87168D01*
X85382Y85358D01*
X81451Y82732D01*
X78108Y79389D01*
X75482Y75458D01*
X73672Y71091D01*
X72750Y66454D01*
Y61726D01*
X73672Y57090D01*
X75482Y52722D01*
X78108Y48791D01*
X81451Y45448D01*
X85382Y42821D01*
X89749Y41012D01*
X94386Y40090D01*
X99114D01*
X103750Y41012D01*
X108118Y42821D01*
X112049Y45448D01*
X115392Y48791D01*
X118019Y52722D01*
X119828Y57090D01*
X120750Y61726D01*
Y66454D01*
X119828Y71091D01*
X118019Y75458D01*
X115392Y79389D01*
X112049Y82732D01*
X108118Y85358D01*
X103750Y87168D01*
X99114Y88090D01*
D02*
G37*
G36*
X450980Y39500D02*
X441960D01*
Y30480D01*
X450980D01*
Y39500D01*
D02*
G37*
G36*
X439420D02*
X430400D01*
Y30480D01*
X439420D01*
Y39500D01*
D02*
G37*
G36*
X450980Y27940D02*
X441960D01*
Y18920D01*
X450980D01*
Y27940D01*
D02*
G37*
G36*
X439420D02*
X430400D01*
Y18920D01*
X439420D01*
Y27940D01*
D02*
G37*
G36*
X662940Y265872D02*
Y261620D01*
X667192D01*
X666407Y263515D01*
X664835Y265087D01*
X662940Y265872D01*
D02*
G37*
G36*
X660400D02*
X658505Y265087D01*
X656933Y263515D01*
X656148Y261620D01*
X660400D01*
Y265872D01*
D02*
G37*
G36*
X667192Y259080D02*
X662940D01*
Y254828D01*
X664835Y255613D01*
X666407Y257185D01*
X667192Y259080D01*
D02*
G37*
G36*
X660400D02*
X656148D01*
X656933Y257185D01*
X658505Y255613D01*
X660400Y254828D01*
Y259080D01*
D02*
G37*
G36*
X684530Y258252D02*
Y254000D01*
X688782D01*
X687997Y255895D01*
X686425Y257467D01*
X684530Y258252D01*
D02*
G37*
G36*
X681990D02*
X680095Y257467D01*
X678523Y255895D01*
X677738Y254000D01*
X681990D01*
Y258252D01*
D02*
G37*
G36*
X585109Y262382D02*
X583291D01*
X581610Y261686D01*
X580324Y260400D01*
X579628Y258719D01*
Y256901D01*
X580324Y255220D01*
X581610Y253934D01*
X583291Y253238D01*
X585109D01*
X586790Y253934D01*
X588076Y255220D01*
X588772Y256901D01*
Y258719D01*
X588076Y260400D01*
X586790Y261686D01*
X585109Y262382D01*
D02*
G37*
G36*
X688782Y251460D02*
X684530D01*
Y247208D01*
X686425Y247993D01*
X687997Y249565D01*
X688782Y251460D01*
D02*
G37*
G36*
X681990D02*
X677738D01*
X678523Y249565D01*
X680095Y247993D01*
X681990Y247208D01*
Y251460D01*
D02*
G37*
G36*
X710967Y244282D02*
Y240030D01*
X715219D01*
X714434Y241925D01*
X712862Y243497D01*
X710967Y244282D01*
D02*
G37*
G36*
X708427D02*
X706532Y243497D01*
X704960Y241925D01*
X704175Y240030D01*
X708427D01*
Y244282D01*
D02*
G37*
G36*
X772757Y252980D02*
X764757D01*
X763054Y252756D01*
X761467Y252099D01*
X760104Y251053D01*
X759058Y249690D01*
X758401Y248103D01*
X758177Y246400D01*
X758401Y244697D01*
X759058Y243110D01*
X760104Y241747D01*
X761467Y240701D01*
X763054Y240044D01*
X764757Y239820D01*
X772757D01*
X774460Y240044D01*
X776047Y240701D01*
X777410Y241747D01*
X778456Y243110D01*
X779113Y244697D01*
X779337Y246400D01*
X779113Y248103D01*
X778456Y249690D01*
X777410Y251053D01*
X776047Y252099D01*
X774460Y252756D01*
X772757Y252980D01*
D02*
G37*
G36*
X732457D02*
X721457D01*
X719754Y252756D01*
X718167Y252099D01*
X716804Y251053D01*
X715758Y249690D01*
X715101Y248103D01*
X714877Y246400D01*
X715101Y244697D01*
X715758Y243110D01*
X716804Y241747D01*
X718167Y240701D01*
X719754Y240044D01*
X721457Y239820D01*
X732457D01*
X734160Y240044D01*
X735747Y240701D01*
X737110Y241747D01*
X738156Y243110D01*
X738813Y244697D01*
X739037Y246400D01*
X738813Y248103D01*
X738156Y249690D01*
X737110Y251053D01*
X735747Y252099D01*
X734160Y252756D01*
X732457Y252980D01*
D02*
G37*
G36*
X505206Y242758D02*
Y238506D01*
X509458D01*
X508673Y240401D01*
X507101Y241973D01*
X505206Y242758D01*
D02*
G37*
G36*
X502666D02*
X500771Y241973D01*
X499199Y240401D01*
X498414Y238506D01*
X502666D01*
Y242758D01*
D02*
G37*
G36*
X553720Y237932D02*
Y233680D01*
X557972D01*
X557187Y235575D01*
X555615Y237147D01*
X553720Y237932D01*
D02*
G37*
G36*
X551180D02*
X549285Y237147D01*
X547713Y235575D01*
X546928Y233680D01*
X551180D01*
Y237932D01*
D02*
G37*
G36*
X539750D02*
Y233680D01*
X544002D01*
X543217Y235575D01*
X541645Y237147D01*
X539750Y237932D01*
D02*
G37*
G36*
X537210D02*
X535315Y237147D01*
X533743Y235575D01*
X532958Y233680D01*
X537210D01*
Y237932D01*
D02*
G37*
G36*
X715219Y237490D02*
X710967D01*
Y233238D01*
X712862Y234023D01*
X714434Y235595D01*
X715219Y237490D01*
D02*
G37*
G36*
X708427D02*
X704175D01*
X704960Y235595D01*
X706532Y234023D01*
X708427Y233238D01*
Y237490D01*
D02*
G37*
G36*
X509458Y235966D02*
X505206D01*
Y231714D01*
X507101Y232499D01*
X508673Y234071D01*
X509458Y235966D01*
D02*
G37*
G36*
X502666D02*
X498414D01*
X499199Y234071D01*
X500771Y232499D01*
X502666Y231714D01*
Y235966D01*
D02*
G37*
G36*
X682899Y238252D02*
X681081D01*
X679400Y237556D01*
X678114Y236270D01*
X677418Y234589D01*
Y232771D01*
X678114Y231090D01*
X679400Y229804D01*
X681081Y229108D01*
X682899D01*
X684580Y229804D01*
X685866Y231090D01*
X686562Y232771D01*
Y234589D01*
X685866Y236270D01*
X684580Y237556D01*
X682899Y238252D01*
D02*
G37*
G36*
X631827D02*
X630009D01*
X628328Y237556D01*
X627042Y236270D01*
X626346Y234589D01*
Y232771D01*
X627042Y231090D01*
X628328Y229804D01*
X630009Y229108D01*
X631827D01*
X633508Y229804D01*
X634794Y231090D01*
X635490Y232771D01*
Y234589D01*
X634794Y236270D01*
X633508Y237556D01*
X631827Y238252D01*
D02*
G37*
G36*
X732907Y236874D02*
X731007D01*
X729253Y236147D01*
X727910Y234804D01*
X727183Y233050D01*
Y231150D01*
X727910Y229396D01*
X729253Y228053D01*
X731007Y227326D01*
X732907D01*
X734661Y228053D01*
X736004Y229396D01*
X736731Y231150D01*
Y233050D01*
X736004Y234804D01*
X734661Y236147D01*
X732907Y236874D01*
D02*
G37*
G36*
X557972Y231140D02*
X553720D01*
Y226888D01*
X555615Y227673D01*
X557187Y229245D01*
X557972Y231140D01*
D02*
G37*
G36*
X551180D02*
X546928D01*
X547713Y229245D01*
X549285Y227673D01*
X551180Y226888D01*
Y231140D01*
D02*
G37*
G36*
X544002D02*
X539750D01*
Y226888D01*
X541645Y227673D01*
X543217Y229245D01*
X544002Y231140D01*
D02*
G37*
G36*
X537210D02*
X532958D01*
X533743Y229245D01*
X535315Y227673D01*
X537210Y226888D01*
Y231140D01*
D02*
G37*
G36*
X553720Y223962D02*
Y219710D01*
X557972D01*
X557187Y221605D01*
X555615Y223177D01*
X553720Y223962D01*
D02*
G37*
G36*
X551180D02*
X549285Y223177D01*
X547713Y221605D01*
X546928Y219710D01*
X551180D01*
Y223962D01*
D02*
G37*
G36*
X539750D02*
Y219710D01*
X544002D01*
X543217Y221605D01*
X541645Y223177D01*
X539750Y223962D01*
D02*
G37*
G36*
X537210D02*
X535315Y223177D01*
X533743Y221605D01*
X532958Y219710D01*
X537210D01*
Y223962D01*
D02*
G37*
G36*
X517037Y228092D02*
X515219D01*
X513538Y227396D01*
X512252Y226110D01*
X511556Y224429D01*
Y222611D01*
X512252Y220930D01*
X513538Y219644D01*
X515219Y218948D01*
X517037D01*
X518718Y219644D01*
X520004Y220930D01*
X520700Y222611D01*
Y224429D01*
X520004Y226110D01*
X518718Y227396D01*
X517037Y228092D01*
D02*
G37*
G36*
X580029Y223012D02*
X578211D01*
X576530Y222316D01*
X575244Y221030D01*
X574548Y219349D01*
Y217531D01*
X575244Y215850D01*
X576530Y214564D01*
X578211Y213868D01*
X580029D01*
X581710Y214564D01*
X582996Y215850D01*
X583692Y217531D01*
Y219349D01*
X582996Y221030D01*
X581710Y222316D01*
X580029Y223012D01*
D02*
G37*
G36*
X557972Y217170D02*
X553720D01*
Y212918D01*
X555615Y213703D01*
X557187Y215275D01*
X557972Y217170D01*
D02*
G37*
G36*
X551180D02*
X546928D01*
X547713Y215275D01*
X549285Y213703D01*
X551180Y212918D01*
Y217170D01*
D02*
G37*
G36*
X544002D02*
X539750D01*
Y212918D01*
X541645Y213703D01*
X543217Y215275D01*
X544002Y217170D01*
D02*
G37*
G36*
X537210D02*
X532958D01*
X533743Y215275D01*
X535315Y213703D01*
X537210Y212918D01*
Y217170D01*
D02*
G37*
G36*
X503829Y220726D02*
X502011D01*
X500330Y220030D01*
X499044Y218744D01*
X498348Y217063D01*
Y215245D01*
X499044Y213564D01*
X500330Y212278D01*
X502011Y211582D01*
X503829D01*
X505510Y212278D01*
X506796Y213564D01*
X507492Y215245D01*
Y217063D01*
X506796Y218744D01*
X505510Y220030D01*
X503829Y220726D01*
D02*
G37*
G36*
X707785Y221488D02*
X705979D01*
X704235Y221021D01*
X702671Y220118D01*
X701394Y218841D01*
X700491Y217277D01*
X700024Y215533D01*
Y213727D01*
X700491Y211983D01*
X701394Y210419D01*
X702671Y209142D01*
X704235Y208239D01*
X705979Y207772D01*
X707785D01*
X709529Y208239D01*
X711093Y209142D01*
X712370Y210419D01*
X713273Y211983D01*
X713740Y213727D01*
Y215533D01*
X713273Y217277D01*
X712370Y218841D01*
X711093Y220118D01*
X709529Y221021D01*
X707785Y221488D01*
D02*
G37*
G36*
X566957Y210028D02*
Y205775D01*
X571209D01*
X570424Y207670D01*
X568852Y209242D01*
X566957Y210028D01*
D02*
G37*
G36*
X564417D02*
X562521Y209242D01*
X560950Y207670D01*
X560164Y205775D01*
X564417D01*
Y210028D01*
D02*
G37*
G36*
X571209Y203235D02*
X566957D01*
Y198983D01*
X568852Y199768D01*
X570424Y201340D01*
X571209Y203235D01*
D02*
G37*
G36*
X564417D02*
X560164D01*
X560950Y201340D01*
X562521Y199768D01*
X564417Y198983D01*
Y203235D01*
D02*
G37*
G36*
X734013Y208153D02*
X732207D01*
X730463Y207686D01*
X728899Y206783D01*
X727622Y205506D01*
X726719Y203942D01*
X726252Y202198D01*
Y200392D01*
X726719Y198648D01*
X727622Y197084D01*
X728899Y195807D01*
X730463Y194904D01*
X732207Y194437D01*
X734013D01*
X735757Y194904D01*
X737321Y195807D01*
X738597Y197084D01*
X739500Y198648D01*
X739530Y198760D01*
X741042Y199296D01*
X741246Y199273D01*
X742803Y198628D01*
X744621D01*
X746302Y199324D01*
X747588Y200610D01*
X748284Y202291D01*
Y204109D01*
X747588Y205790D01*
X746302Y207076D01*
X744621Y207772D01*
X742803D01*
X741122Y207076D01*
X740063Y206016D01*
X739471Y205810D01*
X738224Y205880D01*
X737321Y206783D01*
X735757Y207686D01*
X734013Y208153D01*
D02*
G37*
G36*
X648970Y197292D02*
Y193040D01*
X653222D01*
X652437Y194935D01*
X650865Y196507D01*
X648970Y197292D01*
D02*
G37*
G36*
X646430D02*
X644535Y196507D01*
X642963Y194935D01*
X642178Y193040D01*
X646430D01*
Y197292D01*
D02*
G37*
G36*
X569722Y196276D02*
Y192024D01*
X573974D01*
X573189Y193919D01*
X571617Y195491D01*
X569722Y196276D01*
D02*
G37*
G36*
X653222Y190500D02*
X648970D01*
Y186248D01*
X650865Y187033D01*
X652437Y188605D01*
X653222Y190500D01*
D02*
G37*
G36*
X646430D02*
X642178D01*
X642963Y188605D01*
X644535Y187033D01*
X646430Y186248D01*
Y190500D01*
D02*
G37*
G36*
X680720Y189672D02*
Y185420D01*
X684972D01*
X684187Y187315D01*
X682615Y188887D01*
X680720Y189672D01*
D02*
G37*
G36*
X678180D02*
X676285Y188887D01*
X674713Y187315D01*
X673928Y185420D01*
X678180D01*
Y189672D01*
D02*
G37*
G36*
X573974Y189484D02*
X569722D01*
Y185232D01*
X571617Y186017D01*
X573189Y187589D01*
X573974Y189484D01*
D02*
G37*
G36*
X545987Y197612D02*
X544181D01*
X542437Y197145D01*
X540873Y196242D01*
X539596Y194965D01*
X538693Y193401D01*
X538226Y191657D01*
Y189851D01*
X538693Y188107D01*
X539596Y186543D01*
X540873Y185266D01*
X542437Y184363D01*
X544181Y183896D01*
X545987D01*
X547731Y184363D01*
X549295Y185266D01*
X549783Y185754D01*
X550525Y185012D01*
X552089Y184109D01*
X553833Y183642D01*
X555639D01*
X557383Y184109D01*
X558947Y185012D01*
X560224Y186289D01*
X561127Y187853D01*
X561456Y189082D01*
X563058Y189174D01*
X563715Y187589D01*
X565287Y186017D01*
X567182Y185232D01*
Y190754D01*
Y196276D01*
X565287Y195491D01*
X563715Y193919D01*
X562976Y192135D01*
X561941Y191987D01*
X561419Y192056D01*
X561127Y193147D01*
X560224Y194711D01*
X558947Y195988D01*
X557383Y196891D01*
X555639Y197358D01*
X553833D01*
X552089Y196891D01*
X550525Y195988D01*
X550037Y195500D01*
X549295Y196242D01*
X547731Y197145D01*
X545987Y197612D01*
D02*
G37*
G36*
X684972Y182880D02*
X680720D01*
Y178628D01*
X682615Y179413D01*
X684187Y180985D01*
X684972Y182880D01*
D02*
G37*
G36*
X678180D02*
X673928D01*
X674713Y180985D01*
X676285Y179413D01*
X678180Y178628D01*
Y182880D01*
D02*
G37*
G36*
X709930Y182052D02*
Y177800D01*
X714182D01*
X713397Y179695D01*
X711825Y181267D01*
X709930Y182052D01*
D02*
G37*
G36*
X707390D02*
X705495Y181267D01*
X703923Y179695D01*
X703138Y177800D01*
X707390D01*
Y182052D01*
D02*
G37*
G36*
X526689Y183642D02*
X524871D01*
X523190Y182946D01*
X521904Y181660D01*
X521208Y179979D01*
Y178161D01*
X521904Y176480D01*
X523190Y175194D01*
X524871Y174498D01*
X526689D01*
X528370Y175194D01*
X529656Y176480D01*
X530352Y178161D01*
Y179979D01*
X529656Y181660D01*
X528370Y182946D01*
X526689Y183642D01*
D02*
G37*
G36*
X714182Y175260D02*
X709930D01*
Y171008D01*
X711825Y171793D01*
X713397Y173365D01*
X714182Y175260D01*
D02*
G37*
G36*
X707390D02*
X703138D01*
X703923Y173365D01*
X705495Y171793D01*
X707390Y171008D01*
Y175260D01*
D02*
G37*
G36*
X732907Y179074D02*
X731007D01*
X729253Y178347D01*
X727910Y177004D01*
X727183Y175250D01*
Y173350D01*
X727910Y171596D01*
X729253Y170253D01*
X731007Y169526D01*
X732907D01*
X734661Y170253D01*
X736004Y171596D01*
X736731Y173350D01*
Y175250D01*
X736004Y177004D01*
X734661Y178347D01*
X732907Y179074D01*
D02*
G37*
G36*
X526900Y169202D02*
Y164950D01*
X531152D01*
X530367Y166845D01*
X528795Y168417D01*
X526900Y169202D01*
D02*
G37*
G36*
X524360D02*
X522465Y168417D01*
X520893Y166845D01*
X520108Y164950D01*
X524360D01*
Y169202D01*
D02*
G37*
G36*
X577580Y182372D02*
X575774D01*
X574030Y181905D01*
X572466Y181002D01*
X571190Y179725D01*
X570287Y178161D01*
X569819Y176417D01*
Y174611D01*
X570287Y172867D01*
X571190Y171303D01*
X571629Y170864D01*
X571346Y170581D01*
X570443Y169017D01*
X569976Y167273D01*
Y165467D01*
X570443Y163723D01*
X571346Y162159D01*
X572623Y160882D01*
X574187Y159979D01*
X575931Y159512D01*
X577737D01*
X579481Y159979D01*
X581045Y160882D01*
X582322Y162159D01*
X583225Y163723D01*
X583692Y165467D01*
Y167273D01*
X583225Y169017D01*
X582322Y170581D01*
X581882Y171020D01*
X582165Y171303D01*
X583068Y172867D01*
X583535Y174611D01*
Y176417D01*
X583068Y178161D01*
X582165Y179725D01*
X580888Y181002D01*
X579324Y181905D01*
X577580Y182372D01*
D02*
G37*
G36*
X695960Y163002D02*
Y158750D01*
X700212D01*
X699427Y160645D01*
X697855Y162217D01*
X695960Y163002D01*
D02*
G37*
G36*
X693420D02*
X691525Y162217D01*
X689953Y160645D01*
X689168Y158750D01*
X693420D01*
Y163002D01*
D02*
G37*
G36*
X531152Y162410D02*
X526900D01*
Y158158D01*
X528795Y158943D01*
X530367Y160515D01*
X531152Y162410D01*
D02*
G37*
G36*
X524360D02*
X520108D01*
X520893Y160515D01*
X522465Y158943D01*
X524360Y158158D01*
Y162410D01*
D02*
G37*
G36*
X772757Y166580D02*
X764757D01*
X763054Y166356D01*
X761467Y165699D01*
X760104Y164653D01*
X759058Y163290D01*
X758401Y161703D01*
X758177Y160000D01*
X758401Y158297D01*
X759058Y156710D01*
X760104Y155347D01*
X761467Y154301D01*
X763054Y153644D01*
X764757Y153420D01*
X772757D01*
X774460Y153644D01*
X776047Y154301D01*
X777410Y155347D01*
X778456Y156710D01*
X779113Y158297D01*
X779337Y160000D01*
X779113Y161703D01*
X778456Y163290D01*
X777410Y164653D01*
X776047Y165699D01*
X774460Y166356D01*
X772757Y166580D01*
D02*
G37*
G36*
X732457D02*
X721457D01*
X719754Y166356D01*
X718167Y165699D01*
X716804Y164653D01*
X715758Y163290D01*
X715101Y161703D01*
X714877Y160000D01*
X715101Y158297D01*
X715758Y156710D01*
X716804Y155347D01*
X718167Y154301D01*
X719754Y153644D01*
X721457Y153420D01*
X732457D01*
X734160Y153644D01*
X735747Y154301D01*
X737110Y155347D01*
X738156Y156710D01*
X738813Y158297D01*
X739037Y160000D01*
X738813Y161703D01*
X738156Y163290D01*
X737110Y164653D01*
X735747Y165699D01*
X734160Y166356D01*
X732457Y166580D01*
D02*
G37*
G36*
X700212Y156210D02*
X695960D01*
Y151958D01*
X697855Y152743D01*
X699427Y154315D01*
X700212Y156210D01*
D02*
G37*
G36*
X693420D02*
X689168D01*
X689953Y154315D01*
X691525Y152743D01*
X693420Y151958D01*
Y156210D01*
D02*
G37*
G36*
X546100Y138872D02*
X544205Y138087D01*
X542633Y136515D01*
X541848Y134620D01*
X546100D01*
Y138872D01*
D02*
G37*
G36*
X548640D02*
Y133350D01*
Y127828D01*
X550535Y128613D01*
X552107Y130185D01*
X552820Y131905D01*
X554110Y132074D01*
X554397Y132033D01*
X554924Y130760D01*
X556210Y129474D01*
X557891Y128778D01*
X559709D01*
X561390Y129474D01*
X562676Y130760D01*
X563372Y132441D01*
Y134259D01*
X562676Y135940D01*
X561390Y137226D01*
X559709Y137922D01*
X557891D01*
X556210Y137226D01*
X554924Y135940D01*
X554397Y134667D01*
X554110Y134626D01*
X552820Y134795D01*
X552107Y136515D01*
X550535Y138087D01*
X548640Y138872D01*
D02*
G37*
G36*
X546100Y132080D02*
X541848D01*
X542633Y130185D01*
X544205Y128613D01*
X546100Y127828D01*
Y132080D01*
D02*
G37*
G36*
X765810Y117282D02*
Y113030D01*
X770062D01*
X769277Y114925D01*
X767705Y116497D01*
X765810Y117282D01*
D02*
G37*
G36*
X763270D02*
X761375Y116497D01*
X759803Y114925D01*
X759018Y113030D01*
X763270D01*
Y117282D01*
D02*
G37*
G36*
X770062Y110490D02*
X765810D01*
Y106238D01*
X767705Y107023D01*
X769277Y108595D01*
X770062Y110490D01*
D02*
G37*
G36*
X763270D02*
X759018D01*
X759803Y108595D01*
X761375Y107023D01*
X763270Y106238D01*
Y110490D01*
D02*
G37*
G36*
X742950Y105852D02*
Y101600D01*
X747202D01*
X746417Y103495D01*
X744845Y105067D01*
X742950Y105852D01*
D02*
G37*
G36*
X740410D02*
X738515Y105067D01*
X736943Y103495D01*
X736158Y101600D01*
X740410D01*
Y105852D01*
D02*
G37*
G36*
X747202Y99060D02*
X742950D01*
Y94808D01*
X744845Y95593D01*
X746417Y97165D01*
X747202Y99060D01*
D02*
G37*
G36*
X740410D02*
X736158D01*
X736943Y97165D01*
X738515Y95593D01*
X740410Y94808D01*
Y99060D01*
D02*
G37*
G36*
X505968Y69784D02*
Y65532D01*
X510220D01*
X509435Y67427D01*
X507863Y68999D01*
X505968Y69784D01*
D02*
G37*
G36*
X503428D02*
X501533Y68999D01*
X499961Y67427D01*
X499176Y65532D01*
X503428D01*
Y69784D01*
D02*
G37*
G36*
X510220Y62992D02*
X505968D01*
Y58740D01*
X507863Y59525D01*
X509435Y61097D01*
X510220Y62992D01*
D02*
G37*
G36*
X503428D02*
X499176D01*
X499961Y61097D01*
X501533Y59525D01*
X503428Y58740D01*
Y62992D01*
D02*
G37*
G36*
X492845Y39500D02*
X492760D01*
Y30480D01*
X501780D01*
Y30565D01*
X501079Y33182D01*
X499724Y35528D01*
X497808Y37444D01*
X495462Y38799D01*
X492845Y39500D01*
D02*
G37*
G36*
X518111Y38484D02*
X515669D01*
X513310Y37852D01*
X511196Y36631D01*
X509469Y34904D01*
X508248Y32790D01*
X507616Y30431D01*
Y27989D01*
X508248Y25630D01*
X509469Y23516D01*
X511196Y21789D01*
X513310Y20568D01*
X515669Y19936D01*
X518111D01*
X520470Y20568D01*
X522584Y21789D01*
X524311Y23516D01*
X525532Y25630D01*
X526164Y27989D01*
Y30431D01*
X525532Y32790D01*
X524311Y34904D01*
X522584Y36631D01*
X520470Y37852D01*
X518111Y38484D01*
D02*
G37*
G36*
X501780Y27940D02*
X492760D01*
Y18920D01*
X492845D01*
X495462Y19621D01*
X497808Y20976D01*
X499724Y22892D01*
X501079Y25238D01*
X501780Y27855D01*
Y27940D01*
D02*
G37*
%LPD*%
D42*
X440690Y29210D02*
D03*
D43*
X82550Y285990D02*
D03*
Y313690D02*
D03*
Y202890D02*
D03*
Y147490D02*
D03*
X110950Y272140D02*
D03*
Y216740D02*
D03*
Y244440D02*
D03*
Y327540D02*
D03*
Y161340D02*
D03*
Y299840D02*
D03*
Y189040D02*
D03*
X82550Y175190D02*
D03*
Y230590D02*
D03*
Y258290D02*
D03*
D44*
X491490Y29210D02*
D03*
X516890D02*
D03*
X466090D02*
D03*
D45*
X96750Y397090D02*
D03*
Y64090D02*
D03*
D46*
X110950Y133640D02*
D03*
D47*
X731957Y174300D02*
D03*
Y232100D02*
D03*
D48*
X726957Y246400D02*
D03*
Y160000D02*
D03*
D49*
X768757Y246400D02*
D03*
Y160000D02*
D03*
D50*
X709697Y238760D02*
D03*
X276860Y148590D02*
D03*
X285750Y149860D02*
D03*
X681990Y233680D02*
D03*
X679450Y184150D02*
D03*
X741680Y100330D02*
D03*
X647700Y191770D02*
D03*
X200660Y97790D02*
D03*
X226060Y247650D02*
D03*
X345290Y153820D02*
D03*
X345440Y136144D02*
D03*
X250698Y144526D02*
D03*
Y95504D02*
D03*
X238506Y85344D02*
D03*
X229362Y76454D02*
D03*
X309118Y69088D02*
D03*
X237744Y64770D02*
D03*
X208534Y148844D02*
D03*
X236220Y285750D02*
D03*
X356870Y327660D02*
D03*
X367030Y245110D02*
D03*
X356870Y177800D02*
D03*
X261112Y81788D02*
D03*
X377444Y249936D02*
D03*
X367030Y234950D02*
D03*
X330200Y347980D02*
D03*
X356870Y165100D02*
D03*
X316230Y347980D02*
D03*
X283240Y327690D02*
D03*
X368554Y68326D02*
D03*
X382016Y62992D02*
D03*
X251460Y285750D02*
D03*
X266700D02*
D03*
X181610Y374650D02*
D03*
X181477Y402084D02*
D03*
X181610Y331470D02*
D03*
Y288290D02*
D03*
X168777Y426214D02*
D03*
X156210Y232410D02*
D03*
X139700Y229870D02*
D03*
X270510Y134620D02*
D03*
Y114300D02*
D03*
X269240Y96520D02*
D03*
X260604Y68580D02*
D03*
X156210Y200660D02*
D03*
X139700D02*
D03*
X334264Y78232D02*
D03*
X576834Y166370D02*
D03*
X661670Y260350D02*
D03*
X764540Y111760D02*
D03*
X708660Y176530D02*
D03*
X694690Y157480D02*
D03*
X683260Y252730D02*
D03*
X568452Y190754D02*
D03*
X552450Y218440D02*
D03*
Y232410D02*
D03*
X565687Y204505D02*
D03*
X538480Y218440D02*
D03*
X503936Y237236D02*
D03*
X538480Y232410D02*
D03*
X547370Y133350D02*
D03*
X525630Y163680D02*
D03*
X504698Y64262D02*
D03*
X630918Y233680D02*
D03*
X743712Y203200D02*
D03*
X706882Y214630D02*
D03*
X576677Y175514D02*
D03*
X545084Y190754D02*
D03*
X554736Y190500D02*
D03*
X584200Y257810D02*
D03*
X558800Y133350D02*
D03*
X525780Y179070D02*
D03*
X516128Y223520D02*
D03*
X502920Y216154D02*
D03*
X733110Y201295D02*
D03*
X579120Y218440D02*
D03*
X257810Y190500D02*
D03*
X270510Y179070D02*
D03*
X276860Y196850D02*
D03*
X303530Y151130D02*
D03*
X184150Y312420D02*
D03*
X185420Y356870D02*
D03*
X182880Y269240D02*
D03*
X289560Y262890D02*
D03*
X232410Y224790D02*
D03*
M02*
