G04*
G04 #@! TF.GenerationSoftware,Altium Limited,Altium Designer,26.7.1 (11)*
G04*
G04 Layer_Physical_Order=2*
G04 Layer_Color=36540*
G04 Board_Origin=26900000|31050000*
%FSLAX25Y25*%
%MOIN*%
G70*
G04*
G04 #@! TF.SameCoordinates,58A9D9B9-FFEA-463A-A5FF-2E5BA25C1195*
G04*
G04*
G04 #@! TF.FilePolarity,Positive*
G04*
G01*
G75*
%ADD42C,0.06102*%
%ADD43R,0.06102X0.06102*%
%ADD44C,0.06496*%
G04:AMPARAMS|DCode=45|XSize=64.96mil|YSize=64.96mil|CornerRadius=16.24mil|HoleSize=0mil|Usage=FLASHONLY|Rotation=270.000|XOffset=0mil|YOffset=0mil|HoleType=Round|Shape=RoundedRectangle|*
%AMROUNDEDRECTD45*
21,1,0.06496,0.03248,0,0,270.0*
21,1,0.03248,0.06496,0,0,270.0*
1,1,0.03248,-0.01624,-0.01624*
1,1,0.03248,-0.01624,0.01624*
1,1,0.03248,0.01624,0.01624*
1,1,0.03248,0.01624,-0.01624*
%
%ADD45ROUNDEDRECTD45*%
%ADD46C,0.18898*%
%ADD47C,0.02559*%
%ADD48O,0.08268X0.03937*%
%ADD49O,0.07087X0.03937*%
%ADD50C,0.02400*%
G36*
X157500Y37500D02*
X187300D01*
Y31721D01*
X186885Y31547D01*
X186700Y31529D01*
X185987Y32242D01*
X185064Y32775D01*
X184033Y33051D01*
X184000D01*
Y29000D01*
Y24949D01*
X184033D01*
X185064Y25225D01*
X185987Y25758D01*
X186700Y26471D01*
X186885Y26452D01*
X187300Y26279D01*
Y20000D01*
X157500D01*
X157500Y20000D01*
Y2000D01*
X7610D01*
X6261Y2268D01*
X5176Y2717D01*
X4200Y3370D01*
X3370Y4200D01*
X2717Y5176D01*
X2268Y6261D01*
X2000Y7610D01*
Y173890D01*
X2268Y175239D01*
X2717Y176323D01*
X3370Y177300D01*
X4200Y178130D01*
X5176Y178782D01*
X6261Y179232D01*
X7610Y179500D01*
X157500D01*
Y37500D01*
D02*
G37*
G36*
X307239Y179232D02*
X308324Y178782D01*
X309300Y178130D01*
X310130Y177300D01*
X310783Y176323D01*
X311232Y175239D01*
X311500Y173890D01*
Y7610D01*
X311232Y6261D01*
X310783Y5176D01*
X310130Y4200D01*
X309300Y3370D01*
X308324Y2717D01*
X307239Y2268D01*
X305890Y2000D01*
X189300D01*
Y28249D01*
X189900Y28328D01*
X190098Y27591D01*
X190578Y26758D01*
X191258Y26078D01*
X192091Y25598D01*
X193019Y25349D01*
X193981D01*
X194909Y25598D01*
X195742Y26078D01*
X196422Y26758D01*
X196902Y27591D01*
X197151Y28519D01*
Y29481D01*
X196902Y30409D01*
X196422Y31242D01*
X195742Y31922D01*
X194909Y32402D01*
X193981Y32651D01*
X193019D01*
X192091Y32402D01*
X191258Y31922D01*
X190578Y31242D01*
X190098Y30409D01*
X189900Y29672D01*
X189300Y29751D01*
Y179500D01*
X305890D01*
X307239Y179232D01*
D02*
G37*
%LPC*%
G36*
X66948Y169975D02*
Y168301D01*
X68622D01*
X68313Y169047D01*
X67694Y169666D01*
X66948Y169975D01*
D02*
G37*
G36*
X65948D02*
X65202Y169666D01*
X64583Y169047D01*
X64274Y168301D01*
X65948D01*
Y169975D01*
D02*
G37*
G36*
X68622Y167301D02*
X66948D01*
Y165627D01*
X67694Y165936D01*
X68313Y166555D01*
X68622Y167301D01*
D02*
G37*
G36*
X65948D02*
X64274D01*
X64583Y166555D01*
X65202Y165936D01*
X65948Y165627D01*
Y167301D01*
D02*
G37*
G36*
X71948Y160475D02*
Y158801D01*
X73622D01*
X73313Y159547D01*
X72694Y160166D01*
X71948Y160475D01*
D02*
G37*
G36*
X70948D02*
X70202Y160166D01*
X69583Y159547D01*
X69274Y158801D01*
X70948D01*
Y160475D01*
D02*
G37*
G36*
X73622Y157801D02*
X71948D01*
Y156127D01*
X72694Y156436D01*
X73313Y157055D01*
X73622Y157801D01*
D02*
G37*
G36*
X70948D02*
X69274D01*
X69583Y157055D01*
X70202Y156436D01*
X70948Y156127D01*
Y157801D01*
D02*
G37*
G36*
X72000Y149674D02*
Y148000D01*
X73674D01*
X73365Y148746D01*
X72746Y149365D01*
X72000Y149674D01*
D02*
G37*
G36*
X71000D02*
X70254Y149365D01*
X69635Y148746D01*
X69326Y148000D01*
X71000D01*
Y149674D01*
D02*
G37*
G36*
X39080Y166384D02*
X37101D01*
X35159Y165997D01*
X33331Y165240D01*
X31685Y164140D01*
X30285Y162740D01*
X29185Y161095D01*
X28428Y159266D01*
X28042Y157324D01*
Y155345D01*
X28428Y153403D01*
X29185Y151575D01*
X30285Y149929D01*
X31685Y148529D01*
X33331Y147430D01*
X35159Y146672D01*
X37101Y146286D01*
X39080D01*
X41022Y146672D01*
X42851Y147430D01*
X44496Y148529D01*
X45896Y149929D01*
X46996Y151575D01*
X47753Y153403D01*
X48139Y155345D01*
Y157324D01*
X47753Y159266D01*
X46996Y161095D01*
X45896Y162740D01*
X44496Y164140D01*
X42851Y165240D01*
X41022Y165997D01*
X39080Y166384D01*
D02*
G37*
G36*
X73674Y147000D02*
X72000D01*
Y145326D01*
X72746Y145635D01*
X73365Y146254D01*
X73674Y147000D01*
D02*
G37*
G36*
X71000D02*
X69326D01*
X69635Y146254D01*
X70254Y145635D01*
X71000Y145326D01*
Y147000D01*
D02*
G37*
G36*
X73358Y142300D02*
X72642D01*
X71980Y142026D01*
X71474Y141520D01*
X71200Y140858D01*
Y140142D01*
X71474Y139480D01*
X71980Y138974D01*
X72642Y138700D01*
X73358D01*
X74020Y138974D01*
X74526Y139480D01*
X74800Y140142D01*
Y140858D01*
X74526Y141520D01*
X74020Y142026D01*
X73358Y142300D01*
D02*
G37*
G36*
X130500Y139174D02*
Y137500D01*
X132174D01*
X131865Y138246D01*
X131246Y138865D01*
X130500Y139174D01*
D02*
G37*
G36*
X129500D02*
X128754Y138865D01*
X128135Y138246D01*
X127826Y137500D01*
X129500D01*
Y139174D01*
D02*
G37*
G36*
X125000D02*
Y137500D01*
X126674D01*
X126365Y138246D01*
X125746Y138865D01*
X125000Y139174D01*
D02*
G37*
G36*
X124000D02*
X123254Y138865D01*
X122635Y138246D01*
X122326Y137500D01*
X124000D01*
Y139174D01*
D02*
G37*
G36*
X132174Y136500D02*
X130500D01*
Y134826D01*
X131246Y135135D01*
X131865Y135754D01*
X132174Y136500D01*
D02*
G37*
G36*
X129500D02*
X127826D01*
X128135Y135754D01*
X128754Y135135D01*
X129500Y134826D01*
Y136500D01*
D02*
G37*
G36*
X126674D02*
X125000D01*
Y134826D01*
X125746Y135135D01*
X126365Y135754D01*
X126674Y136500D01*
D02*
G37*
G36*
X124000D02*
X122326D01*
X122635Y135754D01*
X123254Y135135D01*
X124000Y134826D01*
Y136500D01*
D02*
G37*
G36*
X72000Y132674D02*
Y131000D01*
X73674D01*
X73365Y131746D01*
X72746Y132365D01*
X72000Y132674D01*
D02*
G37*
G36*
X71000D02*
X70254Y132365D01*
X69635Y131746D01*
X69326Y131000D01*
X71000D01*
Y132674D01*
D02*
G37*
G36*
X112012Y131186D02*
Y129512D01*
X113686D01*
X113377Y130258D01*
X112758Y130877D01*
X112012Y131186D01*
D02*
G37*
G36*
X111012D02*
X110266Y130877D01*
X109647Y130258D01*
X109338Y129512D01*
X111012D01*
Y131186D01*
D02*
G37*
G36*
X73674Y130000D02*
X72000D01*
Y128326D01*
X72746Y128635D01*
X73365Y129254D01*
X73674Y130000D01*
D02*
G37*
G36*
X71000D02*
X69326D01*
X69635Y129254D01*
X70254Y128635D01*
X71000Y128326D01*
Y130000D01*
D02*
G37*
G36*
X140858Y130800D02*
X140142D01*
X139480Y130526D01*
X138974Y130020D01*
X138700Y129358D01*
Y128642D01*
X138974Y127980D01*
X139480Y127474D01*
X140142Y127200D01*
X140858D01*
X141520Y127474D01*
X142026Y127980D01*
X142300Y128642D01*
Y129358D01*
X142026Y130020D01*
X141520Y130526D01*
X140858Y130800D01*
D02*
G37*
G36*
X113686Y128512D02*
X112012D01*
Y126838D01*
X112758Y127147D01*
X113377Y127766D01*
X113686Y128512D01*
D02*
G37*
G36*
X111012D02*
X109338D01*
X109647Y127766D01*
X110266Y127147D01*
X111012Y126838D01*
Y128512D01*
D02*
G37*
G36*
X44188Y132801D02*
X43174D01*
X42196Y132539D01*
X41318Y132032D01*
X40602Y131316D01*
X40095Y130438D01*
X39833Y129459D01*
Y128446D01*
X40095Y127468D01*
X40602Y126590D01*
X41318Y125874D01*
X42196Y125367D01*
X43174Y125105D01*
X44188D01*
X45166Y125367D01*
X46044Y125874D01*
X46760Y126590D01*
X47267Y127468D01*
X47529Y128446D01*
Y129459D01*
X47267Y130438D01*
X46760Y131316D01*
X46044Y132032D01*
X45166Y132539D01*
X44188Y132801D01*
D02*
G37*
G36*
X33059Y127748D02*
X33000D01*
Y124000D01*
X36748D01*
Y124059D01*
X36459Y125140D01*
X35899Y126108D01*
X35108Y126899D01*
X34140Y127459D01*
X33059Y127748D01*
D02*
G37*
G36*
X32000D02*
X31941D01*
X30860Y127459D01*
X29892Y126899D01*
X29101Y126108D01*
X28541Y125140D01*
X28252Y124059D01*
Y124000D01*
X32000D01*
Y127748D01*
D02*
G37*
G36*
X72858Y124800D02*
X72142D01*
X71480Y124526D01*
X70974Y124020D01*
X70700Y123358D01*
Y122642D01*
X70974Y121980D01*
X71480Y121474D01*
X72142Y121200D01*
X72858D01*
X73520Y121474D01*
X74026Y121980D01*
X74300Y122642D01*
Y123358D01*
X74026Y124020D01*
X73520Y124526D01*
X72858Y124800D01*
D02*
G37*
G36*
X36748Y123000D02*
X33000D01*
Y119252D01*
X33059D01*
X34140Y119542D01*
X35108Y120101D01*
X35899Y120892D01*
X36459Y121860D01*
X36748Y122941D01*
Y123000D01*
D02*
G37*
G36*
X32000D02*
X28252D01*
Y122941D01*
X28541Y121860D01*
X29101Y120892D01*
X29892Y120101D01*
X30860Y119542D01*
X31941Y119252D01*
X32000D01*
Y123000D01*
D02*
G37*
G36*
X44188Y121895D02*
X43174D01*
X42196Y121633D01*
X41318Y121126D01*
X40602Y120410D01*
X40095Y119533D01*
X39833Y118554D01*
Y117541D01*
X40095Y116562D01*
X40602Y115684D01*
X41318Y114968D01*
X42196Y114461D01*
X43174Y114199D01*
X44188D01*
X45166Y114461D01*
X46044Y114968D01*
X46760Y115684D01*
X47267Y116562D01*
X47529Y117541D01*
Y118554D01*
X47267Y119533D01*
X46760Y120410D01*
X46044Y121126D01*
X45166Y121633D01*
X44188Y121895D01*
D02*
G37*
G36*
X72000Y115674D02*
Y114000D01*
X73674D01*
X73365Y114746D01*
X72746Y115365D01*
X72000Y115674D01*
D02*
G37*
G36*
X71000D02*
X70254Y115365D01*
X69635Y114746D01*
X69326Y114000D01*
X71000D01*
Y115674D01*
D02*
G37*
G36*
X33059Y116842D02*
X33000D01*
Y113094D01*
X36748D01*
Y113154D01*
X36459Y114234D01*
X35899Y115203D01*
X35108Y115994D01*
X34140Y116553D01*
X33059Y116842D01*
D02*
G37*
G36*
X32000D02*
X31941D01*
X30860Y116553D01*
X29892Y115994D01*
X29101Y115203D01*
X28541Y114234D01*
X28252Y113154D01*
Y113094D01*
X32000D01*
Y116842D01*
D02*
G37*
G36*
X105500Y114674D02*
Y113000D01*
X107174D01*
X106865Y113746D01*
X106246Y114365D01*
X105500Y114674D01*
D02*
G37*
G36*
X104500D02*
X103754Y114365D01*
X103135Y113746D01*
X102826Y113000D01*
X104500D01*
Y114674D01*
D02*
G37*
G36*
X99500D02*
Y113000D01*
X101174D01*
X100865Y113746D01*
X100246Y114365D01*
X99500Y114674D01*
D02*
G37*
G36*
X98500D02*
X97754Y114365D01*
X97135Y113746D01*
X96826Y113000D01*
X98500D01*
Y114674D01*
D02*
G37*
G36*
X73674Y113000D02*
X72000D01*
Y111326D01*
X72746Y111635D01*
X73365Y112254D01*
X73674Y113000D01*
D02*
G37*
G36*
X71000D02*
X69326D01*
X69635Y112254D01*
X70254Y111635D01*
X71000Y111326D01*
Y113000D01*
D02*
G37*
G36*
X93358Y114300D02*
X92642D01*
X91980Y114026D01*
X91474Y113520D01*
X91200Y112858D01*
Y112142D01*
X91474Y111480D01*
X91980Y110974D01*
X92642Y110700D01*
X93358D01*
X94020Y110974D01*
X94526Y111480D01*
X94800Y112142D01*
Y112858D01*
X94526Y113520D01*
X94020Y114026D01*
X93358Y114300D01*
D02*
G37*
G36*
X107174Y112000D02*
X105500D01*
Y110326D01*
X106246Y110635D01*
X106865Y111254D01*
X107174Y112000D01*
D02*
G37*
G36*
X104500D02*
X102826D01*
X103135Y111254D01*
X103754Y110635D01*
X104500Y110326D01*
Y112000D01*
D02*
G37*
G36*
X101174D02*
X99500D01*
Y110326D01*
X100246Y110635D01*
X100865Y111254D01*
X101174Y112000D01*
D02*
G37*
G36*
X98500D02*
X96826D01*
X97135Y111254D01*
X97754Y110635D01*
X98500Y110326D01*
Y112000D01*
D02*
G37*
G36*
X36748Y112094D02*
X33000D01*
Y108346D01*
X33059D01*
X34140Y108636D01*
X35108Y109195D01*
X35899Y109986D01*
X36459Y110955D01*
X36748Y112035D01*
Y112094D01*
D02*
G37*
G36*
X32000D02*
X28252D01*
Y112035D01*
X28541Y110955D01*
X29101Y109986D01*
X29892Y109195D01*
X30860Y108636D01*
X31941Y108346D01*
X32000D01*
Y112094D01*
D02*
G37*
G36*
X72358Y107800D02*
X71642D01*
X70980Y107526D01*
X70474Y107020D01*
X70200Y106358D01*
Y105642D01*
X70474Y104980D01*
X70980Y104474D01*
X71642Y104200D01*
X72358D01*
X73020Y104474D01*
X73526Y104980D01*
X73800Y105642D01*
Y106358D01*
X73526Y107020D01*
X73020Y107526D01*
X72358Y107800D01*
D02*
G37*
G36*
X44188Y110990D02*
X43174D01*
X42196Y110728D01*
X41318Y110221D01*
X40602Y109504D01*
X40095Y108627D01*
X39833Y107648D01*
Y106635D01*
X40095Y105656D01*
X40602Y104779D01*
X41318Y104062D01*
X42196Y103556D01*
X43174Y103294D01*
X44188D01*
X45166Y103556D01*
X46044Y104062D01*
X46760Y104779D01*
X47267Y105656D01*
X47529Y106635D01*
Y107648D01*
X47267Y108627D01*
X46760Y109504D01*
X46044Y110221D01*
X45166Y110728D01*
X44188Y110990D01*
D02*
G37*
G36*
X114358Y105300D02*
X113642D01*
X112980Y105026D01*
X112474Y104520D01*
X112200Y103858D01*
Y103142D01*
X112474Y102480D01*
X112980Y101974D01*
X113642Y101700D01*
X114358D01*
X115020Y101974D01*
X115526Y102480D01*
X115800Y103142D01*
Y103858D01*
X115526Y104520D01*
X115020Y105026D01*
X114358Y105300D01*
D02*
G37*
G36*
X149100Y100574D02*
Y98900D01*
X150774D01*
X150465Y99646D01*
X149846Y100265D01*
X149100Y100574D01*
D02*
G37*
G36*
X148100D02*
X147354Y100265D01*
X146735Y99646D01*
X146426Y98900D01*
X148100D01*
Y100574D01*
D02*
G37*
G36*
X89500Y99674D02*
Y98000D01*
X91174D01*
X90865Y98746D01*
X90246Y99365D01*
X89500Y99674D01*
D02*
G37*
G36*
X88500D02*
X87754Y99365D01*
X87135Y98746D01*
X86826Y98000D01*
X88500D01*
Y99674D01*
D02*
G37*
G36*
X33007Y105537D02*
X31993D01*
X31015Y105275D01*
X30137Y104768D01*
X29421Y104052D01*
X28914Y103174D01*
X28652Y102196D01*
Y101182D01*
X28914Y100204D01*
X29421Y99326D01*
X30137Y98610D01*
X31015Y98103D01*
X31993Y97841D01*
X33007D01*
X33985Y98103D01*
X34863Y98610D01*
X35579Y99326D01*
X36086Y100204D01*
X36348Y101182D01*
Y102196D01*
X36086Y103174D01*
X35579Y104052D01*
X34863Y104768D01*
X33985Y105275D01*
X33007Y105537D01*
D02*
G37*
G36*
X150774Y97900D02*
X149100D01*
Y96226D01*
X149846Y96535D01*
X150465Y97154D01*
X150774Y97900D01*
D02*
G37*
G36*
X144858Y98300D02*
X144142D01*
X143480Y98026D01*
X142974Y97520D01*
X142700Y96858D01*
Y96142D01*
X142974Y95480D01*
X143385Y95069D01*
X143380Y94614D01*
X143318Y94392D01*
X143254Y94365D01*
X142635Y93746D01*
X142326Y93000D01*
X146674D01*
X146365Y93746D01*
X145746Y94365D01*
X145682Y94392D01*
X145620Y94614D01*
X145615Y95069D01*
X146026Y95480D01*
X146300Y96142D01*
Y96755D01*
X146617Y96959D01*
X146854Y97034D01*
X147354Y96535D01*
X148100Y96226D01*
Y97900D01*
X146284D01*
X145869Y97677D01*
X145520Y98026D01*
X144858Y98300D01*
D02*
G37*
G36*
X91174Y97000D02*
X89500D01*
Y95326D01*
X90246Y95635D01*
X90865Y96254D01*
X91174Y97000D01*
D02*
G37*
G36*
X88500D02*
X86826D01*
X87135Y96254D01*
X87754Y95635D01*
X88500Y95326D01*
Y97000D01*
D02*
G37*
G36*
X44188Y100084D02*
X43174D01*
X42196Y99822D01*
X41318Y99315D01*
X40602Y98599D01*
X40095Y97721D01*
X39833Y96743D01*
Y95730D01*
X40095Y94751D01*
X40602Y93874D01*
X41318Y93157D01*
X42196Y92650D01*
X43174Y92388D01*
X44188D01*
X45166Y92650D01*
X46044Y93157D01*
X46760Y93874D01*
X47267Y94751D01*
X47529Y95730D01*
Y96743D01*
X47267Y97721D01*
X46760Y98599D01*
X46044Y99315D01*
X45166Y99822D01*
X44188Y100084D01*
D02*
G37*
G36*
X62000Y93674D02*
Y92000D01*
X63674D01*
X63365Y92746D01*
X62746Y93365D01*
X62000Y93674D01*
D02*
G37*
G36*
X61000D02*
X60254Y93365D01*
X59635Y92746D01*
X59326Y92000D01*
X61000D01*
Y93674D01*
D02*
G37*
G36*
X55500Y92674D02*
Y91000D01*
X57174D01*
X56865Y91746D01*
X56246Y92365D01*
X55500Y92674D01*
D02*
G37*
G36*
X54500D02*
X53754Y92365D01*
X53135Y91746D01*
X52826Y91000D01*
X54500D01*
Y92674D01*
D02*
G37*
G36*
X146674Y92000D02*
X145000D01*
Y90326D01*
X145746Y90635D01*
X146365Y91254D01*
X146674Y92000D01*
D02*
G37*
G36*
X144000D02*
X142326D01*
X142635Y91254D01*
X143254Y90635D01*
X144000Y90326D01*
Y92000D01*
D02*
G37*
G36*
X63674Y91000D02*
X62000D01*
Y89326D01*
X62746Y89635D01*
X63365Y90254D01*
X63674Y91000D01*
D02*
G37*
G36*
X61000D02*
X59326D01*
X59635Y90254D01*
X60254Y89635D01*
X61000Y89326D01*
Y91000D01*
D02*
G37*
G36*
X57174Y90000D02*
X55500D01*
Y88326D01*
X56246Y88635D01*
X56865Y89254D01*
X57174Y90000D01*
D02*
G37*
G36*
X54500D02*
X52826D01*
X53135Y89254D01*
X53754Y88635D01*
X54500Y88326D01*
Y90000D01*
D02*
G37*
G36*
X33007Y94631D02*
X31993D01*
X31015Y94369D01*
X30137Y93863D01*
X29421Y93146D01*
X28914Y92269D01*
X28652Y91290D01*
Y90277D01*
X28914Y89298D01*
X29421Y88421D01*
X30137Y87704D01*
X31015Y87198D01*
X31993Y86935D01*
X33007D01*
X33985Y87198D01*
X34863Y87704D01*
X35579Y88421D01*
X36086Y89298D01*
X36348Y90277D01*
Y91290D01*
X36086Y92269D01*
X35579Y93146D01*
X34863Y93863D01*
X33985Y94369D01*
X33007Y94631D01*
D02*
G37*
G36*
X91858Y90300D02*
X91142D01*
X90480Y90026D01*
X89974Y89520D01*
X89700Y88858D01*
Y88142D01*
X89974Y87480D01*
X90480Y86974D01*
X91142Y86700D01*
X91858D01*
X92520Y86974D01*
X93026Y87480D01*
X93300Y88142D01*
Y88858D01*
X93026Y89520D01*
X92520Y90026D01*
X91858Y90300D01*
D02*
G37*
G36*
X44188Y89179D02*
X43174D01*
X42196Y88916D01*
X41318Y88410D01*
X40602Y87693D01*
X40095Y86816D01*
X39833Y85837D01*
Y84824D01*
X40095Y83845D01*
X40602Y82968D01*
X41318Y82252D01*
X42196Y81745D01*
X43174Y81483D01*
X44188D01*
X45166Y81745D01*
X46044Y82252D01*
X46760Y82968D01*
X47267Y83845D01*
X47529Y84824D01*
Y85837D01*
X47267Y86816D01*
X46760Y87693D01*
X46044Y88410D01*
X45166Y88916D01*
X44188Y89179D01*
D02*
G37*
G36*
X62000Y81174D02*
Y79500D01*
X63674D01*
X63365Y80246D01*
X62746Y80865D01*
X62000Y81174D01*
D02*
G37*
G36*
X61000D02*
X60254Y80865D01*
X59635Y80246D01*
X59326Y79500D01*
X61000D01*
Y81174D01*
D02*
G37*
G36*
X55500D02*
Y79500D01*
X57174D01*
X56865Y80246D01*
X56246Y80865D01*
X55500Y81174D01*
D02*
G37*
G36*
X54500D02*
X53754Y80865D01*
X53135Y80246D01*
X52826Y79500D01*
X54500D01*
Y81174D01*
D02*
G37*
G36*
X63674Y78500D02*
X62000D01*
Y76826D01*
X62746Y77135D01*
X63365Y77754D01*
X63674Y78500D01*
D02*
G37*
G36*
X61000D02*
X59326D01*
X59635Y77754D01*
X60254Y77135D01*
X61000Y76826D01*
Y78500D01*
D02*
G37*
G36*
X57174D02*
X55500D01*
Y76826D01*
X56246Y77135D01*
X56865Y77754D01*
X57174Y78500D01*
D02*
G37*
G36*
X54500D02*
X52826D01*
X53135Y77754D01*
X53754Y77135D01*
X54500Y76826D01*
Y78500D01*
D02*
G37*
G36*
X109358Y79300D02*
X108642D01*
X107980Y79026D01*
X107474Y78520D01*
X107200Y77858D01*
Y77142D01*
X107474Y76480D01*
X107980Y75974D01*
X108642Y75700D01*
X109358D01*
X110020Y75974D01*
X110526Y76480D01*
X110800Y77142D01*
Y77858D01*
X110526Y78520D01*
X110020Y79026D01*
X109358Y79300D01*
D02*
G37*
G36*
X33059Y84126D02*
X31941D01*
X30860Y83837D01*
X29892Y83277D01*
X29101Y82486D01*
X28541Y81518D01*
X28252Y80437D01*
Y79319D01*
X28541Y78238D01*
X29101Y77270D01*
X29892Y76479D01*
X30860Y75919D01*
X31941Y75630D01*
X33059D01*
X34140Y75919D01*
X35108Y76479D01*
X35899Y77270D01*
X36459Y78238D01*
X36748Y79319D01*
Y80437D01*
X36459Y81518D01*
X35899Y82486D01*
X35108Y83277D01*
X34140Y83837D01*
X33059Y84126D01*
D02*
G37*
G36*
X101858Y76800D02*
X101142D01*
X100480Y76526D01*
X99974Y76020D01*
X99700Y75358D01*
Y74642D01*
X99974Y73980D01*
X100480Y73474D01*
X101142Y73200D01*
X101858D01*
X102520Y73474D01*
X103026Y73980D01*
X103300Y74642D01*
Y75358D01*
X103026Y76020D01*
X102520Y76526D01*
X101858Y76800D01*
D02*
G37*
G36*
X44188Y78273D02*
X43174D01*
X42196Y78011D01*
X41318Y77504D01*
X40602Y76788D01*
X40095Y75911D01*
X39833Y74932D01*
Y73919D01*
X40095Y72940D01*
X40602Y72062D01*
X41318Y71346D01*
X42196Y70839D01*
X43174Y70577D01*
X44188D01*
X45166Y70839D01*
X46044Y71346D01*
X46760Y72062D01*
X47267Y72940D01*
X47529Y73919D01*
Y74932D01*
X47267Y75911D01*
X46760Y76788D01*
X46044Y77504D01*
X45166Y78011D01*
X44188Y78273D01*
D02*
G37*
G36*
X106858Y72300D02*
X106142D01*
X105480Y72026D01*
X104974Y71520D01*
X104700Y70858D01*
Y70142D01*
X104974Y69480D01*
X105480Y68974D01*
X106142Y68700D01*
X106858D01*
X107520Y68974D01*
X108026Y69480D01*
X108300Y70142D01*
Y70858D01*
X108026Y71520D01*
X107520Y72026D01*
X106858Y72300D01*
D02*
G37*
G36*
X140858Y71800D02*
X140142D01*
X139480Y71526D01*
X138974Y71020D01*
X138700Y70358D01*
Y69642D01*
X138974Y68980D01*
X139480Y68474D01*
X140142Y68200D01*
X140858D01*
X141520Y68474D01*
X142026Y68980D01*
X142300Y69642D01*
Y70358D01*
X142026Y71020D01*
X141520Y71526D01*
X140858Y71800D01*
D02*
G37*
G36*
X141000Y67174D02*
Y65500D01*
X142674D01*
X142365Y66246D01*
X141746Y66865D01*
X141000Y67174D01*
D02*
G37*
G36*
X140000D02*
X139254Y66865D01*
X138635Y66246D01*
X138326Y65500D01*
X140000D01*
Y67174D01*
D02*
G37*
G36*
X33007Y72821D02*
X31993D01*
X31015Y72558D01*
X30137Y72052D01*
X29421Y71335D01*
X28914Y70458D01*
X28652Y69479D01*
Y68466D01*
X28914Y67487D01*
X29421Y66610D01*
X30137Y65893D01*
X31015Y65387D01*
X31993Y65124D01*
X33007D01*
X33985Y65387D01*
X34863Y65893D01*
X35579Y66610D01*
X36086Y67487D01*
X36348Y68466D01*
Y69479D01*
X36086Y70458D01*
X35579Y71335D01*
X34863Y72052D01*
X33985Y72558D01*
X33007Y72821D01*
D02*
G37*
G36*
X142674Y64500D02*
X141000D01*
Y62826D01*
X141746Y63135D01*
X142365Y63754D01*
X142674Y64500D01*
D02*
G37*
G36*
X140000D02*
X138326D01*
X138635Y63754D01*
X139254Y63135D01*
X140000Y62826D01*
Y64500D01*
D02*
G37*
G36*
X112000Y61174D02*
X111254Y60865D01*
X110635Y60246D01*
X110410Y60201D01*
X110246Y60365D01*
X109500Y60674D01*
Y58500D01*
Y56326D01*
X110246Y56635D01*
X110865Y57254D01*
X111090Y57299D01*
X111254Y57135D01*
X112000Y56826D01*
Y59000D01*
Y61174D01*
D02*
G37*
G36*
X113000D02*
Y59500D01*
X114674D01*
X114365Y60246D01*
X113746Y60865D01*
X113000Y61174D01*
D02*
G37*
G36*
X108500Y60674D02*
X107754Y60365D01*
X107135Y59746D01*
X106826Y59000D01*
X108500D01*
Y60674D01*
D02*
G37*
G36*
X44306Y68268D02*
X43056D01*
X41848Y67944D01*
X40766Y67319D01*
X39882Y66435D01*
X39257Y65352D01*
X38933Y64145D01*
Y62895D01*
X39257Y61687D01*
X39882Y60604D01*
X40766Y59720D01*
X41848Y59095D01*
X43056Y58772D01*
X44306D01*
X45514Y59095D01*
X46597Y59720D01*
X47480Y60604D01*
X48106Y61687D01*
X48429Y62895D01*
Y64145D01*
X48106Y65352D01*
X47480Y66435D01*
X46597Y67319D01*
X45514Y67944D01*
X44306Y68268D01*
D02*
G37*
G36*
X136299Y62359D02*
X135583D01*
X134921Y62085D01*
X134415Y61579D01*
X134141Y60917D01*
Y60201D01*
X134415Y59539D01*
X134921Y59033D01*
X135583Y58759D01*
X136299D01*
X136961Y59033D01*
X137467Y59539D01*
X137741Y60201D01*
Y60917D01*
X137467Y61579D01*
X136961Y62085D01*
X136299Y62359D01*
D02*
G37*
G36*
X119858Y61300D02*
X119142D01*
X118480Y61026D01*
X117974Y60520D01*
X117700Y59858D01*
Y59142D01*
X117974Y58480D01*
X118480Y57974D01*
X119142Y57700D01*
X119858D01*
X120520Y57974D01*
X121026Y58480D01*
X121300Y59142D01*
Y59858D01*
X121026Y60520D01*
X120520Y61026D01*
X119858Y61300D01*
D02*
G37*
G36*
X99200Y59074D02*
Y57400D01*
X100874D01*
X100565Y58146D01*
X99946Y58765D01*
X99200Y59074D01*
D02*
G37*
G36*
X98200D02*
X97454Y58765D01*
X96835Y58146D01*
X96526Y57400D01*
X98200D01*
Y59074D01*
D02*
G37*
G36*
X114674Y58500D02*
X113000D01*
Y56826D01*
X113746Y57135D01*
X114365Y57754D01*
X114674Y58500D01*
D02*
G37*
G36*
X82458Y60400D02*
X81742D01*
X81080Y60126D01*
X80574Y59620D01*
X80300Y58958D01*
Y58242D01*
X80574Y57580D01*
X81080Y57074D01*
X81742Y56800D01*
X82458D01*
X83120Y57074D01*
X83626Y57580D01*
X83900Y58242D01*
Y58958D01*
X83626Y59620D01*
X83120Y60126D01*
X82458Y60400D01*
D02*
G37*
G36*
X108500Y58000D02*
X106826D01*
X107135Y57254D01*
X107754Y56635D01*
X108500Y56326D01*
Y58000D01*
D02*
G37*
G36*
X100874Y56400D02*
X99200D01*
Y54726D01*
X99946Y55035D01*
X100565Y55654D01*
X100874Y56400D01*
D02*
G37*
G36*
X98200D02*
X96526D01*
X96835Y55654D01*
X97454Y55035D01*
X98200Y54726D01*
Y56400D01*
D02*
G37*
G36*
X136500Y55774D02*
Y54100D01*
X138174D01*
X137865Y54846D01*
X137246Y55465D01*
X136500Y55774D01*
D02*
G37*
G36*
X135500D02*
X134754Y55465D01*
X134135Y54846D01*
X133826Y54100D01*
X135500D01*
Y55774D01*
D02*
G37*
G36*
X33059Y62315D02*
X31941D01*
X30860Y62025D01*
X29892Y61466D01*
X29101Y60675D01*
X28541Y59707D01*
X28252Y58626D01*
Y57508D01*
X28541Y56427D01*
X29101Y55459D01*
X29892Y54668D01*
X30860Y54108D01*
X31941Y53819D01*
X33059D01*
X34140Y54108D01*
X35108Y54668D01*
X35899Y55459D01*
X36459Y56427D01*
X36748Y57508D01*
Y58626D01*
X36459Y59707D01*
X35899Y60675D01*
X35108Y61466D01*
X34140Y62025D01*
X33059Y62315D01*
D02*
G37*
G36*
X107000Y55174D02*
Y53500D01*
X108674D01*
X108365Y54246D01*
X107746Y54865D01*
X107000Y55174D01*
D02*
G37*
G36*
X106000D02*
X105254Y54865D01*
X104635Y54246D01*
X104326Y53500D01*
X106000D01*
Y55174D01*
D02*
G37*
G36*
X138174Y53100D02*
X136500D01*
Y51426D01*
X137246Y51735D01*
X137865Y52354D01*
X138174Y53100D01*
D02*
G37*
G36*
X135500D02*
X133826D01*
X134135Y52354D01*
X134754Y51735D01*
X135500Y51426D01*
Y53100D01*
D02*
G37*
G36*
X108674Y52500D02*
X107000D01*
Y50826D01*
X107746Y51135D01*
X108365Y51754D01*
X108674Y52500D01*
D02*
G37*
G36*
X106000D02*
X104326D01*
X104635Y51754D01*
X105254Y51135D01*
X106000Y50826D01*
Y52500D01*
D02*
G37*
G36*
X45305Y57389D02*
X42057D01*
X41242Y57282D01*
X40482Y56967D01*
X39829Y56466D01*
X39328Y55814D01*
X39013Y55054D01*
X38906Y54238D01*
Y50990D01*
X39013Y50175D01*
X39328Y49415D01*
X39829Y48762D01*
X40482Y48261D01*
X41242Y47947D01*
X42057Y47839D01*
X45305D01*
X46121Y47947D01*
X46881Y48261D01*
X47533Y48762D01*
X48034Y49415D01*
X48349Y50175D01*
X48456Y50990D01*
Y54238D01*
X48349Y55054D01*
X48034Y55814D01*
X47533Y56466D01*
X46881Y56967D01*
X46121Y57282D01*
X45305Y57389D01*
D02*
G37*
G36*
X107000Y47174D02*
Y45500D01*
X108674D01*
X108365Y46246D01*
X107746Y46865D01*
X107000Y47174D01*
D02*
G37*
G36*
X106000D02*
X105254Y46865D01*
X104635Y46246D01*
X104326Y45500D01*
X106000D01*
Y47174D01*
D02*
G37*
G36*
X108674Y44500D02*
X107000D01*
Y42826D01*
X107746Y43135D01*
X108365Y43754D01*
X108674Y44500D01*
D02*
G37*
G36*
X106000D02*
X104326D01*
X104635Y43754D01*
X105254Y43135D01*
X106000Y42826D01*
Y44500D01*
D02*
G37*
G36*
X79500Y40674D02*
Y39000D01*
X81174D01*
X80865Y39746D01*
X80246Y40365D01*
X79500Y40674D01*
D02*
G37*
G36*
X78500D02*
X77754Y40365D01*
X77135Y39746D01*
X76826Y39000D01*
X78500D01*
Y40674D01*
D02*
G37*
G36*
X106500Y40174D02*
Y38500D01*
X108174D01*
X107865Y39246D01*
X107246Y39865D01*
X106500Y40174D01*
D02*
G37*
G36*
X105500D02*
X104754Y39865D01*
X104135Y39246D01*
X103826Y38500D01*
X105500D01*
Y40174D01*
D02*
G37*
G36*
X81174Y38000D02*
X79500D01*
Y36326D01*
X80246Y36635D01*
X80865Y37254D01*
X81174Y38000D01*
D02*
G37*
G36*
X78500D02*
X76826D01*
X77135Y37254D01*
X77754Y36635D01*
X78500Y36326D01*
Y38000D01*
D02*
G37*
G36*
X108174Y37500D02*
X106500D01*
Y35826D01*
X107246Y36135D01*
X107865Y36754D01*
X108174Y37500D01*
D02*
G37*
G36*
X105500D02*
X103826D01*
X104135Y36754D01*
X104754Y36135D01*
X105500Y35826D01*
Y37500D01*
D02*
G37*
G36*
X99058Y39400D02*
X98342D01*
X97680Y39126D01*
X97174Y38620D01*
X96900Y37958D01*
Y37242D01*
X97174Y36580D01*
X97680Y36074D01*
X98342Y35800D01*
X99058D01*
X99720Y36074D01*
X100226Y36580D01*
X100500Y37242D01*
Y37958D01*
X100226Y38620D01*
X99720Y39126D01*
X99058Y39400D01*
D02*
G37*
G36*
X94258Y35400D02*
X93542D01*
X92880Y35126D01*
X92374Y34620D01*
X92100Y33958D01*
Y33242D01*
X92374Y32580D01*
X92880Y32074D01*
X93542Y31800D01*
X94258D01*
X94920Y32074D01*
X95426Y32580D01*
X95700Y33242D01*
Y33958D01*
X95426Y34620D01*
X94920Y35126D01*
X94258Y35400D01*
D02*
G37*
G36*
X103158Y34000D02*
X102442D01*
X101780Y33726D01*
X101274Y33220D01*
X101000Y32558D01*
Y31842D01*
X101274Y31180D01*
X101780Y30674D01*
X102442Y30400D01*
X103158D01*
X103820Y30674D01*
X104326Y31180D01*
X104600Y31842D01*
Y32558D01*
X104326Y33220D01*
X103820Y33726D01*
X103158Y34000D01*
D02*
G37*
G36*
X183000Y33051D02*
X182967D01*
X181936Y32775D01*
X181012Y32242D01*
X180258Y31488D01*
X179725Y30564D01*
X179449Y29533D01*
Y29500D01*
X183000D01*
Y33051D01*
D02*
G37*
G36*
X131958Y32600D02*
X131242D01*
X130580Y32326D01*
X130074Y31820D01*
X129800Y31158D01*
Y30442D01*
X130074Y29780D01*
X130580Y29274D01*
X131242Y29000D01*
X131958D01*
X132620Y29274D01*
X133126Y29780D01*
X133400Y30442D01*
Y31158D01*
X133126Y31820D01*
X132620Y32326D01*
X131958Y32600D01*
D02*
G37*
G36*
X90658Y31900D02*
X89942D01*
X89280Y31626D01*
X88774Y31120D01*
X88500Y30458D01*
Y29742D01*
X88774Y29080D01*
X89280Y28574D01*
X89942Y28300D01*
X90658D01*
X91320Y28574D01*
X91826Y29080D01*
X92100Y29742D01*
Y30458D01*
X91826Y31120D01*
X91320Y31626D01*
X90658Y31900D01*
D02*
G37*
G36*
X122200Y29374D02*
Y27700D01*
X123874D01*
X123565Y28446D01*
X122946Y29065D01*
X122200Y29374D01*
D02*
G37*
G36*
X121200D02*
X120454Y29065D01*
X119835Y28446D01*
X119526Y27700D01*
X121200D01*
Y29374D01*
D02*
G37*
G36*
X103100Y29174D02*
Y27500D01*
X104774D01*
X104465Y28246D01*
X103846Y28865D01*
X103100Y29174D01*
D02*
G37*
G36*
X102100D02*
X101354Y28865D01*
X100735Y28246D01*
X100426Y27500D01*
X102100D01*
Y29174D01*
D02*
G37*
G36*
X145600Y29074D02*
Y27400D01*
X147274D01*
X146965Y28146D01*
X146346Y28765D01*
X145600Y29074D01*
D02*
G37*
G36*
X144600D02*
X143854Y28765D01*
X143235Y28146D01*
X142926Y27400D01*
X144600D01*
Y29074D01*
D02*
G37*
G36*
X94100Y27674D02*
Y26000D01*
X95774D01*
X95465Y26746D01*
X94846Y27365D01*
X94100Y27674D01*
D02*
G37*
G36*
X93100D02*
X92354Y27365D01*
X91735Y26746D01*
X91426Y26000D01*
X93100D01*
Y27674D01*
D02*
G37*
G36*
X173981Y32651D02*
X173019D01*
X172091Y32402D01*
X171258Y31922D01*
X170578Y31242D01*
X170098Y30409D01*
X169849Y29481D01*
Y28519D01*
X170098Y27591D01*
X170578Y26758D01*
X171258Y26078D01*
X172091Y25598D01*
X173019Y25349D01*
X173981D01*
X174909Y25598D01*
X175742Y26078D01*
X176422Y26758D01*
X176902Y27591D01*
X177151Y28519D01*
Y29481D01*
X176902Y30409D01*
X176422Y31242D01*
X175742Y31922D01*
X174909Y32402D01*
X173981Y32651D01*
D02*
G37*
G36*
X150900Y26974D02*
Y25300D01*
X152574D01*
X152265Y26046D01*
X151646Y26665D01*
X150900Y26974D01*
D02*
G37*
G36*
X149900D02*
X149154Y26665D01*
X148535Y26046D01*
X148226Y25300D01*
X149900D01*
Y26974D01*
D02*
G37*
G36*
X123874Y26700D02*
X122200D01*
Y25026D01*
X122946Y25335D01*
X123565Y25954D01*
X123874Y26700D01*
D02*
G37*
G36*
X121200D02*
X119526D01*
X119835Y25954D01*
X120454Y25335D01*
X121200Y25026D01*
Y26700D01*
D02*
G37*
G36*
X183000Y28500D02*
X179449D01*
Y28467D01*
X179725Y27436D01*
X180258Y26513D01*
X181012Y25758D01*
X181936Y25225D01*
X182967Y24949D01*
X183000D01*
Y28500D01*
D02*
G37*
G36*
X104774Y26500D02*
X103100D01*
Y24826D01*
X103846Y25135D01*
X104465Y25754D01*
X104774Y26500D01*
D02*
G37*
G36*
X102100D02*
X100426D01*
X100735Y25754D01*
X101354Y25135D01*
X102100Y24826D01*
Y26500D01*
D02*
G37*
G36*
X147274Y26400D02*
X145600D01*
Y24726D01*
X146346Y25035D01*
X146965Y25654D01*
X147274Y26400D01*
D02*
G37*
G36*
X144600D02*
X142926D01*
X143235Y25654D01*
X143854Y25035D01*
X144600Y24726D01*
Y26400D01*
D02*
G37*
G36*
X95774Y25000D02*
X94100D01*
Y23326D01*
X94846Y23635D01*
X95465Y24254D01*
X95774Y25000D01*
D02*
G37*
G36*
X93100D02*
X91426D01*
X91735Y24254D01*
X92354Y23635D01*
X93100Y23326D01*
Y25000D01*
D02*
G37*
G36*
X152574Y24300D02*
X150900D01*
Y22626D01*
X151646Y22935D01*
X152265Y23554D01*
X152574Y24300D01*
D02*
G37*
G36*
X149900D02*
X148226D01*
X148535Y23554D01*
X149154Y22935D01*
X149900Y22626D01*
Y24300D01*
D02*
G37*
G36*
X39080Y35281D02*
X37101D01*
X35159Y34895D01*
X33331Y34137D01*
X31685Y33038D01*
X30285Y31638D01*
X29185Y29992D01*
X28428Y28163D01*
X28042Y26222D01*
Y24243D01*
X28428Y22301D01*
X29185Y20472D01*
X30285Y18826D01*
X31685Y17427D01*
X33331Y16327D01*
X35159Y15570D01*
X37101Y15183D01*
X39080D01*
X41022Y15570D01*
X42851Y16327D01*
X44496Y17427D01*
X45896Y18826D01*
X46996Y20472D01*
X47753Y22301D01*
X48139Y24243D01*
Y26222D01*
X47753Y28163D01*
X46996Y29992D01*
X45896Y31638D01*
X44496Y33038D01*
X42851Y34137D01*
X41022Y34895D01*
X39080Y35281D01*
D02*
G37*
G36*
X261000Y104674D02*
Y103000D01*
X262674D01*
X262365Y103746D01*
X261746Y104365D01*
X261000Y104674D01*
D02*
G37*
G36*
X260000D02*
X259254Y104365D01*
X258635Y103746D01*
X258326Y103000D01*
X260000D01*
Y104674D01*
D02*
G37*
G36*
X262674Y102000D02*
X261000D01*
Y100326D01*
X261746Y100635D01*
X262365Y101254D01*
X262674Y102000D01*
D02*
G37*
G36*
X260000D02*
X258326D01*
X258635Y101254D01*
X259254Y100635D01*
X260000Y100326D01*
Y102000D01*
D02*
G37*
G36*
X269500Y101674D02*
Y100000D01*
X271174D01*
X270865Y100746D01*
X270246Y101365D01*
X269500Y101674D01*
D02*
G37*
G36*
X268500D02*
X267754Y101365D01*
X267135Y100746D01*
X266826Y100000D01*
X268500D01*
Y101674D01*
D02*
G37*
G36*
X230358Y103300D02*
X229642D01*
X228980Y103026D01*
X228474Y102520D01*
X228200Y101858D01*
Y101142D01*
X228474Y100480D01*
X228980Y99974D01*
X229642Y99700D01*
X230358D01*
X231020Y99974D01*
X231526Y100480D01*
X231800Y101142D01*
Y101858D01*
X231526Y102520D01*
X231020Y103026D01*
X230358Y103300D01*
D02*
G37*
G36*
X271174Y99000D02*
X269500D01*
Y97326D01*
X270246Y97635D01*
X270865Y98254D01*
X271174Y99000D01*
D02*
G37*
G36*
X268500D02*
X266826D01*
X267135Y98254D01*
X267754Y97635D01*
X268500Y97326D01*
Y99000D01*
D02*
G37*
G36*
X279908Y96174D02*
Y94500D01*
X281582D01*
X281273Y95246D01*
X280654Y95865D01*
X279908Y96174D01*
D02*
G37*
G36*
X278908D02*
X278162Y95865D01*
X277543Y95246D01*
X277234Y94500D01*
X278908D01*
Y96174D01*
D02*
G37*
G36*
X304235Y99598D02*
X301085D01*
X300415Y99510D01*
X299790Y99252D01*
X299254Y98840D01*
X298842Y98303D01*
X298583Y97678D01*
X298495Y97008D01*
X298583Y96337D01*
X298842Y95713D01*
X299254Y95176D01*
X299790Y94764D01*
X300415Y94506D01*
X301085Y94417D01*
X304235D01*
X304906Y94506D01*
X305530Y94764D01*
X306067Y95176D01*
X306479Y95713D01*
X306737Y96337D01*
X306826Y97008D01*
X306737Y97678D01*
X306479Y98303D01*
X306067Y98840D01*
X305530Y99252D01*
X304906Y99510D01*
X304235Y99598D01*
D02*
G37*
G36*
X288369D02*
X284038D01*
X283368Y99510D01*
X282743Y99252D01*
X282206Y98840D01*
X281795Y98303D01*
X281536Y97678D01*
X281448Y97008D01*
X281536Y96337D01*
X281795Y95713D01*
X282206Y95176D01*
X282743Y94764D01*
X283368Y94506D01*
X284038Y94417D01*
X288369D01*
X289039Y94506D01*
X289664Y94764D01*
X290201Y95176D01*
X290613Y95713D01*
X290871Y96337D01*
X290960Y97008D01*
X290871Y97678D01*
X290613Y98303D01*
X290201Y98840D01*
X289664Y99252D01*
X289039Y99510D01*
X288369Y99598D01*
D02*
G37*
G36*
X198900Y95574D02*
Y93900D01*
X200574D01*
X200265Y94646D01*
X199646Y95265D01*
X198900Y95574D01*
D02*
G37*
G36*
X197900D02*
X197154Y95265D01*
X196535Y94646D01*
X196226Y93900D01*
X197900D01*
Y95574D01*
D02*
G37*
G36*
X218000Y93674D02*
Y92000D01*
X219674D01*
X219365Y92746D01*
X218746Y93365D01*
X218000Y93674D01*
D02*
G37*
G36*
X217000D02*
X216254Y93365D01*
X215635Y92746D01*
X215326Y92000D01*
X217000D01*
Y93674D01*
D02*
G37*
G36*
X212500D02*
Y92000D01*
X214174D01*
X213865Y92746D01*
X213246Y93365D01*
X212500Y93674D01*
D02*
G37*
G36*
X211500D02*
X210754Y93365D01*
X210135Y92746D01*
X209826Y92000D01*
X211500D01*
Y93674D01*
D02*
G37*
G36*
X281582Y93500D02*
X279908D01*
Y91826D01*
X280654Y92135D01*
X281273Y92754D01*
X281582Y93500D01*
D02*
G37*
G36*
X278908D02*
X277234D01*
X277543Y92754D01*
X278162Y92135D01*
X278908Y91826D01*
Y93500D01*
D02*
G37*
G36*
X200574Y92900D02*
X198900D01*
Y91226D01*
X199646Y91535D01*
X200265Y92154D01*
X200574Y92900D01*
D02*
G37*
G36*
X197900D02*
X196226D01*
X196535Y92154D01*
X197154Y91535D01*
X197900Y91226D01*
Y92900D01*
D02*
G37*
G36*
X268858Y93800D02*
X268142D01*
X267480Y93526D01*
X266974Y93020D01*
X266700Y92358D01*
Y91642D01*
X266974Y90980D01*
X267480Y90474D01*
X268142Y90200D01*
X268858D01*
X269520Y90474D01*
X270026Y90980D01*
X270300Y91642D01*
Y92358D01*
X270026Y93020D01*
X269520Y93526D01*
X268858Y93800D01*
D02*
G37*
G36*
X248751D02*
X248035D01*
X247373Y93526D01*
X246867Y93020D01*
X246593Y92358D01*
Y91642D01*
X246867Y90980D01*
X247373Y90474D01*
X248035Y90200D01*
X248751D01*
X249412Y90474D01*
X249919Y90980D01*
X250193Y91642D01*
Y92358D01*
X249919Y93020D01*
X249412Y93526D01*
X248751Y93800D01*
D02*
G37*
G36*
X288546Y93257D02*
X287798D01*
X287107Y92971D01*
X286579Y92443D01*
X286293Y91752D01*
Y91004D01*
X286579Y90313D01*
X287107Y89785D01*
X287798Y89498D01*
X288546D01*
X289237Y89785D01*
X289765Y90313D01*
X290052Y91004D01*
Y91752D01*
X289765Y92443D01*
X289237Y92971D01*
X288546Y93257D01*
D02*
G37*
G36*
X219674Y91000D02*
X218000D01*
Y89326D01*
X218746Y89635D01*
X219365Y90254D01*
X219674Y91000D01*
D02*
G37*
G36*
X217000D02*
X215326D01*
X215635Y90254D01*
X216254Y89635D01*
X217000Y89326D01*
Y91000D01*
D02*
G37*
G36*
X214174D02*
X212500D01*
Y89326D01*
X213246Y89635D01*
X213865Y90254D01*
X214174Y91000D01*
D02*
G37*
G36*
X211500D02*
X209826D01*
X210135Y90254D01*
X210754Y89635D01*
X211500Y89326D01*
Y91000D01*
D02*
G37*
G36*
X218000Y88174D02*
Y86500D01*
X219674D01*
X219365Y87246D01*
X218746Y87865D01*
X218000Y88174D01*
D02*
G37*
G36*
X217000D02*
X216254Y87865D01*
X215635Y87246D01*
X215326Y86500D01*
X217000D01*
Y88174D01*
D02*
G37*
G36*
X212500D02*
Y86500D01*
X214174D01*
X213865Y87246D01*
X213246Y87865D01*
X212500Y88174D01*
D02*
G37*
G36*
X211500D02*
X210754Y87865D01*
X210135Y87246D01*
X209826Y86500D01*
X211500D01*
Y88174D01*
D02*
G37*
G36*
X203558Y89800D02*
X202842D01*
X202180Y89526D01*
X201674Y89020D01*
X201400Y88358D01*
Y87642D01*
X201674Y86980D01*
X202180Y86474D01*
X202842Y86200D01*
X203558D01*
X204220Y86474D01*
X204726Y86980D01*
X205000Y87642D01*
Y88358D01*
X204726Y89020D01*
X204220Y89526D01*
X203558Y89800D01*
D02*
G37*
G36*
X228358Y87800D02*
X227642D01*
X226980Y87526D01*
X226474Y87020D01*
X226200Y86358D01*
Y85642D01*
X226474Y84980D01*
X226980Y84474D01*
X227642Y84200D01*
X228358D01*
X229020Y84474D01*
X229526Y84980D01*
X229800Y85642D01*
Y86358D01*
X229526Y87020D01*
X229020Y87526D01*
X228358Y87800D01*
D02*
G37*
G36*
X219674Y85500D02*
X218000D01*
Y83826D01*
X218746Y84135D01*
X219365Y84754D01*
X219674Y85500D01*
D02*
G37*
G36*
X217000D02*
X215326D01*
X215635Y84754D01*
X216254Y84135D01*
X217000Y83826D01*
Y85500D01*
D02*
G37*
G36*
X214174D02*
X212500D01*
Y83826D01*
X213246Y84135D01*
X213865Y84754D01*
X214174Y85500D01*
D02*
G37*
G36*
X211500D02*
X209826D01*
X210135Y84754D01*
X210754Y84135D01*
X211500Y83826D01*
Y85500D01*
D02*
G37*
G36*
X198358Y86900D02*
X197642D01*
X196980Y86626D01*
X196474Y86120D01*
X196200Y85458D01*
Y84742D01*
X196474Y84080D01*
X196980Y83574D01*
X197642Y83300D01*
X198358D01*
X199020Y83574D01*
X199526Y84080D01*
X199800Y84742D01*
Y85458D01*
X199526Y86120D01*
X199020Y86626D01*
X198358Y86900D01*
D02*
G37*
G36*
X278656Y87200D02*
X277944D01*
X277258Y87016D01*
X276642Y86660D01*
X276139Y86158D01*
X275784Y85542D01*
X275600Y84856D01*
Y84145D01*
X275784Y83458D01*
X276139Y82842D01*
X276642Y82340D01*
X277258Y81984D01*
X277944Y81800D01*
X278656D01*
X279342Y81984D01*
X279958Y82340D01*
X280461Y82842D01*
X280816Y83458D01*
X281000Y84145D01*
Y84856D01*
X280816Y85542D01*
X280461Y86158D01*
X279958Y86660D01*
X279342Y87016D01*
X278656Y87200D01*
D02*
G37*
G36*
X223211Y82688D02*
Y81014D01*
X224886D01*
X224576Y81760D01*
X223957Y82379D01*
X223211Y82688D01*
D02*
G37*
G36*
X222211D02*
X221465Y82379D01*
X220846Y81760D01*
X220537Y81014D01*
X222211D01*
Y82688D01*
D02*
G37*
G36*
X224886Y80014D02*
X223211D01*
Y78340D01*
X223957Y78649D01*
X224576Y79268D01*
X224886Y80014D01*
D02*
G37*
G36*
X222211D02*
X220537D01*
X220846Y79268D01*
X221465Y78649D01*
X222211Y78340D01*
Y80014D01*
D02*
G37*
G36*
X288981Y81950D02*
X288270D01*
X287584Y81766D01*
X286968Y81410D01*
X286465Y80908D01*
X286110Y80292D01*
X285926Y79606D01*
Y78895D01*
X286110Y78208D01*
X286465Y77592D01*
X286968Y77090D01*
X287584Y76734D01*
X288270Y76550D01*
X288981D01*
X289668Y76734D01*
X290284Y77090D01*
X290786Y77592D01*
X291142Y78208D01*
X291154Y78252D01*
X291749Y78463D01*
X291829Y78454D01*
X292442Y78200D01*
X293158D01*
X293820Y78474D01*
X294326Y78980D01*
X294600Y79642D01*
Y80358D01*
X294326Y81020D01*
X293820Y81526D01*
X293158Y81800D01*
X292442D01*
X291780Y81526D01*
X291363Y81109D01*
X291130Y81028D01*
X290639Y81055D01*
X290284Y81410D01*
X289668Y81766D01*
X288981Y81950D01*
D02*
G37*
G36*
X255500Y77674D02*
Y76000D01*
X257174D01*
X256865Y76746D01*
X256246Y77365D01*
X255500Y77674D01*
D02*
G37*
G36*
X254500D02*
X253754Y77365D01*
X253135Y76746D01*
X252826Y76000D01*
X254500D01*
Y77674D01*
D02*
G37*
G36*
X224300Y77274D02*
Y75600D01*
X225974D01*
X225665Y76346D01*
X225046Y76965D01*
X224300Y77274D01*
D02*
G37*
G36*
X257174Y75000D02*
X255500D01*
Y73326D01*
X256246Y73635D01*
X256865Y74254D01*
X257174Y75000D01*
D02*
G37*
G36*
X254500D02*
X252826D01*
X253135Y74254D01*
X253754Y73635D01*
X254500Y73326D01*
Y75000D01*
D02*
G37*
G36*
X268000Y74674D02*
Y73000D01*
X269674D01*
X269365Y73746D01*
X268746Y74365D01*
X268000Y74674D01*
D02*
G37*
G36*
X267000D02*
X266254Y74365D01*
X265635Y73746D01*
X265326Y73000D01*
X267000D01*
Y74674D01*
D02*
G37*
G36*
X225974Y74600D02*
X224300D01*
Y72926D01*
X225046Y73235D01*
X225665Y73854D01*
X225974Y74600D01*
D02*
G37*
G36*
X214955Y77800D02*
X214245D01*
X213558Y77616D01*
X212942Y77261D01*
X212439Y76758D01*
X212084Y76142D01*
X211900Y75455D01*
Y74744D01*
X212084Y74058D01*
X212439Y73442D01*
X212942Y72939D01*
X213558Y72584D01*
X214245Y72400D01*
X214955D01*
X215642Y72584D01*
X216258Y72939D01*
X216450Y73132D01*
X216742Y72839D01*
X217358Y72484D01*
X218044Y72300D01*
X218756D01*
X219442Y72484D01*
X220058Y72839D01*
X220561Y73342D01*
X220916Y73958D01*
X221046Y74442D01*
X221676Y74478D01*
X221935Y73854D01*
X222554Y73235D01*
X223300Y72926D01*
Y75100D01*
Y77274D01*
X222554Y76965D01*
X221935Y76346D01*
X221644Y75644D01*
X221237Y75586D01*
X221031Y75613D01*
X220916Y76042D01*
X220561Y76658D01*
X220058Y77161D01*
X219442Y77516D01*
X218756Y77700D01*
X218044D01*
X217358Y77516D01*
X216742Y77161D01*
X216550Y76968D01*
X216258Y77261D01*
X215642Y77616D01*
X214955Y77800D01*
D02*
G37*
G36*
X269674Y72000D02*
X268000D01*
Y70326D01*
X268746Y70635D01*
X269365Y71254D01*
X269674Y72000D01*
D02*
G37*
G36*
X267000D02*
X265326D01*
X265635Y71254D01*
X266254Y70635D01*
X267000Y70326D01*
Y72000D01*
D02*
G37*
G36*
X279500Y71674D02*
Y70000D01*
X281174D01*
X280865Y70746D01*
X280246Y71365D01*
X279500Y71674D01*
D02*
G37*
G36*
X278500D02*
X277754Y71365D01*
X277135Y70746D01*
X276826Y70000D01*
X278500D01*
Y71674D01*
D02*
G37*
G36*
X207358Y72300D02*
X206642D01*
X205980Y72026D01*
X205474Y71520D01*
X205200Y70858D01*
Y70142D01*
X205474Y69480D01*
X205980Y68974D01*
X206642Y68700D01*
X207358D01*
X208020Y68974D01*
X208526Y69480D01*
X208800Y70142D01*
Y70858D01*
X208526Y71520D01*
X208020Y72026D01*
X207358Y72300D01*
D02*
G37*
G36*
X281174Y69000D02*
X279500D01*
Y67326D01*
X280246Y67635D01*
X280865Y68254D01*
X281174Y69000D01*
D02*
G37*
G36*
X278500D02*
X276826D01*
X277135Y68254D01*
X277754Y67635D01*
X278500Y67326D01*
Y69000D01*
D02*
G37*
G36*
X288546Y70502D02*
X287798D01*
X287107Y70215D01*
X286579Y69687D01*
X286293Y68996D01*
Y68248D01*
X286579Y67557D01*
X287107Y67029D01*
X287798Y66742D01*
X288546D01*
X289237Y67029D01*
X289765Y67557D01*
X290052Y68248D01*
Y68996D01*
X289765Y69687D01*
X289237Y70215D01*
X288546Y70502D01*
D02*
G37*
G36*
X207441Y66615D02*
Y64941D01*
X209115D01*
X208806Y65687D01*
X208187Y66306D01*
X207441Y66615D01*
D02*
G37*
G36*
X206441D02*
X205695Y66306D01*
X205076Y65687D01*
X204767Y64941D01*
X206441D01*
Y66615D01*
D02*
G37*
G36*
X227394Y71800D02*
X226683D01*
X225996Y71616D01*
X225380Y71260D01*
X224878Y70758D01*
X224522Y70142D01*
X224338Y69455D01*
Y68744D01*
X224522Y68058D01*
X224878Y67442D01*
X225051Y67269D01*
X224939Y67158D01*
X224584Y66542D01*
X224400Y65855D01*
Y65144D01*
X224584Y64458D01*
X224939Y63842D01*
X225442Y63340D01*
X226058Y62984D01*
X226745Y62800D01*
X227455D01*
X228142Y62984D01*
X228758Y63340D01*
X229260Y63842D01*
X229616Y64458D01*
X229800Y65144D01*
Y65855D01*
X229616Y66542D01*
X229260Y67158D01*
X229087Y67331D01*
X229199Y67442D01*
X229554Y68058D01*
X229738Y68744D01*
Y69455D01*
X229554Y70142D01*
X229199Y70758D01*
X228696Y71260D01*
X228081Y71616D01*
X227394Y71800D01*
D02*
G37*
G36*
X274000Y64174D02*
Y62500D01*
X275674D01*
X275365Y63246D01*
X274746Y63865D01*
X274000Y64174D01*
D02*
G37*
G36*
X273000D02*
X272254Y63865D01*
X271635Y63246D01*
X271326Y62500D01*
X273000D01*
Y64174D01*
D02*
G37*
G36*
X209115Y63941D02*
X207441D01*
Y62267D01*
X208187Y62576D01*
X208806Y63195D01*
X209115Y63941D01*
D02*
G37*
G36*
X206441D02*
X204767D01*
X205076Y63195D01*
X205695Y62576D01*
X206441Y62267D01*
Y63941D01*
D02*
G37*
G36*
X304235Y65583D02*
X301085D01*
X300415Y65495D01*
X299790Y65236D01*
X299254Y64824D01*
X298842Y64288D01*
X298583Y63663D01*
X298495Y62992D01*
X298583Y62322D01*
X298842Y61697D01*
X299254Y61160D01*
X299790Y60749D01*
X300415Y60490D01*
X301085Y60401D01*
X304235D01*
X304906Y60490D01*
X305530Y60749D01*
X306067Y61160D01*
X306479Y61697D01*
X306737Y62322D01*
X306826Y62992D01*
X306737Y63663D01*
X306479Y64288D01*
X306067Y64824D01*
X305530Y65236D01*
X304906Y65495D01*
X304235Y65583D01*
D02*
G37*
G36*
X288369D02*
X284038D01*
X283368Y65495D01*
X282743Y65236D01*
X282206Y64824D01*
X281795Y64288D01*
X281536Y63663D01*
X281448Y62992D01*
X281536Y62322D01*
X281795Y61697D01*
X282206Y61160D01*
X282743Y60749D01*
X283368Y60490D01*
X284038Y60401D01*
X288369D01*
X289039Y60490D01*
X289664Y60749D01*
X290201Y61160D01*
X290613Y61697D01*
X290871Y62322D01*
X290960Y62992D01*
X290871Y63663D01*
X290613Y64288D01*
X290201Y64824D01*
X289664Y65236D01*
X289039Y65495D01*
X288369Y65583D01*
D02*
G37*
G36*
X275674Y61500D02*
X274000D01*
Y59826D01*
X274746Y60135D01*
X275365Y60754D01*
X275674Y61500D01*
D02*
G37*
G36*
X273000D02*
X271326D01*
X271635Y60754D01*
X272254Y60135D01*
X273000Y59826D01*
Y61500D01*
D02*
G37*
G36*
X215000Y54674D02*
X214254Y54365D01*
X213635Y53746D01*
X213326Y53000D01*
X215000D01*
Y54674D01*
D02*
G37*
G36*
X216000D02*
Y52500D01*
Y50326D01*
X216746Y50635D01*
X217365Y51254D01*
X217646Y51931D01*
X218153Y51998D01*
X218267Y51982D01*
X218474Y51480D01*
X218980Y50974D01*
X219642Y50700D01*
X220358D01*
X221020Y50974D01*
X221526Y51480D01*
X221800Y52142D01*
Y52858D01*
X221526Y53520D01*
X221020Y54026D01*
X220358Y54300D01*
X219642D01*
X218980Y54026D01*
X218474Y53520D01*
X218267Y53018D01*
X218153Y53002D01*
X217646Y53069D01*
X217365Y53746D01*
X216746Y54365D01*
X216000Y54674D01*
D02*
G37*
G36*
X215000Y52000D02*
X213326D01*
X213635Y51254D01*
X214254Y50635D01*
X215000Y50326D01*
Y52000D01*
D02*
G37*
G36*
X301500Y46174D02*
Y44500D01*
X303174D01*
X302865Y45246D01*
X302246Y45865D01*
X301500Y46174D01*
D02*
G37*
G36*
X300500D02*
X299754Y45865D01*
X299135Y45246D01*
X298826Y44500D01*
X300500D01*
Y46174D01*
D02*
G37*
G36*
X303174Y43500D02*
X301500D01*
Y41826D01*
X302246Y42135D01*
X302865Y42754D01*
X303174Y43500D01*
D02*
G37*
G36*
X300500D02*
X298826D01*
X299135Y42754D01*
X299754Y42135D01*
X300500Y41826D01*
Y43500D01*
D02*
G37*
G36*
X292500Y41674D02*
Y40000D01*
X294174D01*
X293865Y40746D01*
X293246Y41365D01*
X292500Y41674D01*
D02*
G37*
G36*
X291500D02*
X290754Y41365D01*
X290135Y40746D01*
X289826Y40000D01*
X291500D01*
Y41674D01*
D02*
G37*
G36*
X208400Y39674D02*
Y38000D01*
X210074D01*
X209765Y38746D01*
X209146Y39365D01*
X208400Y39674D01*
D02*
G37*
G36*
X207400D02*
X206654Y39365D01*
X206035Y38746D01*
X205726Y38000D01*
X207400D01*
Y39674D01*
D02*
G37*
G36*
X294174Y39000D02*
X292500D01*
Y37326D01*
X293246Y37635D01*
X293865Y38254D01*
X294174Y39000D01*
D02*
G37*
G36*
X291500D02*
X289826D01*
X290135Y38254D01*
X290754Y37635D01*
X291500Y37326D01*
Y39000D01*
D02*
G37*
G36*
X210074Y37000D02*
X208400D01*
Y35326D01*
X209146Y35635D01*
X209765Y36254D01*
X210074Y37000D01*
D02*
G37*
G36*
X207400D02*
X205726D01*
X206035Y36254D01*
X206654Y35635D01*
X207400Y35326D01*
Y37000D01*
D02*
G37*
G36*
X207551Y33051D02*
X204000D01*
Y29500D01*
X207551D01*
Y33051D01*
D02*
G37*
G36*
X203000D02*
X199449D01*
Y29500D01*
X203000D01*
Y33051D01*
D02*
G37*
G36*
X207551Y28500D02*
X204000D01*
Y24949D01*
X207551D01*
Y28500D01*
D02*
G37*
G36*
X203000D02*
X199449D01*
Y24949D01*
X203000D01*
Y28500D01*
D02*
G37*
%LPD*%
D42*
X193500Y29000D02*
D03*
X173500D02*
D03*
X183500D02*
D03*
D43*
X203500D02*
D03*
D44*
X32500Y58067D02*
D03*
Y79878D02*
D03*
Y123500D02*
D03*
Y112594D02*
D03*
Y101689D02*
D03*
Y90784D02*
D03*
Y68972D02*
D03*
X43681Y74425D02*
D03*
Y118047D02*
D03*
Y63520D02*
D03*
Y128953D02*
D03*
Y96236D02*
D03*
Y85331D02*
D03*
Y107142D02*
D03*
D45*
Y52614D02*
D03*
D46*
X38091Y25232D02*
D03*
Y156335D02*
D03*
D47*
X288172Y68622D02*
D03*
Y91378D02*
D03*
D48*
X286204Y97008D02*
D03*
Y62992D02*
D03*
D49*
X302660Y97008D02*
D03*
Y62992D02*
D03*
D50*
X207900Y37500D02*
D03*
X55000Y79000D02*
D03*
X61500D02*
D03*
X102600Y27000D02*
D03*
X106000Y38000D02*
D03*
X106500Y45000D02*
D03*
Y53000D02*
D03*
X55000Y90500D02*
D03*
X61500Y91500D02*
D03*
X66448Y167801D02*
D03*
X71500Y113500D02*
D03*
Y130500D02*
D03*
X71448Y158301D02*
D03*
X71500Y147500D02*
D03*
X105000Y112500D02*
D03*
X99000D02*
D03*
X150400Y24800D02*
D03*
X145100Y26900D02*
D03*
X111512Y129012D02*
D03*
X124500Y137000D02*
D03*
X140500Y65000D02*
D03*
X130000Y137000D02*
D03*
X144500Y92500D02*
D03*
X148600Y98400D02*
D03*
X93600Y25500D02*
D03*
X121700Y27200D02*
D03*
X98700Y56900D02*
D03*
X136000Y53600D02*
D03*
X89000Y97500D02*
D03*
X79000Y38500D02*
D03*
X112500Y59000D02*
D03*
X109000Y58500D02*
D03*
X292800Y80000D02*
D03*
X248393Y92000D02*
D03*
X268500D02*
D03*
X206941Y64441D02*
D03*
X215500Y52500D02*
D03*
X212000Y91500D02*
D03*
X198400Y93400D02*
D03*
X212000Y86000D02*
D03*
X222711Y80514D02*
D03*
X217500Y91500D02*
D03*
Y86000D02*
D03*
X223800Y75100D02*
D03*
X269000Y99500D02*
D03*
X273500Y62000D02*
D03*
X279000Y69500D02*
D03*
X301000Y44000D02*
D03*
X260500Y102500D02*
D03*
X255000Y75500D02*
D03*
X292000Y39500D02*
D03*
X267500Y72500D02*
D03*
X279408Y94000D02*
D03*
X135941Y60559D02*
D03*
X98700Y37600D02*
D03*
X93900Y33600D02*
D03*
X90300Y30100D02*
D03*
X82100Y58600D02*
D03*
X93000Y112500D02*
D03*
X140500Y129000D02*
D03*
X144500Y96500D02*
D03*
X140500Y70000D02*
D03*
X102800Y32200D02*
D03*
X131600Y30800D02*
D03*
X227100Y65500D02*
D03*
X278300Y84500D02*
D03*
X227038Y69100D02*
D03*
X214600Y75100D02*
D03*
X218400Y75000D02*
D03*
X230000Y101500D02*
D03*
X220000Y52500D02*
D03*
X207000Y70500D02*
D03*
X203200Y88000D02*
D03*
X198000Y85100D02*
D03*
X288626Y79250D02*
D03*
X228000Y86000D02*
D03*
X101500Y75000D02*
D03*
X106500Y70500D02*
D03*
X109000Y77500D02*
D03*
X119500Y59500D02*
D03*
X72500Y123000D02*
D03*
X73000Y140500D02*
D03*
X72000Y106000D02*
D03*
X114000Y103500D02*
D03*
X91500Y88500D02*
D03*
M02*
