G04*
G04 #@! TF.GenerationSoftware,Altium Limited,Altium Designer,26.7.1 (11)*
G04*
G04 Layer_Physical_Order=3*
G04 Layer_Color=16440176*
G04 Board_Origin=26900000|31050000*
%FSLAX25Y25*%
%MOIN*%
G70*
G04*
G04 #@! TF.SameCoordinates,40CBDD28-AB79-417D-9518-67BF38A8FD92*
G04*
G04*
G04 #@! TF.FilePolarity,Positive*
G04*
G01*
G75*
%ADD42C,0.06102*%
%ADD43R,0.06102X0.06102*%
%ADD44C,0.06496*%
G04:AMPARAMS|DCode=45|XSize=64.96mil|YSize=64.96mil|CornerRadius=16.24mil|HoleSize=0mil|Usage=FLASHONLY|Rotation=270.000|XOffset=0mil|YOffset=0mil|HoleType=Round|Shape=RoundedRectangle|*
%AMROUNDEDRECTD45*
21,1,0.06496,0.03248,0,0,270.0*
21,1,0.03248,0.06496,0,0,270.0*
1,1,0.03248,-0.01624,-0.01624*
1,1,0.03248,-0.01624,0.01624*
1,1,0.03248,0.01624,0.01624*
1,1,0.03248,0.01624,-0.01624*
%
%ADD45ROUNDEDRECTD45*%
%ADD46C,0.18898*%
%ADD47C,0.02559*%
%ADD48O,0.08268X0.03937*%
%ADD49O,0.07087X0.03937*%
%ADD54C,0.02400*%
G36*
X157500Y37500D02*
X187300D01*
Y30921D01*
X186700Y30760D01*
X186422Y31242D01*
X185742Y31922D01*
X184909Y32402D01*
X183981Y32651D01*
X183019D01*
X182091Y32402D01*
X181258Y31922D01*
X180578Y31242D01*
X180098Y30409D01*
X179849Y29481D01*
Y28519D01*
X180098Y27591D01*
X180578Y26758D01*
X181258Y26078D01*
X182091Y25598D01*
X183019Y25349D01*
X183981D01*
X184909Y25598D01*
X185742Y26078D01*
X186422Y26758D01*
X186700Y27240D01*
X187300Y27079D01*
Y20000D01*
X157500D01*
X157500Y20000D01*
Y2000D01*
X7610D01*
X6261Y2268D01*
X5176Y2717D01*
X4200Y3370D01*
X3370Y4200D01*
X2717Y5176D01*
X2268Y6261D01*
X2000Y7610D01*
Y173890D01*
X2268Y175239D01*
X2717Y176323D01*
X3370Y177300D01*
X4200Y178130D01*
X5176Y178782D01*
X6261Y179232D01*
X7610Y179500D01*
X157500D01*
Y37500D01*
D02*
G37*
G36*
X307239Y179232D02*
X308324Y178782D01*
X309300Y178130D01*
X310130Y177300D01*
X310783Y176323D01*
X311232Y175239D01*
X311500Y173890D01*
Y7610D01*
X311232Y6261D01*
X310783Y5176D01*
X310130Y4200D01*
X309300Y3370D01*
X308324Y2717D01*
X307239Y2268D01*
X305890Y2000D01*
X189300D01*
Y28249D01*
X189900Y28328D01*
X190098Y27591D01*
X190578Y26758D01*
X191258Y26078D01*
X192091Y25598D01*
X193019Y25349D01*
X193981D01*
X194909Y25598D01*
X195742Y26078D01*
X196422Y26758D01*
X196902Y27591D01*
X197151Y28519D01*
Y29481D01*
X196902Y30409D01*
X196422Y31242D01*
X195742Y31922D01*
X194909Y32402D01*
X193981Y32651D01*
X193019D01*
X192091Y32402D01*
X191258Y31922D01*
X190578Y31242D01*
X190098Y30409D01*
X189900Y29672D01*
X189300Y29751D01*
Y179500D01*
X305890D01*
X307239Y179232D01*
D02*
G37*
%LPC*%
G36*
X66806Y169601D02*
X66090D01*
X65428Y169327D01*
X64922Y168821D01*
X64648Y168159D01*
Y167443D01*
X64922Y166781D01*
X65428Y166275D01*
X66090Y166001D01*
X66806D01*
X67467Y166275D01*
X67974Y166781D01*
X68248Y167443D01*
Y168159D01*
X67974Y168821D01*
X67467Y169327D01*
X66806Y169601D01*
D02*
G37*
G36*
X71806Y160101D02*
X71090D01*
X70428Y159827D01*
X69922Y159320D01*
X69648Y158659D01*
Y157943D01*
X69922Y157281D01*
X70428Y156775D01*
X71090Y156501D01*
X71806D01*
X72467Y156775D01*
X72974Y157281D01*
X73248Y157943D01*
Y158659D01*
X72974Y159320D01*
X72467Y159827D01*
X71806Y160101D01*
D02*
G37*
G36*
X39080Y166384D02*
X37101D01*
X35159Y165997D01*
X33331Y165240D01*
X31685Y164140D01*
X30285Y162740D01*
X29185Y161095D01*
X28428Y159266D01*
X28042Y157324D01*
Y155345D01*
X28428Y153403D01*
X29185Y151575D01*
X30285Y149929D01*
X31685Y148529D01*
X33331Y147430D01*
X35159Y146672D01*
X37101Y146286D01*
X39080D01*
X41022Y146672D01*
X42851Y147430D01*
X44496Y148529D01*
X45896Y149929D01*
X46996Y151575D01*
X47753Y153403D01*
X48139Y155345D01*
Y157324D01*
X47753Y159266D01*
X46996Y161095D01*
X45896Y162740D01*
X44496Y164140D01*
X42851Y165240D01*
X41022Y165997D01*
X39080Y166384D01*
D02*
G37*
G36*
X71858Y149300D02*
X71142D01*
X70480Y149026D01*
X69974Y148520D01*
X69700Y147858D01*
Y147142D01*
X69974Y146480D01*
X70480Y145974D01*
X71142Y145700D01*
X71858D01*
X72520Y145974D01*
X73026Y146480D01*
X73300Y147142D01*
Y147858D01*
X73026Y148520D01*
X72520Y149026D01*
X71858Y149300D01*
D02*
G37*
G36*
X73358Y142300D02*
X72642D01*
X71980Y142026D01*
X71474Y141520D01*
X71200Y140858D01*
Y140142D01*
X71474Y139480D01*
X71980Y138974D01*
X72642Y138700D01*
X73358D01*
X74020Y138974D01*
X74526Y139480D01*
X74800Y140142D01*
Y140858D01*
X74526Y141520D01*
X74020Y142026D01*
X73358Y142300D01*
D02*
G37*
G36*
X130358Y138800D02*
X129642D01*
X128980Y138526D01*
X128474Y138020D01*
X128200Y137358D01*
Y136642D01*
X128474Y135980D01*
X128980Y135474D01*
X129642Y135200D01*
X130358D01*
X131020Y135474D01*
X131526Y135980D01*
X131800Y136642D01*
Y137358D01*
X131526Y138020D01*
X131020Y138526D01*
X130358Y138800D01*
D02*
G37*
G36*
X124858D02*
X124142D01*
X123480Y138526D01*
X122974Y138020D01*
X122700Y137358D01*
Y136642D01*
X122974Y135980D01*
X123480Y135474D01*
X124142Y135200D01*
X124858D01*
X125520Y135474D01*
X126026Y135980D01*
X126300Y136642D01*
Y137358D01*
X126026Y138020D01*
X125520Y138526D01*
X124858Y138800D01*
D02*
G37*
G36*
X141000Y131174D02*
Y129500D01*
X142674D01*
X142365Y130246D01*
X141746Y130865D01*
X141000Y131174D01*
D02*
G37*
G36*
X140000D02*
X139254Y130865D01*
X138635Y130246D01*
X138326Y129500D01*
X140000D01*
Y131174D01*
D02*
G37*
G36*
X71858Y132300D02*
X71142D01*
X70480Y132026D01*
X69974Y131520D01*
X69700Y130858D01*
Y130142D01*
X69974Y129480D01*
X70480Y128974D01*
X71142Y128700D01*
X71858D01*
X72520Y128974D01*
X73026Y129480D01*
X73300Y130142D01*
Y130858D01*
X73026Y131520D01*
X72520Y132026D01*
X71858Y132300D01*
D02*
G37*
G36*
X111870Y130812D02*
X111154D01*
X110492Y130538D01*
X109986Y130031D01*
X109712Y129370D01*
Y128654D01*
X109986Y127992D01*
X110492Y127486D01*
X111154Y127212D01*
X111870D01*
X112531Y127486D01*
X113038Y127992D01*
X113312Y128654D01*
Y129370D01*
X113038Y130031D01*
X112531Y130538D01*
X111870Y130812D01*
D02*
G37*
G36*
X142674Y128500D02*
X141000D01*
Y126826D01*
X141746Y127135D01*
X142365Y127754D01*
X142674Y128500D01*
D02*
G37*
G36*
X140000D02*
X138326D01*
X138635Y127754D01*
X139254Y127135D01*
X140000Y126826D01*
Y128500D01*
D02*
G37*
G36*
X44188Y132801D02*
X43174D01*
X42196Y132539D01*
X41318Y132032D01*
X40602Y131316D01*
X40095Y130438D01*
X39833Y129459D01*
Y128446D01*
X40095Y127468D01*
X40602Y126590D01*
X41318Y125874D01*
X42196Y125367D01*
X43174Y125105D01*
X44188D01*
X45166Y125367D01*
X46044Y125874D01*
X46760Y126590D01*
X47267Y127468D01*
X47529Y128446D01*
Y129459D01*
X47267Y130438D01*
X46760Y131316D01*
X46044Y132032D01*
X45166Y132539D01*
X44188Y132801D01*
D02*
G37*
G36*
X72858Y124800D02*
X72142D01*
X71480Y124526D01*
X70974Y124020D01*
X70700Y123358D01*
Y122642D01*
X70974Y121980D01*
X71480Y121474D01*
X72142Y121200D01*
X72858D01*
X73520Y121474D01*
X74026Y121980D01*
X74300Y122642D01*
Y123358D01*
X74026Y124020D01*
X73520Y124526D01*
X72858Y124800D01*
D02*
G37*
G36*
X33007Y127348D02*
X31993D01*
X31015Y127086D01*
X30137Y126579D01*
X29421Y125863D01*
X28914Y124985D01*
X28652Y124007D01*
Y122993D01*
X28914Y122015D01*
X29421Y121137D01*
X30137Y120421D01*
X31015Y119914D01*
X31993Y119652D01*
X33007D01*
X33985Y119914D01*
X34863Y120421D01*
X35579Y121137D01*
X36086Y122015D01*
X36348Y122993D01*
Y124007D01*
X36086Y124985D01*
X35579Y125863D01*
X34863Y126579D01*
X33985Y127086D01*
X33007Y127348D01*
D02*
G37*
G36*
X44188Y121895D02*
X43174D01*
X42196Y121633D01*
X41318Y121126D01*
X40602Y120410D01*
X40095Y119533D01*
X39833Y118554D01*
Y117541D01*
X40095Y116562D01*
X40602Y115684D01*
X41318Y114968D01*
X42196Y114461D01*
X43174Y114199D01*
X44188D01*
X45166Y114461D01*
X46044Y114968D01*
X46760Y115684D01*
X47267Y116562D01*
X47529Y117541D01*
Y118554D01*
X47267Y119533D01*
X46760Y120410D01*
X46044Y121126D01*
X45166Y121633D01*
X44188Y121895D01*
D02*
G37*
G36*
X93500Y114674D02*
Y113000D01*
X95174D01*
X94865Y113746D01*
X94246Y114365D01*
X93500Y114674D01*
D02*
G37*
G36*
X92500D02*
X91754Y114365D01*
X91135Y113746D01*
X90826Y113000D01*
X92500D01*
Y114674D01*
D02*
G37*
G36*
X71858Y115300D02*
X71142D01*
X70480Y115026D01*
X69974Y114520D01*
X69700Y113858D01*
Y113142D01*
X69974Y112480D01*
X70480Y111974D01*
X71142Y111700D01*
X71858D01*
X72520Y111974D01*
X73026Y112480D01*
X73300Y113142D01*
Y113858D01*
X73026Y114520D01*
X72520Y115026D01*
X71858Y115300D01*
D02*
G37*
G36*
X105358Y114300D02*
X104642D01*
X103980Y114026D01*
X103474Y113520D01*
X103200Y112858D01*
Y112142D01*
X103474Y111480D01*
X103980Y110974D01*
X104642Y110700D01*
X105358D01*
X106020Y110974D01*
X106526Y111480D01*
X106800Y112142D01*
Y112858D01*
X106526Y113520D01*
X106020Y114026D01*
X105358Y114300D01*
D02*
G37*
G36*
X99358D02*
X98642D01*
X97980Y114026D01*
X97474Y113520D01*
X97200Y112858D01*
Y112142D01*
X97474Y111480D01*
X97980Y110974D01*
X98642Y110700D01*
X99358D01*
X100020Y110974D01*
X100526Y111480D01*
X100800Y112142D01*
Y112858D01*
X100526Y113520D01*
X100020Y114026D01*
X99358Y114300D01*
D02*
G37*
G36*
X95174Y112000D02*
X93500D01*
Y110326D01*
X94246Y110635D01*
X94865Y111254D01*
X95174Y112000D01*
D02*
G37*
G36*
X92500D02*
X90826D01*
X91135Y111254D01*
X91754Y110635D01*
X92500Y110326D01*
Y112000D01*
D02*
G37*
G36*
X33007Y116443D02*
X31993D01*
X31015Y116180D01*
X30137Y115674D01*
X29421Y114957D01*
X28914Y114080D01*
X28652Y113101D01*
Y112088D01*
X28914Y111109D01*
X29421Y110232D01*
X30137Y109515D01*
X31015Y109009D01*
X31993Y108747D01*
X33007D01*
X33985Y109009D01*
X34863Y109515D01*
X35579Y110232D01*
X36086Y111109D01*
X36348Y112088D01*
Y113101D01*
X36086Y114080D01*
X35579Y114957D01*
X34863Y115674D01*
X33985Y116180D01*
X33007Y116443D01*
D02*
G37*
G36*
X72358Y107800D02*
X71642D01*
X70980Y107526D01*
X70474Y107020D01*
X70200Y106358D01*
Y105642D01*
X70474Y104980D01*
X70980Y104474D01*
X71642Y104200D01*
X72358D01*
X73020Y104474D01*
X73526Y104980D01*
X73800Y105642D01*
Y106358D01*
X73526Y107020D01*
X73020Y107526D01*
X72358Y107800D01*
D02*
G37*
G36*
X44188Y110990D02*
X43174D01*
X42196Y110728D01*
X41318Y110221D01*
X40602Y109504D01*
X40095Y108627D01*
X39833Y107648D01*
Y106635D01*
X40095Y105656D01*
X40602Y104779D01*
X41318Y104062D01*
X42196Y103556D01*
X43174Y103294D01*
X44188D01*
X45166Y103556D01*
X46044Y104062D01*
X46760Y104779D01*
X47267Y105656D01*
X47529Y106635D01*
Y107648D01*
X47267Y108627D01*
X46760Y109504D01*
X46044Y110221D01*
X45166Y110728D01*
X44188Y110990D01*
D02*
G37*
G36*
X114358Y105300D02*
X113642D01*
X112980Y105026D01*
X112474Y104520D01*
X112200Y103858D01*
Y103142D01*
X112474Y102480D01*
X112980Y101974D01*
X113642Y101700D01*
X114358D01*
X115020Y101974D01*
X115526Y102480D01*
X115800Y103142D01*
Y103858D01*
X115526Y104520D01*
X115020Y105026D01*
X114358Y105300D01*
D02*
G37*
G36*
X148958Y100200D02*
X148242D01*
X147580Y99926D01*
X147074Y99420D01*
X146800Y98758D01*
Y98145D01*
X146483Y97941D01*
X146246Y97866D01*
X145746Y98365D01*
X145000Y98674D01*
Y97000D01*
X146816D01*
X147231Y97223D01*
X147580Y96874D01*
X148242Y96600D01*
X148958D01*
X149620Y96874D01*
X150126Y97380D01*
X150400Y98042D01*
Y98758D01*
X150126Y99420D01*
X149620Y99926D01*
X148958Y100200D01*
D02*
G37*
G36*
X33007Y105537D02*
X31993D01*
X31015Y105275D01*
X30137Y104768D01*
X29421Y104052D01*
X28914Y103174D01*
X28652Y102196D01*
Y101182D01*
X28914Y100204D01*
X29421Y99326D01*
X30137Y98610D01*
X31015Y98103D01*
X31993Y97841D01*
X33007D01*
X33985Y98103D01*
X34863Y98610D01*
X35579Y99326D01*
X36086Y100204D01*
X36348Y101182D01*
Y102196D01*
X36086Y103174D01*
X35579Y104052D01*
X34863Y104768D01*
X33985Y105275D01*
X33007Y105537D01*
D02*
G37*
G36*
X144000Y98674D02*
X143254Y98365D01*
X142635Y97746D01*
X142326Y97000D01*
X144000D01*
Y98674D01*
D02*
G37*
G36*
X89358Y99300D02*
X88642D01*
X87980Y99026D01*
X87474Y98520D01*
X87200Y97858D01*
Y97142D01*
X87474Y96480D01*
X87980Y95974D01*
X88642Y95700D01*
X89358D01*
X90020Y95974D01*
X90526Y96480D01*
X90800Y97142D01*
Y97858D01*
X90526Y98520D01*
X90020Y99026D01*
X89358Y99300D01*
D02*
G37*
G36*
X44188Y100084D02*
X43174D01*
X42196Y99822D01*
X41318Y99315D01*
X40602Y98599D01*
X40095Y97721D01*
X39833Y96743D01*
Y95730D01*
X40095Y94751D01*
X40602Y93874D01*
X41318Y93157D01*
X42196Y92650D01*
X43174Y92388D01*
X44188D01*
X45166Y92650D01*
X46044Y93157D01*
X46760Y93874D01*
X47267Y94751D01*
X47529Y95730D01*
Y96743D01*
X47267Y97721D01*
X46760Y98599D01*
X46044Y99315D01*
X45166Y99822D01*
X44188Y100084D01*
D02*
G37*
G36*
X146674Y96000D02*
X142326D01*
X142635Y95254D01*
X143254Y94635D01*
X143318Y94608D01*
X143380Y94386D01*
X143385Y93931D01*
X142974Y93520D01*
X142700Y92858D01*
Y92142D01*
X142974Y91480D01*
X143480Y90974D01*
X144142Y90700D01*
X144858D01*
X145520Y90974D01*
X146026Y91480D01*
X146300Y92142D01*
Y92858D01*
X146026Y93520D01*
X145615Y93931D01*
X145620Y94386D01*
X145682Y94608D01*
X145746Y94635D01*
X146365Y95254D01*
X146674Y96000D01*
D02*
G37*
G36*
X61858Y93300D02*
X61142D01*
X60480Y93026D01*
X59974Y92520D01*
X59700Y91858D01*
Y91142D01*
X59974Y90480D01*
X60480Y89974D01*
X61142Y89700D01*
X61858D01*
X62520Y89974D01*
X63026Y90480D01*
X63300Y91142D01*
Y91858D01*
X63026Y92520D01*
X62520Y93026D01*
X61858Y93300D01*
D02*
G37*
G36*
X55358Y92300D02*
X54642D01*
X53980Y92026D01*
X53474Y91520D01*
X53200Y90858D01*
Y90142D01*
X53474Y89480D01*
X53980Y88974D01*
X54642Y88700D01*
X55358D01*
X56020Y88974D01*
X56526Y89480D01*
X56800Y90142D01*
Y90858D01*
X56526Y91520D01*
X56020Y92026D01*
X55358Y92300D01*
D02*
G37*
G36*
X33007Y94631D02*
X31993D01*
X31015Y94369D01*
X30137Y93863D01*
X29421Y93146D01*
X28914Y92269D01*
X28652Y91290D01*
Y90277D01*
X28914Y89298D01*
X29421Y88421D01*
X30137Y87704D01*
X31015Y87198D01*
X31993Y86935D01*
X33007D01*
X33985Y87198D01*
X34863Y87704D01*
X35579Y88421D01*
X36086Y89298D01*
X36348Y90277D01*
Y91290D01*
X36086Y92269D01*
X35579Y93146D01*
X34863Y93863D01*
X33985Y94369D01*
X33007Y94631D01*
D02*
G37*
G36*
X91858Y90300D02*
X91142D01*
X90480Y90026D01*
X89974Y89520D01*
X89700Y88858D01*
Y88142D01*
X89974Y87480D01*
X90480Y86974D01*
X91142Y86700D01*
X91858D01*
X92520Y86974D01*
X93026Y87480D01*
X93300Y88142D01*
Y88858D01*
X93026Y89520D01*
X92520Y90026D01*
X91858Y90300D01*
D02*
G37*
G36*
X44188Y89179D02*
X43174D01*
X42196Y88916D01*
X41318Y88410D01*
X40602Y87693D01*
X40095Y86816D01*
X39833Y85837D01*
Y84824D01*
X40095Y83845D01*
X40602Y82968D01*
X41318Y82252D01*
X42196Y81745D01*
X43174Y81483D01*
X44188D01*
X45166Y81745D01*
X46044Y82252D01*
X46760Y82968D01*
X47267Y83845D01*
X47529Y84824D01*
Y85837D01*
X47267Y86816D01*
X46760Y87693D01*
X46044Y88410D01*
X45166Y88916D01*
X44188Y89179D01*
D02*
G37*
G36*
X61858Y80800D02*
X61142D01*
X60480Y80526D01*
X59974Y80020D01*
X59700Y79358D01*
Y78642D01*
X59974Y77980D01*
X60480Y77474D01*
X61142Y77200D01*
X61858D01*
X62520Y77474D01*
X63026Y77980D01*
X63300Y78642D01*
Y79358D01*
X63026Y80020D01*
X62520Y80526D01*
X61858Y80800D01*
D02*
G37*
G36*
X55358D02*
X54642D01*
X53980Y80526D01*
X53474Y80020D01*
X53200Y79358D01*
Y78642D01*
X53474Y77980D01*
X53980Y77474D01*
X54642Y77200D01*
X55358D01*
X56020Y77474D01*
X56526Y77980D01*
X56800Y78642D01*
Y79358D01*
X56526Y80020D01*
X56020Y80526D01*
X55358Y80800D01*
D02*
G37*
G36*
X33007Y83726D02*
X31993D01*
X31015Y83464D01*
X30137Y82957D01*
X29421Y82241D01*
X28914Y81363D01*
X28652Y80385D01*
Y79371D01*
X28914Y78393D01*
X29421Y77515D01*
X30137Y76799D01*
X31015Y76292D01*
X31993Y76030D01*
X33007D01*
X33985Y76292D01*
X34863Y76799D01*
X35579Y77515D01*
X36086Y78393D01*
X36348Y79371D01*
Y80385D01*
X36086Y81363D01*
X35579Y82241D01*
X34863Y82957D01*
X33985Y83464D01*
X33007Y83726D01*
D02*
G37*
G36*
X109358Y79300D02*
X108642D01*
X107980Y79026D01*
X107474Y78520D01*
X107200Y77858D01*
Y77142D01*
X107474Y76480D01*
X107980Y75974D01*
X108642Y75700D01*
X109358D01*
X110020Y75974D01*
X110526Y76480D01*
X110800Y77142D01*
Y77858D01*
X110526Y78520D01*
X110020Y79026D01*
X109358Y79300D01*
D02*
G37*
G36*
X101858Y76800D02*
X101142D01*
X100480Y76526D01*
X99974Y76020D01*
X99700Y75358D01*
Y74642D01*
X99974Y73980D01*
X100480Y73474D01*
X101142Y73200D01*
X101858D01*
X102520Y73474D01*
X103026Y73980D01*
X103300Y74642D01*
Y75358D01*
X103026Y76020D01*
X102520Y76526D01*
X101858Y76800D01*
D02*
G37*
G36*
X44188Y78273D02*
X43174D01*
X42196Y78011D01*
X41318Y77504D01*
X40602Y76788D01*
X40095Y75911D01*
X39833Y74932D01*
Y73919D01*
X40095Y72940D01*
X40602Y72062D01*
X41318Y71346D01*
X42196Y70839D01*
X43174Y70577D01*
X44188D01*
X45166Y70839D01*
X46044Y71346D01*
X46760Y72062D01*
X47267Y72940D01*
X47529Y73919D01*
Y74932D01*
X47267Y75911D01*
X46760Y76788D01*
X46044Y77504D01*
X45166Y78011D01*
X44188Y78273D01*
D02*
G37*
G36*
X141000Y72174D02*
Y70500D01*
X142674D01*
X142365Y71246D01*
X141746Y71865D01*
X141000Y72174D01*
D02*
G37*
G36*
X140000D02*
X139254Y71865D01*
X138635Y71246D01*
X138326Y70500D01*
X140000D01*
Y72174D01*
D02*
G37*
G36*
X106858Y72300D02*
X106142D01*
X105480Y72026D01*
X104974Y71520D01*
X104700Y70858D01*
Y70142D01*
X104974Y69480D01*
X105480Y68974D01*
X106142Y68700D01*
X106858D01*
X107520Y68974D01*
X108026Y69480D01*
X108300Y70142D01*
Y70858D01*
X108026Y71520D01*
X107520Y72026D01*
X106858Y72300D01*
D02*
G37*
G36*
X142674Y69500D02*
X141000D01*
Y67826D01*
X141746Y68135D01*
X142365Y68754D01*
X142674Y69500D01*
D02*
G37*
G36*
X140000D02*
X138326D01*
X138635Y68754D01*
X139254Y68135D01*
X140000Y67826D01*
Y69500D01*
D02*
G37*
G36*
X33007Y72821D02*
X31993D01*
X31015Y72558D01*
X30137Y72052D01*
X29421Y71335D01*
X28914Y70458D01*
X28652Y69479D01*
Y68466D01*
X28914Y67487D01*
X29421Y66610D01*
X30137Y65893D01*
X31015Y65387D01*
X31993Y65124D01*
X33007D01*
X33985Y65387D01*
X34863Y65893D01*
X35579Y66610D01*
X36086Y67487D01*
X36348Y68466D01*
Y69479D01*
X36086Y70458D01*
X35579Y71335D01*
X34863Y72052D01*
X33985Y72558D01*
X33007Y72821D01*
D02*
G37*
G36*
X140858Y66800D02*
X140142D01*
X139480Y66526D01*
X138974Y66020D01*
X138700Y65358D01*
Y64642D01*
X138974Y63980D01*
X139480Y63474D01*
X140142Y63200D01*
X140858D01*
X141520Y63474D01*
X142026Y63980D01*
X142300Y64642D01*
Y65358D01*
X142026Y66020D01*
X141520Y66526D01*
X140858Y66800D01*
D02*
G37*
G36*
X136441Y62733D02*
Y61059D01*
X138115D01*
X137806Y61805D01*
X137187Y62424D01*
X136441Y62733D01*
D02*
G37*
G36*
X135441D02*
X134695Y62424D01*
X134076Y61805D01*
X133767Y61059D01*
X135441D01*
Y62733D01*
D02*
G37*
G36*
X112858Y60800D02*
X112142D01*
X111480Y60526D01*
X110974Y60020D01*
X110945Y59949D01*
X110237Y59808D01*
X110020Y60026D01*
X109358Y60300D01*
X108642D01*
X107980Y60026D01*
X107474Y59520D01*
X107200Y58858D01*
Y58142D01*
X107474Y57480D01*
X107980Y56974D01*
X108642Y56700D01*
X109358D01*
X110020Y56974D01*
X110526Y57480D01*
X110555Y57551D01*
X111263Y57692D01*
X111480Y57474D01*
X112142Y57200D01*
X112858D01*
X113520Y57474D01*
X114026Y57980D01*
X114300Y58642D01*
Y59358D01*
X114026Y60020D01*
X113520Y60526D01*
X112858Y60800D01*
D02*
G37*
G36*
X44306Y68268D02*
X43056D01*
X41848Y67944D01*
X40766Y67319D01*
X39882Y66435D01*
X39257Y65352D01*
X38933Y64145D01*
Y62895D01*
X39257Y61687D01*
X39882Y60604D01*
X40766Y59720D01*
X41848Y59095D01*
X43056Y58772D01*
X44306D01*
X45514Y59095D01*
X46597Y59720D01*
X47480Y60604D01*
X48106Y61687D01*
X48429Y62895D01*
Y64145D01*
X48106Y65352D01*
X47480Y66435D01*
X46597Y67319D01*
X45514Y67944D01*
X44306Y68268D01*
D02*
G37*
G36*
X138115Y60059D02*
X136441D01*
Y58385D01*
X137187Y58694D01*
X137806Y59313D01*
X138115Y60059D01*
D02*
G37*
G36*
X135441D02*
X133767D01*
X134076Y59313D01*
X134695Y58694D01*
X135441Y58385D01*
Y60059D01*
D02*
G37*
G36*
X119858Y61300D02*
X119142D01*
X118480Y61026D01*
X117974Y60520D01*
X117700Y59858D01*
Y59142D01*
X117974Y58480D01*
X118480Y57974D01*
X119142Y57700D01*
X119858D01*
X120520Y57974D01*
X121026Y58480D01*
X121300Y59142D01*
Y59858D01*
X121026Y60520D01*
X120520Y61026D01*
X119858Y61300D01*
D02*
G37*
G36*
X82458Y60400D02*
X81742D01*
X81080Y60126D01*
X80574Y59620D01*
X80300Y58958D01*
Y58242D01*
X80574Y57580D01*
X81080Y57074D01*
X81742Y56800D01*
X82458D01*
X83120Y57074D01*
X83626Y57580D01*
X83900Y58242D01*
Y58958D01*
X83626Y59620D01*
X83120Y60126D01*
X82458Y60400D01*
D02*
G37*
G36*
X99058Y58700D02*
X98342D01*
X97680Y58426D01*
X97174Y57920D01*
X96900Y57258D01*
Y56542D01*
X97174Y55880D01*
X97680Y55374D01*
X98342Y55100D01*
X99058D01*
X99720Y55374D01*
X100226Y55880D01*
X100500Y56542D01*
Y57258D01*
X100226Y57920D01*
X99720Y58426D01*
X99058Y58700D01*
D02*
G37*
G36*
X33007Y61915D02*
X31993D01*
X31015Y61653D01*
X30137Y61146D01*
X29421Y60430D01*
X28914Y59552D01*
X28652Y58574D01*
Y57560D01*
X28914Y56582D01*
X29421Y55704D01*
X30137Y54988D01*
X31015Y54481D01*
X31993Y54219D01*
X33007D01*
X33985Y54481D01*
X34863Y54988D01*
X35579Y55704D01*
X36086Y56582D01*
X36348Y57560D01*
Y58574D01*
X36086Y59552D01*
X35579Y60430D01*
X34863Y61146D01*
X33985Y61653D01*
X33007Y61915D01*
D02*
G37*
G36*
X136358Y55400D02*
X135642D01*
X134980Y55126D01*
X134474Y54620D01*
X134200Y53958D01*
Y53242D01*
X134474Y52580D01*
X134980Y52074D01*
X135642Y51800D01*
X136358D01*
X137020Y52074D01*
X137526Y52580D01*
X137800Y53242D01*
Y53958D01*
X137526Y54620D01*
X137020Y55126D01*
X136358Y55400D01*
D02*
G37*
G36*
X106858Y54800D02*
X106142D01*
X105480Y54526D01*
X104974Y54020D01*
X104700Y53358D01*
Y52642D01*
X104974Y51980D01*
X105480Y51474D01*
X106142Y51200D01*
X106858D01*
X107520Y51474D01*
X108026Y51980D01*
X108300Y52642D01*
Y53358D01*
X108026Y54020D01*
X107520Y54526D01*
X106858Y54800D01*
D02*
G37*
G36*
X45305Y57389D02*
X42057D01*
X41242Y57282D01*
X40482Y56967D01*
X39829Y56466D01*
X39328Y55814D01*
X39013Y55054D01*
X38906Y54238D01*
Y50990D01*
X39013Y50175D01*
X39328Y49415D01*
X39829Y48762D01*
X40482Y48261D01*
X41242Y47947D01*
X42057Y47839D01*
X45305D01*
X46121Y47947D01*
X46881Y48261D01*
X47533Y48762D01*
X48034Y49415D01*
X48349Y50175D01*
X48456Y50990D01*
Y54238D01*
X48349Y55054D01*
X48034Y55814D01*
X47533Y56466D01*
X46881Y56967D01*
X46121Y57282D01*
X45305Y57389D01*
D02*
G37*
G36*
X106858Y46800D02*
X106142D01*
X105480Y46526D01*
X104974Y46020D01*
X104700Y45358D01*
Y44642D01*
X104974Y43980D01*
X105480Y43474D01*
X106142Y43200D01*
X106858D01*
X107520Y43474D01*
X108026Y43980D01*
X108300Y44642D01*
Y45358D01*
X108026Y46020D01*
X107520Y46526D01*
X106858Y46800D01*
D02*
G37*
G36*
X99200Y39774D02*
Y38100D01*
X100874D01*
X100565Y38846D01*
X99946Y39465D01*
X99200Y39774D01*
D02*
G37*
G36*
X98200D02*
X97454Y39465D01*
X96835Y38846D01*
X96526Y38100D01*
X98200D01*
Y39774D01*
D02*
G37*
G36*
X79358Y40300D02*
X78642D01*
X77980Y40026D01*
X77474Y39520D01*
X77200Y38858D01*
Y38142D01*
X77474Y37480D01*
X77980Y36974D01*
X78642Y36700D01*
X79358D01*
X80020Y36974D01*
X80526Y37480D01*
X80800Y38142D01*
Y38858D01*
X80526Y39520D01*
X80020Y40026D01*
X79358Y40300D01*
D02*
G37*
G36*
X106358Y39800D02*
X105642D01*
X104980Y39526D01*
X104474Y39020D01*
X104200Y38358D01*
Y37642D01*
X104474Y36980D01*
X104980Y36474D01*
X105642Y36200D01*
X106358D01*
X107020Y36474D01*
X107526Y36980D01*
X107800Y37642D01*
Y38358D01*
X107526Y39020D01*
X107020Y39526D01*
X106358Y39800D01*
D02*
G37*
G36*
X100874Y37100D02*
X99200D01*
Y35426D01*
X99946Y35735D01*
X100565Y36354D01*
X100874Y37100D01*
D02*
G37*
G36*
X98200D02*
X96526D01*
X96835Y36354D01*
X97454Y35735D01*
X98200Y35426D01*
Y37100D01*
D02*
G37*
G36*
X94400Y35774D02*
Y34100D01*
X96074D01*
X95765Y34846D01*
X95146Y35465D01*
X94400Y35774D01*
D02*
G37*
G36*
X93400D02*
X92654Y35465D01*
X92035Y34846D01*
X91726Y34100D01*
X93400D01*
Y35774D01*
D02*
G37*
G36*
X103300Y34374D02*
Y32700D01*
X104974D01*
X104665Y33446D01*
X104046Y34065D01*
X103300Y34374D01*
D02*
G37*
G36*
X102300D02*
X101554Y34065D01*
X100935Y33446D01*
X100626Y32700D01*
X102300D01*
Y34374D01*
D02*
G37*
G36*
X96074Y33100D02*
X94400D01*
Y31426D01*
X95146Y31735D01*
X95765Y32354D01*
X96074Y33100D01*
D02*
G37*
G36*
X93400D02*
X91726D01*
X92035Y32354D01*
X92654Y31735D01*
X93400Y31426D01*
Y33100D01*
D02*
G37*
G36*
X90800Y32274D02*
Y30600D01*
X92474D01*
X92165Y31346D01*
X91546Y31965D01*
X90800Y32274D01*
D02*
G37*
G36*
X89800D02*
X89054Y31965D01*
X88435Y31346D01*
X88126Y30600D01*
X89800D01*
Y32274D01*
D02*
G37*
G36*
X104974Y31700D02*
X103300D01*
Y30026D01*
X104046Y30335D01*
X104665Y30954D01*
X104974Y31700D01*
D02*
G37*
G36*
X102300D02*
X100626D01*
X100935Y30954D01*
X101554Y30335D01*
X102300Y30026D01*
Y31700D01*
D02*
G37*
G36*
X131958Y32600D02*
X131242D01*
X130580Y32326D01*
X130074Y31820D01*
X129800Y31158D01*
Y30442D01*
X130074Y29780D01*
X130580Y29274D01*
X131242Y29000D01*
X131958D01*
X132620Y29274D01*
X133126Y29780D01*
X133400Y30442D01*
Y31158D01*
X133126Y31820D01*
X132620Y32326D01*
X131958Y32600D01*
D02*
G37*
G36*
X92474Y29600D02*
X90800D01*
Y27926D01*
X91546Y28235D01*
X92165Y28854D01*
X92474Y29600D01*
D02*
G37*
G36*
X89800D02*
X88126D01*
X88435Y28854D01*
X89054Y28235D01*
X89800Y27926D01*
Y29600D01*
D02*
G37*
G36*
X122058Y29000D02*
X121342D01*
X120680Y28726D01*
X120174Y28220D01*
X119900Y27558D01*
Y26842D01*
X120174Y26180D01*
X120680Y25674D01*
X121342Y25400D01*
X122058D01*
X122720Y25674D01*
X123226Y26180D01*
X123500Y26842D01*
Y27558D01*
X123226Y28220D01*
X122720Y28726D01*
X122058Y29000D01*
D02*
G37*
G36*
X173981Y32651D02*
X173019D01*
X172091Y32402D01*
X171258Y31922D01*
X170578Y31242D01*
X170098Y30409D01*
X169849Y29481D01*
Y28519D01*
X170098Y27591D01*
X170578Y26758D01*
X171258Y26078D01*
X172091Y25598D01*
X173019Y25349D01*
X173981D01*
X174909Y25598D01*
X175742Y26078D01*
X176422Y26758D01*
X176902Y27591D01*
X177151Y28519D01*
Y29481D01*
X176902Y30409D01*
X176422Y31242D01*
X175742Y31922D01*
X174909Y32402D01*
X173981Y32651D01*
D02*
G37*
G36*
X102958Y28800D02*
X102242D01*
X101580Y28526D01*
X101074Y28020D01*
X100800Y27358D01*
Y26642D01*
X101074Y25980D01*
X101580Y25474D01*
X102242Y25200D01*
X102958D01*
X103620Y25474D01*
X104126Y25980D01*
X104400Y26642D01*
Y27358D01*
X104126Y28020D01*
X103620Y28526D01*
X102958Y28800D01*
D02*
G37*
G36*
X145458Y28700D02*
X144742D01*
X144080Y28426D01*
X143574Y27920D01*
X143300Y27258D01*
Y26542D01*
X143574Y25880D01*
X144080Y25374D01*
X144742Y25100D01*
X145458D01*
X146120Y25374D01*
X146626Y25880D01*
X146900Y26542D01*
Y27258D01*
X146626Y27920D01*
X146120Y28426D01*
X145458Y28700D01*
D02*
G37*
G36*
X93958Y27300D02*
X93242D01*
X92580Y27026D01*
X92074Y26520D01*
X91800Y25858D01*
Y25142D01*
X92074Y24480D01*
X92580Y23974D01*
X93242Y23700D01*
X93958D01*
X94620Y23974D01*
X95126Y24480D01*
X95400Y25142D01*
Y25858D01*
X95126Y26520D01*
X94620Y27026D01*
X93958Y27300D01*
D02*
G37*
G36*
X150758Y26600D02*
X150042D01*
X149380Y26326D01*
X148874Y25820D01*
X148600Y25158D01*
Y24442D01*
X148874Y23780D01*
X149380Y23274D01*
X150042Y23000D01*
X150758D01*
X151420Y23274D01*
X151926Y23780D01*
X152200Y24442D01*
Y25158D01*
X151926Y25820D01*
X151420Y26326D01*
X150758Y26600D01*
D02*
G37*
G36*
X39080Y35281D02*
X37101D01*
X35159Y34895D01*
X33331Y34137D01*
X31685Y33038D01*
X30285Y31638D01*
X29185Y29992D01*
X28428Y28163D01*
X28042Y26222D01*
Y24243D01*
X28428Y22301D01*
X29185Y20472D01*
X30285Y18826D01*
X31685Y17427D01*
X33331Y16327D01*
X35159Y15570D01*
X37101Y15183D01*
X39080D01*
X41022Y15570D01*
X42851Y16327D01*
X44496Y17427D01*
X45896Y18826D01*
X46996Y20472D01*
X47753Y22301D01*
X48139Y24243D01*
Y26222D01*
X47753Y28163D01*
X46996Y29992D01*
X45896Y31638D01*
X44496Y33038D01*
X42851Y34137D01*
X41022Y34895D01*
X39080Y35281D01*
D02*
G37*
G36*
X230500Y103674D02*
Y102000D01*
X232174D01*
X231865Y102746D01*
X231246Y103365D01*
X230500Y103674D01*
D02*
G37*
G36*
X229500D02*
X228754Y103365D01*
X228135Y102746D01*
X227826Y102000D01*
X229500D01*
Y103674D01*
D02*
G37*
G36*
X260858Y104300D02*
X260142D01*
X259480Y104026D01*
X258974Y103520D01*
X258700Y102858D01*
Y102142D01*
X258974Y101480D01*
X259480Y100974D01*
X260142Y100700D01*
X260858D01*
X261520Y100974D01*
X262026Y101480D01*
X262300Y102142D01*
Y102858D01*
X262026Y103520D01*
X261520Y104026D01*
X260858Y104300D01*
D02*
G37*
G36*
X232174Y101000D02*
X230500D01*
Y99326D01*
X231246Y99635D01*
X231865Y100254D01*
X232174Y101000D01*
D02*
G37*
G36*
X229500D02*
X227826D01*
X228135Y100254D01*
X228754Y99635D01*
X229500Y99326D01*
Y101000D01*
D02*
G37*
G36*
X269358Y101300D02*
X268642D01*
X267980Y101026D01*
X267474Y100520D01*
X267200Y99858D01*
Y99142D01*
X267474Y98480D01*
X267980Y97974D01*
X268642Y97700D01*
X269358D01*
X270020Y97974D01*
X270526Y98480D01*
X270800Y99142D01*
Y99858D01*
X270526Y100520D01*
X270020Y101026D01*
X269358Y101300D01*
D02*
G37*
G36*
X304235Y99598D02*
X301085D01*
X300415Y99510D01*
X299790Y99252D01*
X299254Y98840D01*
X298842Y98303D01*
X298583Y97678D01*
X298495Y97008D01*
X298583Y96337D01*
X298842Y95713D01*
X299254Y95176D01*
X299790Y94764D01*
X300415Y94506D01*
X301085Y94417D01*
X304235D01*
X304906Y94506D01*
X305530Y94764D01*
X306067Y95176D01*
X306479Y95713D01*
X306737Y96337D01*
X306826Y97008D01*
X306737Y97678D01*
X306479Y98303D01*
X306067Y98840D01*
X305530Y99252D01*
X304906Y99510D01*
X304235Y99598D01*
D02*
G37*
G36*
X288369D02*
X284038D01*
X283368Y99510D01*
X282743Y99252D01*
X282206Y98840D01*
X281795Y98303D01*
X281536Y97678D01*
X281448Y97008D01*
X281536Y96337D01*
X281795Y95713D01*
X282206Y95176D01*
X282743Y94764D01*
X283368Y94506D01*
X284038Y94417D01*
X288369D01*
X289039Y94506D01*
X289664Y94764D01*
X290201Y95176D01*
X290613Y95713D01*
X290871Y96337D01*
X290960Y97008D01*
X290871Y97678D01*
X290613Y98303D01*
X290201Y98840D01*
X289664Y99252D01*
X289039Y99510D01*
X288369Y99598D01*
D02*
G37*
G36*
X279766Y95800D02*
X279050D01*
X278389Y95526D01*
X277882Y95020D01*
X277608Y94358D01*
Y93642D01*
X277882Y92980D01*
X278389Y92474D01*
X279050Y92200D01*
X279766D01*
X280428Y92474D01*
X280934Y92980D01*
X281208Y93642D01*
Y94358D01*
X280934Y95020D01*
X280428Y95526D01*
X279766Y95800D01*
D02*
G37*
G36*
X198758Y95200D02*
X198042D01*
X197380Y94926D01*
X196874Y94420D01*
X196600Y93758D01*
Y93042D01*
X196874Y92380D01*
X197380Y91874D01*
X198042Y91600D01*
X198758D01*
X199420Y91874D01*
X199926Y92380D01*
X200200Y93042D01*
Y93758D01*
X199926Y94420D01*
X199420Y94926D01*
X198758Y95200D01*
D02*
G37*
G36*
X268858Y93800D02*
X268142D01*
X267480Y93526D01*
X266974Y93020D01*
X266700Y92358D01*
Y91642D01*
X266974Y90980D01*
X267480Y90474D01*
X268142Y90200D01*
X268858D01*
X269520Y90474D01*
X270026Y90980D01*
X270300Y91642D01*
Y92358D01*
X270026Y93020D01*
X269520Y93526D01*
X268858Y93800D01*
D02*
G37*
G36*
X248751D02*
X248035D01*
X247373Y93526D01*
X246867Y93020D01*
X246593Y92358D01*
Y91642D01*
X246867Y90980D01*
X247373Y90474D01*
X248035Y90200D01*
X248751D01*
X249412Y90474D01*
X249919Y90980D01*
X250193Y91642D01*
Y92358D01*
X249919Y93020D01*
X249412Y93526D01*
X248751Y93800D01*
D02*
G37*
G36*
X217858Y93300D02*
X217142D01*
X216480Y93026D01*
X215974Y92520D01*
X215700Y91858D01*
Y91142D01*
X215974Y90480D01*
X216480Y89974D01*
X217142Y89700D01*
X217858D01*
X218520Y89974D01*
X219026Y90480D01*
X219300Y91142D01*
Y91858D01*
X219026Y92520D01*
X218520Y93026D01*
X217858Y93300D01*
D02*
G37*
G36*
X212358D02*
X211642D01*
X210980Y93026D01*
X210474Y92520D01*
X210200Y91858D01*
Y91142D01*
X210474Y90480D01*
X210980Y89974D01*
X211642Y89700D01*
X212358D01*
X213020Y89974D01*
X213526Y90480D01*
X213800Y91142D01*
Y91858D01*
X213526Y92520D01*
X213020Y93026D01*
X212358Y93300D01*
D02*
G37*
G36*
X288546Y93257D02*
X287798D01*
X287107Y92971D01*
X286579Y92443D01*
X286293Y91752D01*
Y91004D01*
X286579Y90313D01*
X287107Y89785D01*
X287798Y89498D01*
X288546D01*
X289237Y89785D01*
X289765Y90313D01*
X290052Y91004D01*
Y91752D01*
X289765Y92443D01*
X289237Y92971D01*
X288546Y93257D01*
D02*
G37*
G36*
X203558Y89800D02*
X202842D01*
X202180Y89526D01*
X201674Y89020D01*
X201400Y88358D01*
Y87642D01*
X201674Y86980D01*
X202180Y86474D01*
X202842Y86200D01*
X203558D01*
X204220Y86474D01*
X204726Y86980D01*
X205000Y87642D01*
Y88358D01*
X204726Y89020D01*
X204220Y89526D01*
X203558Y89800D01*
D02*
G37*
G36*
X228358Y87800D02*
X227642D01*
X226980Y87526D01*
X226474Y87020D01*
X226200Y86358D01*
Y85642D01*
X226474Y84980D01*
X226980Y84474D01*
X227642Y84200D01*
X228358D01*
X229020Y84474D01*
X229526Y84980D01*
X229800Y85642D01*
Y86358D01*
X229526Y87020D01*
X229020Y87526D01*
X228358Y87800D01*
D02*
G37*
G36*
X217858D02*
X217142D01*
X216480Y87526D01*
X215974Y87020D01*
X215700Y86358D01*
Y85642D01*
X215974Y84980D01*
X216480Y84474D01*
X217142Y84200D01*
X217858D01*
X218520Y84474D01*
X219026Y84980D01*
X219300Y85642D01*
Y86358D01*
X219026Y87020D01*
X218520Y87526D01*
X217858Y87800D01*
D02*
G37*
G36*
X212358D02*
X211642D01*
X210980Y87526D01*
X210474Y87020D01*
X210200Y86358D01*
Y85642D01*
X210474Y84980D01*
X210980Y84474D01*
X211642Y84200D01*
X212358D01*
X213020Y84474D01*
X213526Y84980D01*
X213800Y85642D01*
Y86358D01*
X213526Y87020D01*
X213020Y87526D01*
X212358Y87800D01*
D02*
G37*
G36*
X198358Y86900D02*
X197642D01*
X196980Y86626D01*
X196474Y86120D01*
X196200Y85458D01*
Y84742D01*
X196474Y84080D01*
X196980Y83574D01*
X197642Y83300D01*
X198358D01*
X199020Y83574D01*
X199526Y84080D01*
X199800Y84742D01*
Y85458D01*
X199526Y86120D01*
X199020Y86626D01*
X198358Y86900D01*
D02*
G37*
G36*
X278656Y87200D02*
X277944D01*
X277258Y87016D01*
X276642Y86660D01*
X276139Y86158D01*
X275784Y85542D01*
X275600Y84856D01*
Y84145D01*
X275784Y83458D01*
X276139Y82842D01*
X276642Y82340D01*
X277258Y81984D01*
X277944Y81800D01*
X278656D01*
X279342Y81984D01*
X279958Y82340D01*
X280461Y82842D01*
X280816Y83458D01*
X281000Y84145D01*
Y84856D01*
X280816Y85542D01*
X280461Y86158D01*
X279958Y86660D01*
X279342Y87016D01*
X278656Y87200D01*
D02*
G37*
G36*
X223069Y82314D02*
X222353D01*
X221692Y82040D01*
X221185Y81533D01*
X220911Y80872D01*
Y80156D01*
X221185Y79494D01*
X221692Y78988D01*
X222353Y78714D01*
X223069D01*
X223731Y78988D01*
X224237Y79494D01*
X224511Y80156D01*
Y80872D01*
X224237Y81533D01*
X223731Y82040D01*
X223069Y82314D01*
D02*
G37*
G36*
X288981Y81950D02*
X288270D01*
X287584Y81766D01*
X286968Y81410D01*
X286465Y80908D01*
X286110Y80292D01*
X285926Y79606D01*
Y78895D01*
X286110Y78208D01*
X286465Y77592D01*
X286968Y77090D01*
X287584Y76734D01*
X288270Y76550D01*
X288981D01*
X289668Y76734D01*
X290284Y77090D01*
X290786Y77592D01*
X291142Y78208D01*
X291154Y78252D01*
X291749Y78463D01*
X291829Y78454D01*
X292442Y78200D01*
X293158D01*
X293820Y78474D01*
X294326Y78980D01*
X294600Y79642D01*
Y80358D01*
X294326Y81020D01*
X293820Y81526D01*
X293158Y81800D01*
X292442D01*
X291780Y81526D01*
X291363Y81109D01*
X291130Y81028D01*
X290639Y81055D01*
X290284Y81410D01*
X289668Y81766D01*
X288981Y81950D01*
D02*
G37*
G36*
X255358Y77300D02*
X254642D01*
X253980Y77026D01*
X253474Y76520D01*
X253200Y75858D01*
Y75142D01*
X253474Y74480D01*
X253980Y73974D01*
X254642Y73700D01*
X255358D01*
X256020Y73974D01*
X256526Y74480D01*
X256800Y75142D01*
Y75858D01*
X256526Y76520D01*
X256020Y77026D01*
X255358Y77300D01*
D02*
G37*
G36*
X224158Y76900D02*
X223442D01*
X222780Y76626D01*
X222274Y76120D01*
X222000Y75458D01*
Y74742D01*
X222274Y74080D01*
X222780Y73574D01*
X223442Y73300D01*
X224158D01*
X224820Y73574D01*
X225326Y74080D01*
X225600Y74742D01*
Y75458D01*
X225326Y76120D01*
X224820Y76626D01*
X224158Y76900D01*
D02*
G37*
G36*
X214955Y77800D02*
X214245D01*
X213558Y77616D01*
X212942Y77261D01*
X212439Y76758D01*
X212084Y76142D01*
X211900Y75455D01*
Y74744D01*
X212084Y74058D01*
X212439Y73442D01*
X212942Y72939D01*
X213558Y72584D01*
X214245Y72400D01*
X214955D01*
X215642Y72584D01*
X216258Y72939D01*
X216450Y73132D01*
X216742Y72839D01*
X217358Y72484D01*
X218044Y72300D01*
X218756D01*
X219442Y72484D01*
X220058Y72839D01*
X220561Y73342D01*
X220916Y73958D01*
X221100Y74645D01*
Y75355D01*
X220916Y76042D01*
X220561Y76658D01*
X220058Y77161D01*
X219442Y77516D01*
X218756Y77700D01*
X218044D01*
X217358Y77516D01*
X216742Y77161D01*
X216550Y76968D01*
X216258Y77261D01*
X215642Y77616D01*
X214955Y77800D01*
D02*
G37*
G36*
X207500Y72674D02*
Y71000D01*
X209174D01*
X208865Y71746D01*
X208246Y72365D01*
X207500Y72674D01*
D02*
G37*
G36*
X206500D02*
X205754Y72365D01*
X205135Y71746D01*
X204826Y71000D01*
X206500D01*
Y72674D01*
D02*
G37*
G36*
X267858Y74300D02*
X267142D01*
X266480Y74026D01*
X265974Y73520D01*
X265700Y72858D01*
Y72142D01*
X265974Y71480D01*
X266480Y70974D01*
X267142Y70700D01*
X267858D01*
X268520Y70974D01*
X269026Y71480D01*
X269300Y72142D01*
Y72858D01*
X269026Y73520D01*
X268520Y74026D01*
X267858Y74300D01*
D02*
G37*
G36*
X209174Y70000D02*
X207500D01*
Y68326D01*
X208246Y68635D01*
X208865Y69254D01*
X209174Y70000D01*
D02*
G37*
G36*
X206500D02*
X204826D01*
X205135Y69254D01*
X205754Y68635D01*
X206500Y68326D01*
Y70000D01*
D02*
G37*
G36*
X279358Y71300D02*
X278642D01*
X277980Y71026D01*
X277474Y70520D01*
X277200Y69858D01*
Y69142D01*
X277474Y68480D01*
X277980Y67974D01*
X278642Y67700D01*
X279358D01*
X280020Y67974D01*
X280526Y68480D01*
X280800Y69142D01*
Y69858D01*
X280526Y70520D01*
X280020Y71026D01*
X279358Y71300D01*
D02*
G37*
G36*
X288546Y70502D02*
X287798D01*
X287107Y70215D01*
X286579Y69687D01*
X286293Y68996D01*
Y68248D01*
X286579Y67557D01*
X287107Y67029D01*
X287798Y66742D01*
X288546D01*
X289237Y67029D01*
X289765Y67557D01*
X290052Y68248D01*
Y68996D01*
X289765Y69687D01*
X289237Y70215D01*
X288546Y70502D01*
D02*
G37*
G36*
X227394Y71800D02*
X226683D01*
X225996Y71616D01*
X225380Y71260D01*
X224878Y70758D01*
X224522Y70142D01*
X224338Y69455D01*
Y68744D01*
X224522Y68058D01*
X224878Y67442D01*
X225051Y67269D01*
X224939Y67158D01*
X224584Y66542D01*
X224400Y65855D01*
Y65144D01*
X224584Y64458D01*
X224939Y63842D01*
X225442Y63340D01*
X226058Y62984D01*
X226745Y62800D01*
X227455D01*
X228142Y62984D01*
X228758Y63340D01*
X229260Y63842D01*
X229616Y64458D01*
X229800Y65144D01*
Y65855D01*
X229616Y66542D01*
X229260Y67158D01*
X229087Y67331D01*
X229199Y67442D01*
X229554Y68058D01*
X229738Y68744D01*
Y69455D01*
X229554Y70142D01*
X229199Y70758D01*
X228696Y71260D01*
X228081Y71616D01*
X227394Y71800D01*
D02*
G37*
G36*
X207299Y66241D02*
X206583D01*
X205921Y65967D01*
X205415Y65461D01*
X205141Y64799D01*
Y64083D01*
X205415Y63421D01*
X205921Y62915D01*
X206583Y62641D01*
X207299D01*
X207961Y62915D01*
X208467Y63421D01*
X208741Y64083D01*
Y64799D01*
X208467Y65461D01*
X207961Y65967D01*
X207299Y66241D01*
D02*
G37*
G36*
X304235Y65583D02*
X301085D01*
X300415Y65495D01*
X299790Y65236D01*
X299254Y64824D01*
X298842Y64288D01*
X298583Y63663D01*
X298495Y62992D01*
X298583Y62322D01*
X298842Y61697D01*
X299254Y61160D01*
X299790Y60749D01*
X300415Y60490D01*
X301085Y60401D01*
X304235D01*
X304906Y60490D01*
X305530Y60749D01*
X306067Y61160D01*
X306479Y61697D01*
X306737Y62322D01*
X306826Y62992D01*
X306737Y63663D01*
X306479Y64288D01*
X306067Y64824D01*
X305530Y65236D01*
X304906Y65495D01*
X304235Y65583D01*
D02*
G37*
G36*
X288369D02*
X284038D01*
X283368Y65495D01*
X282743Y65236D01*
X282206Y64824D01*
X281795Y64288D01*
X281536Y63663D01*
X281448Y62992D01*
X281536Y62322D01*
X281795Y61697D01*
X282206Y61160D01*
X282743Y60749D01*
X283368Y60490D01*
X284038Y60401D01*
X288369D01*
X289039Y60490D01*
X289664Y60749D01*
X290201Y61160D01*
X290613Y61697D01*
X290871Y62322D01*
X290960Y62992D01*
X290871Y63663D01*
X290613Y64288D01*
X290201Y64824D01*
X289664Y65236D01*
X289039Y65495D01*
X288369Y65583D01*
D02*
G37*
G36*
X273858Y63800D02*
X273142D01*
X272480Y63526D01*
X271974Y63020D01*
X271700Y62358D01*
Y61642D01*
X271974Y60980D01*
X272480Y60474D01*
X273142Y60200D01*
X273858D01*
X274520Y60474D01*
X275026Y60980D01*
X275300Y61642D01*
Y62358D01*
X275026Y63020D01*
X274520Y63526D01*
X273858Y63800D01*
D02*
G37*
G36*
X219500Y54674D02*
X218754Y54365D01*
X218135Y53746D01*
X217854Y53069D01*
X217347Y53002D01*
X217233Y53018D01*
X217026Y53520D01*
X216520Y54026D01*
X215858Y54300D01*
X215142D01*
X214480Y54026D01*
X213974Y53520D01*
X213700Y52858D01*
Y52142D01*
X213974Y51480D01*
X214480Y50974D01*
X215142Y50700D01*
X215858D01*
X216520Y50974D01*
X217026Y51480D01*
X217233Y51982D01*
X217347Y51998D01*
X217854Y51931D01*
X218135Y51254D01*
X218754Y50635D01*
X219500Y50326D01*
Y52500D01*
Y54674D01*
D02*
G37*
G36*
X220500D02*
Y53000D01*
X222174D01*
X221865Y53746D01*
X221246Y54365D01*
X220500Y54674D01*
D02*
G37*
G36*
X222174Y52000D02*
X220500D01*
Y50326D01*
X221246Y50635D01*
X221865Y51254D01*
X222174Y52000D01*
D02*
G37*
G36*
X301358Y45800D02*
X300642D01*
X299980Y45526D01*
X299474Y45020D01*
X299200Y44358D01*
Y43642D01*
X299474Y42980D01*
X299980Y42474D01*
X300642Y42200D01*
X301358D01*
X302020Y42474D01*
X302526Y42980D01*
X302800Y43642D01*
Y44358D01*
X302526Y45020D01*
X302020Y45526D01*
X301358Y45800D01*
D02*
G37*
G36*
X292358Y41300D02*
X291642D01*
X290980Y41026D01*
X290474Y40520D01*
X290200Y39858D01*
Y39142D01*
X290474Y38480D01*
X290980Y37974D01*
X291642Y37700D01*
X292358D01*
X293020Y37974D01*
X293526Y38480D01*
X293800Y39142D01*
Y39858D01*
X293526Y40520D01*
X293020Y41026D01*
X292358Y41300D01*
D02*
G37*
G36*
X208258Y39300D02*
X207542D01*
X206880Y39026D01*
X206374Y38520D01*
X206100Y37858D01*
Y37142D01*
X206374Y36480D01*
X206880Y35974D01*
X207542Y35700D01*
X208258D01*
X208920Y35974D01*
X209426Y36480D01*
X209700Y37142D01*
Y37858D01*
X209426Y38520D01*
X208920Y39026D01*
X208258Y39300D01*
D02*
G37*
G36*
X207151Y32651D02*
X199849D01*
Y25349D01*
X207151D01*
Y32651D01*
D02*
G37*
%LPD*%
D42*
X193500Y29000D02*
D03*
X173500D02*
D03*
X183500D02*
D03*
D43*
X203500D02*
D03*
D44*
X32500Y58067D02*
D03*
Y79878D02*
D03*
Y123500D02*
D03*
Y112594D02*
D03*
Y101689D02*
D03*
Y90784D02*
D03*
Y68972D02*
D03*
X43681Y74425D02*
D03*
Y118047D02*
D03*
Y63520D02*
D03*
Y128953D02*
D03*
Y96236D02*
D03*
Y85331D02*
D03*
Y107142D02*
D03*
D45*
Y52614D02*
D03*
D46*
X38091Y25232D02*
D03*
Y156335D02*
D03*
D47*
X288172Y68622D02*
D03*
Y91378D02*
D03*
D48*
X286204Y97008D02*
D03*
Y62992D02*
D03*
D49*
X302660Y97008D02*
D03*
Y62992D02*
D03*
D54*
X207900Y37500D02*
D03*
X55000Y79000D02*
D03*
X61500D02*
D03*
X102600Y27000D02*
D03*
X106000Y38000D02*
D03*
X106500Y45000D02*
D03*
Y53000D02*
D03*
X55000Y90500D02*
D03*
X61500Y91500D02*
D03*
X66448Y167801D02*
D03*
X71500Y113500D02*
D03*
Y130500D02*
D03*
X71448Y158301D02*
D03*
X71500Y147500D02*
D03*
X105000Y112500D02*
D03*
X99000D02*
D03*
X150400Y24800D02*
D03*
X145100Y26900D02*
D03*
X111512Y129012D02*
D03*
X124500Y137000D02*
D03*
X140500Y65000D02*
D03*
X130000Y137000D02*
D03*
X144500Y92500D02*
D03*
X148600Y98400D02*
D03*
X93600Y25500D02*
D03*
X121700Y27200D02*
D03*
X98700Y56900D02*
D03*
X136000Y53600D02*
D03*
X89000Y97500D02*
D03*
X79000Y38500D02*
D03*
X112500Y59000D02*
D03*
X109000Y58500D02*
D03*
X292800Y80000D02*
D03*
X248393Y92000D02*
D03*
X268500D02*
D03*
X206941Y64441D02*
D03*
X215500Y52500D02*
D03*
X212000Y91500D02*
D03*
X198400Y93400D02*
D03*
X212000Y86000D02*
D03*
X222711Y80514D02*
D03*
X217500Y91500D02*
D03*
Y86000D02*
D03*
X223800Y75100D02*
D03*
X269000Y99500D02*
D03*
X273500Y62000D02*
D03*
X279000Y69500D02*
D03*
X301000Y44000D02*
D03*
X260500Y102500D02*
D03*
X255000Y75500D02*
D03*
X292000Y39500D02*
D03*
X267500Y72500D02*
D03*
X279408Y94000D02*
D03*
X135941Y60559D02*
D03*
X98700Y37600D02*
D03*
X93900Y33600D02*
D03*
X90300Y30100D02*
D03*
X82100Y58600D02*
D03*
X93000Y112500D02*
D03*
X140500Y129000D02*
D03*
X144500Y96500D02*
D03*
X140500Y70000D02*
D03*
X102800Y32200D02*
D03*
X131600Y30800D02*
D03*
X227100Y65500D02*
D03*
X278300Y84500D02*
D03*
X227038Y69100D02*
D03*
X214600Y75100D02*
D03*
X218400Y75000D02*
D03*
X230000Y101500D02*
D03*
X220000Y52500D02*
D03*
X207000Y70500D02*
D03*
X203200Y88000D02*
D03*
X198000Y85100D02*
D03*
X288626Y79250D02*
D03*
X228000Y86000D02*
D03*
X101500Y75000D02*
D03*
X106500Y70500D02*
D03*
X109000Y77500D02*
D03*
X119500Y59500D02*
D03*
X72500Y123000D02*
D03*
X73000Y140500D02*
D03*
X72000Y106000D02*
D03*
X114000Y103500D02*
D03*
X91500Y88500D02*
D03*
M02*
