G04*
G04 #@! TF.GenerationSoftware,Altium Limited,Altium Designer,26.7.1 (11)*
G04*
G04 Layer_Color=32896*
G04 Board_Origin=26900000|31050000*
%FSLAX44Y44*%
%MOMM*%
G71*
G04*
G04 #@! TF.SameCoordinates,64C68C79-8744-4C56-AC4C-B085EE5176D7*
G04*
G04*
G04 #@! TF.FilePolarity,Positive*
G04*
G01*
G75*
%ADD12C,0.2000*%
%ADD13C,0.2540*%
D12*
X284651Y57059D02*
Y85181D01*
X266529Y57059D02*
Y85181D01*
X301260Y76030D02*
X303260D01*
X301260Y86530D02*
X303260D01*
X498257Y59607D02*
X526379D01*
X498257Y41485D02*
X526379D01*
X585640Y198390D02*
Y200390D01*
X575140Y198390D02*
Y200390D01*
X584370Y236490D02*
Y238490D01*
X573870Y236490D02*
Y238490D01*
X280579Y139871D02*
X308701D01*
X280579Y121749D02*
X308701D01*
X276839Y114651D02*
X309901D01*
X276839Y91089D02*
X309901D01*
D13*
X615946Y194312D02*
Y204468D01*
X610868D01*
X609175Y202776D01*
Y199390D01*
X610868Y197697D01*
X615946D01*
X612560D02*
X609175Y194312D01*
X605789D02*
X602404D01*
X604096D01*
Y204468D01*
X605789Y202776D01*
X590554Y204468D02*
X597325D01*
Y199390D01*
X593940Y201083D01*
X592247D01*
X590554Y199390D01*
Y196004D01*
X592247Y194312D01*
X595632D01*
X597325Y196004D01*
X614676Y233682D02*
Y243838D01*
X609598D01*
X607905Y242146D01*
Y238760D01*
X609598Y237067D01*
X614676D01*
X611290D02*
X607905Y233682D01*
X604519D02*
X601134D01*
X602826D01*
Y243838D01*
X604519Y242146D01*
X596055D02*
X594362Y243838D01*
X590977D01*
X589284Y242146D01*
Y240453D01*
X590977Y238760D01*
X592670D01*
X590977D01*
X589284Y237067D01*
Y235374D01*
X590977Y233682D01*
X594362D01*
X596055Y235374D01*
X331891Y76202D02*
Y86358D01*
X326813D01*
X325120Y84666D01*
Y81280D01*
X326813Y79587D01*
X331891D01*
X328506D02*
X325120Y76202D01*
X321734D02*
X318349D01*
X320042D01*
Y86358D01*
X321734Y84666D01*
X519005Y72474D02*
X520698Y74166D01*
X524083D01*
X525776Y72474D01*
Y65702D01*
X524083Y64010D01*
X520698D01*
X519005Y65702D01*
X515619Y64010D02*
X512234D01*
X513926D01*
Y74166D01*
X515619Y72474D01*
X500384Y74166D02*
X503770Y72474D01*
X507155Y69088D01*
Y65702D01*
X505462Y64010D01*
X502077D01*
X500384Y65702D01*
Y67395D01*
X502077Y69088D01*
X507155D01*
X262043Y106256D02*
X263736Y107948D01*
X267121D01*
X268814Y106256D01*
Y99484D01*
X267121Y97792D01*
X263736D01*
X262043Y99484D01*
X258657Y107948D02*
X251886D01*
Y106256D01*
X258657Y99484D01*
Y97792D01*
X263313Y134196D02*
X265006Y135888D01*
X268391D01*
X270084Y134196D01*
Y127424D01*
X268391Y125732D01*
X265006D01*
X263313Y127424D01*
X253156Y135888D02*
X256542Y134196D01*
X259927Y130810D01*
Y127424D01*
X258234Y125732D01*
X254849D01*
X253156Y127424D01*
Y129117D01*
X254849Y130810D01*
X259927D01*
X301413Y66886D02*
X303106Y68578D01*
X306491D01*
X308184Y66886D01*
Y60114D01*
X306491Y58422D01*
X303106D01*
X301413Y60114D01*
X291256Y58422D02*
X298027D01*
X291256Y65193D01*
Y66886D01*
X292949Y68578D01*
X296334D01*
X298027Y66886D01*
M02*
