G04*
G04 #@! TF.GenerationSoftware,Altium Limited,Altium Designer,26.7.1 (11)*
G04*
G04 Layer_Physical_Order=4*
G04 Layer_Color=16711680*
G04 Board_Origin=26900000|31050000*
%FSLAX44Y44*%
%MOMM*%
G71*
G04*
G04 #@! TF.SameCoordinates,64C68C79-8744-4C56-AC4C-B085EE5176D7*
G04*
G04*
G04 #@! TF.FilePolarity,Positive*
G04*
G01*
G75*
%ADD13C,0.2540*%
%ADD14C,0.5080*%
%ADD19R,0.8000X1.2500*%
%ADD20R,1.2500X0.8000*%
%ADD22R,1.2581X1.0121*%
%ADD23R,1.0121X1.2581*%
%ADD27R,1.5046X1.5562*%
%ADD42R,1.5500X1.5500*%
%ADD43C,1.6500*%
%ADD44C,1.5500*%
%ADD45C,4.8000*%
G04:AMPARAMS|DCode=46|XSize=1.65mm|YSize=1.65mm|CornerRadius=0.4125mm|HoleSize=0mm|Usage=FLASHONLY|Rotation=270.000|XOffset=0mm|YOffset=0mm|HoleType=Round|Shape=RoundedRectangle|*
%AMROUNDEDRECTD46*
21,1,1.6500,0.8250,0,0,270.0*
21,1,0.8250,1.6500,0,0,270.0*
1,1,0.8250,-0.4125,-0.4125*
1,1,0.8250,-0.4125,0.4125*
1,1,0.8250,0.4125,0.4125*
1,1,0.8250,0.4125,-0.4125*
%
%ADD46ROUNDEDRECTD46*%
%ADD47C,0.6500*%
%ADD48O,2.1000X1.0000*%
%ADD49O,1.8000X1.0000*%
%ADD50C,0.6096*%
%ADD51C,0.3810*%
%ADD53C,0.6350*%
%ADD54C,0.2032*%
D13*
X186690Y111760D02*
X200660Y97790D01*
X105410Y111760D02*
X186690D01*
X182880Y252730D02*
Y269240D01*
Y252730D02*
X209550Y226060D01*
Y204470D02*
Y226060D01*
X198120Y256540D02*
X223520Y231140D01*
Y210820D02*
Y231140D01*
X198120Y256540D02*
Y344170D01*
X82550Y134620D02*
X105410Y111760D01*
X82550Y134620D02*
Y147490D01*
X110950Y161340D02*
X114398D01*
X510286Y223520D02*
X516128D01*
X502920Y216154D02*
X510286Y223520D01*
X579120Y208660D02*
X580390Y207390D01*
X579120Y208660D02*
Y229490D01*
X251460Y190500D02*
X257810D01*
X251460Y198120D02*
X265430D01*
X251460Y204470D02*
X269240D01*
X270510Y179070D02*
Y193040D01*
X265430Y198120D02*
X270510Y193040D01*
X269240Y204470D02*
X276860Y196850D01*
X184150Y312420D02*
X191770Y304800D01*
Y252730D02*
Y304800D01*
Y252730D02*
X217170Y227330D01*
Y207010D02*
Y227330D01*
Y207010D02*
X226060Y198120D01*
X251460D01*
X185420Y356870D02*
X198120Y344170D01*
X223520Y210820D02*
X229870Y204470D01*
X251460D01*
X209550D02*
X223520Y190500D01*
X251460D01*
X264160Y256540D02*
X270510Y262890D01*
X232410Y224790D02*
X236220Y228600D01*
X270510Y262890D02*
X289560D01*
X236220Y228600D02*
X264160Y256540D01*
D14*
X535686Y50546D02*
X630918Y145778D01*
Y233680D01*
X520088Y50546D02*
X535686D01*
X519411D02*
X520088D01*
X293065Y80085D02*
X294260Y81280D01*
X275590Y78890D02*
X276785Y80085D01*
X293065D01*
X275590Y78890D02*
Y79267D01*
X261387Y81788D02*
X273069D01*
X275590Y79267D01*
Y63350D02*
Y64029D01*
X273069Y66550D02*
X275590Y64029D01*
X260604Y68580D02*
X260879D01*
X262909Y66550D01*
X273069D01*
X503318Y50546D02*
X504548D01*
X491490Y29210D02*
Y32030D01*
X500797Y41337D02*
Y48025D01*
X491490Y32030D02*
X500797Y41337D01*
Y48025D02*
X503318Y50546D01*
X504548D02*
X504623Y50621D01*
Y64187D02*
X504698Y64262D01*
X504623Y50621D02*
Y64187D01*
X516890Y29210D02*
Y48025D01*
X519411Y50546D01*
D19*
X294260Y81280D02*
D03*
X310260D02*
D03*
D20*
X580390Y191390D02*
D03*
X579120Y245490D02*
D03*
X580390Y207390D02*
D03*
X579120Y229490D02*
D03*
D22*
X286870Y130810D02*
D03*
X504548Y50546D02*
D03*
X520088D02*
D03*
X302410Y130810D02*
D03*
D23*
X275590Y78890D02*
D03*
Y63350D02*
D03*
D27*
X284362Y102870D02*
D03*
X302378D02*
D03*
D42*
X440690Y29210D02*
D03*
D43*
X82550Y285990D02*
D03*
Y313690D02*
D03*
Y202890D02*
D03*
Y147490D02*
D03*
X110950Y272140D02*
D03*
Y216740D02*
D03*
Y244440D02*
D03*
Y327540D02*
D03*
Y161340D02*
D03*
Y299840D02*
D03*
Y189040D02*
D03*
X82550Y175190D02*
D03*
Y230590D02*
D03*
Y258290D02*
D03*
D44*
X491490Y29210D02*
D03*
X516890D02*
D03*
X466090D02*
D03*
D45*
X96750Y397090D02*
D03*
Y64090D02*
D03*
D46*
X110950Y133640D02*
D03*
D47*
X731957Y174300D02*
D03*
Y232100D02*
D03*
D48*
X726957Y246400D02*
D03*
Y160000D02*
D03*
D49*
X768757Y246400D02*
D03*
Y160000D02*
D03*
D50*
X709697Y238760D02*
D03*
X276860Y148590D02*
D03*
X285750Y149860D02*
D03*
X681990Y233680D02*
D03*
X679450Y184150D02*
D03*
X741680Y100330D02*
D03*
X647700Y191770D02*
D03*
X200660Y97790D02*
D03*
X226060Y247650D02*
D03*
X345290Y153820D02*
D03*
X345440Y136144D02*
D03*
X250698Y144526D02*
D03*
Y95504D02*
D03*
X238506Y85344D02*
D03*
X229362Y76454D02*
D03*
X309118Y69088D02*
D03*
X237744Y64770D02*
D03*
X208534Y148844D02*
D03*
X236220Y285750D02*
D03*
X356870Y327660D02*
D03*
X367030Y245110D02*
D03*
X356870Y177800D02*
D03*
X261112Y81788D02*
D03*
X377444Y249936D02*
D03*
X367030Y234950D02*
D03*
X330200Y347980D02*
D03*
X356870Y165100D02*
D03*
X316230Y347980D02*
D03*
X283240Y327690D02*
D03*
X368554Y68326D02*
D03*
X382016Y62992D02*
D03*
X251460Y285750D02*
D03*
X266700D02*
D03*
X181610Y374650D02*
D03*
X181477Y402084D02*
D03*
X181610Y331470D02*
D03*
Y288290D02*
D03*
X168777Y426214D02*
D03*
X156210Y232410D02*
D03*
X139700Y229870D02*
D03*
X270510Y134620D02*
D03*
Y114300D02*
D03*
X269240Y96520D02*
D03*
X260604Y68580D02*
D03*
X156210Y200660D02*
D03*
X139700D02*
D03*
X334264Y78232D02*
D03*
X576834Y166370D02*
D03*
X661670Y260350D02*
D03*
X764540Y111760D02*
D03*
X708660Y176530D02*
D03*
X694690Y157480D02*
D03*
X683260Y252730D02*
D03*
X568452Y190754D02*
D03*
X552450Y218440D02*
D03*
Y232410D02*
D03*
X565687Y204505D02*
D03*
X538480Y218440D02*
D03*
X503936Y237236D02*
D03*
X538480Y232410D02*
D03*
X547370Y133350D02*
D03*
X525630Y163680D02*
D03*
X504698Y64262D02*
D03*
X630918Y233680D02*
D03*
X743712Y203200D02*
D03*
X706882Y214630D02*
D03*
X576677Y175514D02*
D03*
X545084Y190754D02*
D03*
X554736Y190500D02*
D03*
X584200Y257810D02*
D03*
X558800Y133350D02*
D03*
X525780Y179070D02*
D03*
X516128Y223520D02*
D03*
X502920Y216154D02*
D03*
X733110Y201295D02*
D03*
X579120Y218440D02*
D03*
X257810Y190500D02*
D03*
X270510Y179070D02*
D03*
X276860Y196850D02*
D03*
X303530Y151130D02*
D03*
X184150Y312420D02*
D03*
X185420Y356870D02*
D03*
X182880Y269240D02*
D03*
X289560Y262890D02*
D03*
X232410Y224790D02*
D03*
D51*
X276860Y139590D02*
Y148590D01*
Y139590D02*
X285640Y130810D01*
X681990Y233680D02*
X692262D01*
X693094Y234513D02*
X702747D01*
X692262Y233680D02*
X693094Y234513D01*
X285640Y130810D02*
X286870D01*
X278744Y96994D02*
X284362Y102612D01*
Y102870D01*
X270333Y96994D02*
X278744D01*
X269859Y96520D02*
X270333Y96994D01*
X269240Y96520D02*
X269859D01*
X568770Y191072D02*
X578420D01*
X568452Y190754D02*
X568770Y191072D01*
X578420D02*
X578547Y191199D01*
X702747Y234513D02*
X710438Y226822D01*
X727456D01*
X743712Y210566D01*
Y203200D02*
Y210566D01*
X302378Y102612D02*
X310260Y94730D01*
Y81280D02*
Y94730D01*
X302378Y102612D02*
Y102870D01*
X303530Y131930D02*
Y151130D01*
X302378Y102870D02*
Y130778D01*
X303530Y131930D01*
X299720Y100212D02*
X302378Y102870D01*
D53*
X211074Y71633D02*
Y146304D01*
X208534Y148844D02*
X211074Y146304D01*
Y71633D02*
X243337Y39370D01*
X295402D02*
X334264Y78232D01*
X243337Y39370D02*
X295402D01*
D54*
X573438Y168667D02*
X575734Y166370D01*
X576834D01*
X619108Y245490D02*
X630918Y233680D01*
X579120Y245490D02*
X619108D01*
X733110Y201295D02*
Y207452D01*
X725932Y214630D02*
X733110Y207452D01*
X706882Y214630D02*
X725932D01*
X568238Y172985D02*
X573048D01*
X575578Y175514D02*
X576677D01*
X566450Y168667D02*
X573438D01*
X573048Y172985D02*
X575578Y175514D01*
X556218Y171715D02*
X563402D01*
X565191Y176033D02*
X568238Y172985D01*
X558006Y176033D02*
X565191D01*
X547562Y180370D02*
X556218Y171715D01*
X563402D02*
X566450Y168667D01*
X551880Y182158D02*
X558006Y176033D01*
X545084Y189654D02*
X547562Y187176D01*
X551880Y182158D02*
Y186545D01*
X547562Y180370D02*
Y187176D01*
X551880Y186545D02*
X554736Y189400D01*
X545084Y189654D02*
Y190754D01*
X554736Y189400D02*
Y190500D01*
M02*
