G04*
G04 #@! TF.GenerationSoftware,Altium Limited,Altium Designer,26.7.1 (11)*
G04*
G04 Layer_Color=65535*
G04 Board_Origin=26900000|31050000*
%FSLAX25Y25*%
%MOIN*%
G70*
G04*
G04 #@! TF.SameCoordinates,58A9D9B9-FFEA-463A-A5FF-2E5BA25C1195*
G04*
G04*
G04 #@! TF.FilePolarity,Positive*
G04*
G01*
G75*
%ADD10C,0.00984*%
%ADD11C,0.00600*%
%ADD12C,0.00787*%
%ADD13C,0.01000*%
%ADD14C,0.02000*%
%ADD15C,0.00300*%
G36*
X116703Y60918D02*
X115203D01*
Y59918D01*
X116703D01*
Y60918D01*
D02*
G37*
G36*
X92918Y74860D02*
X91918D01*
Y73360D01*
X92918D01*
Y74860D01*
D02*
G37*
G36*
X118671Y101082D02*
X117171D01*
Y102082D01*
X118671D01*
Y101082D01*
D02*
G37*
G36*
X134082Y79266D02*
X133082D01*
Y80766D01*
X134082D01*
Y79266D01*
D02*
G37*
G36*
X253750Y47850D02*
X253964D01*
Y47796D01*
X254125D01*
Y47743D01*
X254286D01*
Y47689D01*
X254393D01*
Y47635D01*
X254500D01*
Y47582D01*
X254554D01*
Y47528D01*
X254661D01*
Y47475D01*
X254714D01*
Y47421D01*
X254768D01*
Y47367D01*
X254875D01*
Y47314D01*
X254929D01*
Y47260D01*
X254982D01*
Y47207D01*
X255036D01*
Y47153D01*
X255090D01*
Y47099D01*
X255143D01*
Y47046D01*
X255197D01*
Y46992D01*
X255250D01*
Y46939D01*
X255304D01*
Y46885D01*
X255358D01*
Y46832D01*
X255411D01*
Y46778D01*
X255465D01*
Y46671D01*
X255518D01*
Y46617D01*
X255572D01*
Y46564D01*
X255626D01*
Y46456D01*
X255679D01*
Y46403D01*
X255733D01*
Y46349D01*
X255786D01*
Y46242D01*
X255840D01*
Y46188D01*
X255893D01*
Y46135D01*
X255947D01*
Y46027D01*
X256001D01*
Y45920D01*
X256054D01*
Y45867D01*
X256108D01*
Y45759D01*
X256161D01*
Y45706D01*
X256215D01*
Y45599D01*
X256269D01*
Y45491D01*
X256322D01*
Y45438D01*
X256376D01*
Y45331D01*
X256430D01*
Y45224D01*
X256483D01*
Y45116D01*
X256537D01*
Y45063D01*
X256590D01*
Y44956D01*
X256644D01*
Y44848D01*
X256698D01*
Y44741D01*
X256751D01*
Y44634D01*
X256805D01*
Y44527D01*
X256858D01*
Y44420D01*
X256912D01*
Y44366D01*
X256965D01*
Y44259D01*
X257019D01*
Y44152D01*
X257073D01*
Y44044D01*
X257126D01*
Y43991D01*
X257180D01*
Y43884D01*
X257233D01*
Y43776D01*
X257287D01*
Y43669D01*
X257341D01*
Y43616D01*
X257394D01*
Y43508D01*
X257448D01*
Y43401D01*
X257501D01*
Y43348D01*
X257555D01*
Y43240D01*
X257609D01*
Y43133D01*
X257662D01*
Y43026D01*
X257716D01*
Y42919D01*
X257769D01*
Y42865D01*
X257823D01*
Y42758D01*
X257877D01*
Y42651D01*
X257930D01*
Y42597D01*
X257984D01*
Y42490D01*
X258037D01*
Y42383D01*
X258091D01*
Y42276D01*
X258145D01*
Y42222D01*
X258198D01*
Y42115D01*
X258252D01*
Y42008D01*
X258305D01*
Y41901D01*
X258359D01*
Y41793D01*
X258413D01*
Y41740D01*
X258466D01*
Y41633D01*
X258520D01*
Y41525D01*
X258573D01*
Y41472D01*
X258627D01*
Y41365D01*
X258681D01*
Y41257D01*
X258734D01*
Y41150D01*
X258788D01*
Y41097D01*
X258841D01*
Y40989D01*
X258895D01*
Y40882D01*
X258948D01*
Y40775D01*
X259002D01*
Y40668D01*
X259056D01*
Y40614D01*
X259109D01*
Y40507D01*
X259163D01*
Y40400D01*
X259216D01*
Y40346D01*
X259270D01*
Y40239D01*
X259324D01*
Y40132D01*
X259377D01*
Y40025D01*
X259431D01*
Y39917D01*
X259485D01*
Y39864D01*
X259538D01*
Y39757D01*
X259592D01*
Y39650D01*
X259645D01*
Y39596D01*
X259699D01*
Y39489D01*
X259752D01*
Y39382D01*
X259806D01*
Y39328D01*
X259860D01*
Y39221D01*
X259913D01*
Y39114D01*
X259967D01*
Y39006D01*
X260020D01*
Y38899D01*
X260074D01*
Y38846D01*
X260128D01*
Y38738D01*
X260181D01*
Y38631D01*
X260235D01*
Y38578D01*
X260288D01*
Y38470D01*
X260342D01*
Y38363D01*
X260396D01*
Y38256D01*
X260449D01*
Y38202D01*
X260503D01*
Y38095D01*
X260556D01*
Y37988D01*
X260610D01*
Y37881D01*
X260664D01*
Y37774D01*
X260717D01*
Y37666D01*
X260771D01*
Y37613D01*
X260824D01*
Y37506D01*
X260878D01*
Y37398D01*
X260932D01*
Y37345D01*
X260985D01*
Y37238D01*
X261039D01*
Y37130D01*
X261092D01*
Y37023D01*
X261146D01*
Y36970D01*
X261200D01*
Y36862D01*
X261253D01*
Y36755D01*
X261307D01*
Y36648D01*
X261360D01*
Y36595D01*
X261414D01*
Y36487D01*
X261468D01*
Y36380D01*
X261521D01*
Y36327D01*
X261575D01*
Y36219D01*
X261628D01*
Y36112D01*
X261682D01*
Y36005D01*
X261736D01*
Y35898D01*
X261789D01*
Y35844D01*
X261843D01*
Y35737D01*
X261896D01*
Y35630D01*
X261950D01*
Y35576D01*
X262003D01*
Y35469D01*
X262057D01*
Y35362D01*
X262111D01*
Y35255D01*
X262164D01*
Y35201D01*
X262218D01*
Y35094D01*
X262271D01*
Y34987D01*
X262325D01*
Y34879D01*
X262379D01*
Y34772D01*
X262432D01*
Y34719D01*
X262486D01*
Y34611D01*
X262540D01*
Y34504D01*
X262593D01*
Y34451D01*
X262647D01*
Y34343D01*
X262700D01*
Y34236D01*
X262754D01*
Y34129D01*
X262807D01*
Y34075D01*
X262861D01*
Y33968D01*
X262915D01*
Y33861D01*
X262968D01*
Y33754D01*
X263022D01*
Y33700D01*
X263075D01*
Y33593D01*
X263129D01*
Y33486D01*
X263183D01*
Y33379D01*
X263236D01*
Y33325D01*
X263290D01*
Y33218D01*
X263343D01*
Y33111D01*
X263397D01*
Y33004D01*
X263451D01*
Y32896D01*
X263504D01*
Y32843D01*
X263558D01*
Y32736D01*
X263611D01*
Y32628D01*
X263665D01*
Y32575D01*
X263719D01*
Y32468D01*
X263772D01*
Y32360D01*
X263826D01*
Y32307D01*
X263879D01*
Y32200D01*
X263933D01*
Y32092D01*
X263987D01*
Y31985D01*
X264040D01*
Y31932D01*
X264094D01*
Y31824D01*
X264147D01*
Y31717D01*
X264201D01*
Y31610D01*
X264255D01*
Y31556D01*
X264308D01*
Y31449D01*
X264362D01*
Y31342D01*
X264415D01*
Y31235D01*
X264469D01*
Y31181D01*
X264523D01*
Y31074D01*
X264576D01*
Y30967D01*
X264630D01*
Y30860D01*
X264683D01*
Y30753D01*
X264737D01*
Y30699D01*
X264791D01*
Y30592D01*
X264844D01*
Y30485D01*
X264898D01*
Y30377D01*
X264951D01*
Y30324D01*
X265005D01*
Y30217D01*
X265058D01*
Y30109D01*
X265112D01*
Y30056D01*
X265166D01*
Y29948D01*
X265219D01*
Y29841D01*
X265273D01*
Y29734D01*
X265326D01*
Y29627D01*
X265380D01*
Y29573D01*
X265434D01*
Y29466D01*
X265487D01*
Y29359D01*
X265541D01*
Y29252D01*
X265595D01*
Y29198D01*
X265648D01*
Y29091D01*
X265702D01*
Y28984D01*
X265755D01*
Y28877D01*
X265809D01*
Y28823D01*
X265862D01*
Y28716D01*
X265916D01*
Y28609D01*
X265970D01*
Y28501D01*
X266023D01*
Y28448D01*
X266077D01*
Y28341D01*
X266130D01*
Y28233D01*
X266184D01*
Y28180D01*
X266238D01*
Y28073D01*
X266291D01*
Y27965D01*
X266345D01*
Y27858D01*
X266399D01*
Y27805D01*
X266452D01*
Y27698D01*
X266506D01*
Y27590D01*
X266559D01*
Y27483D01*
X266613D01*
Y27430D01*
X266666D01*
Y27322D01*
X266720D01*
Y27215D01*
X266774D01*
Y27108D01*
X266827D01*
Y27054D01*
X266881D01*
Y26947D01*
X266934D01*
Y26840D01*
X266988D01*
Y26733D01*
X267042D01*
Y26679D01*
X267095D01*
Y26572D01*
X267149D01*
Y26465D01*
X267202D01*
Y26357D01*
X267256D01*
Y26304D01*
X267310D01*
Y26197D01*
X267363D01*
Y26090D01*
X267417D01*
Y25982D01*
X267470D01*
Y25875D01*
X267524D01*
Y25822D01*
X267578D01*
Y25714D01*
X267631D01*
Y25607D01*
X267685D01*
Y25554D01*
X267738D01*
Y25446D01*
X267792D01*
Y25339D01*
X267846D01*
Y25232D01*
X267899D01*
Y25178D01*
X267953D01*
Y25071D01*
X268006D01*
Y24964D01*
X268060D01*
Y24857D01*
X268113D01*
Y24803D01*
X268167D01*
Y24696D01*
X268221D01*
Y24589D01*
X268274D01*
Y24482D01*
X268328D01*
Y24374D01*
X268382D01*
Y24321D01*
X268435D01*
Y24214D01*
X268489D01*
Y24106D01*
X268542D01*
Y24053D01*
X268596D01*
Y23946D01*
X268650D01*
Y23839D01*
X268703D01*
Y23731D01*
X268757D01*
Y23678D01*
X268810D01*
Y23571D01*
X268864D01*
Y23463D01*
X268917D01*
Y23356D01*
X268971D01*
Y23302D01*
X269025D01*
Y23195D01*
X269078D01*
Y23088D01*
X269132D01*
Y22981D01*
X269185D01*
Y22927D01*
X269239D01*
Y22820D01*
X269293D01*
Y22713D01*
X269346D01*
Y22606D01*
X269400D01*
Y22552D01*
X269454D01*
Y22445D01*
X269507D01*
Y22338D01*
X269561D01*
Y22231D01*
X269614D01*
Y22177D01*
X269668D01*
Y22070D01*
X269721D01*
Y21963D01*
X269775D01*
Y21855D01*
X269829D01*
Y21802D01*
X269882D01*
Y21695D01*
X269936D01*
Y21587D01*
X269989D01*
Y21480D01*
X270043D01*
Y21427D01*
X270097D01*
Y21319D01*
X270150D01*
Y21212D01*
X270204D01*
Y21159D01*
X270257D01*
Y21052D01*
X270311D01*
Y20944D01*
X270365D01*
Y20837D01*
X270418D01*
Y20784D01*
X270472D01*
Y20676D01*
X270525D01*
Y20569D01*
X270579D01*
Y20462D01*
X270633D01*
Y20355D01*
X270686D01*
Y20301D01*
X270740D01*
Y20194D01*
X270793D01*
Y20087D01*
X270847D01*
Y20033D01*
X270901D01*
Y19926D01*
X270954D01*
Y19819D01*
X271008D01*
Y19712D01*
X271061D01*
Y19658D01*
X271115D01*
Y19551D01*
X271169D01*
Y19444D01*
X271222D01*
Y19336D01*
X271276D01*
Y19229D01*
X271329D01*
Y19176D01*
X271383D01*
Y19068D01*
X271437D01*
Y18961D01*
X271490D01*
Y18854D01*
X271544D01*
Y18800D01*
X271597D01*
Y18693D01*
X271651D01*
Y18586D01*
X271705D01*
Y18479D01*
X271758D01*
Y18425D01*
X271812D01*
Y18318D01*
X271865D01*
Y18211D01*
X271919D01*
Y18157D01*
X271972D01*
Y18050D01*
X272026D01*
Y17943D01*
X272080D01*
Y17889D01*
X272133D01*
Y17782D01*
X272187D01*
Y17675D01*
X272240D01*
Y17621D01*
X272294D01*
Y17514D01*
X272348D01*
Y17407D01*
X272401D01*
Y17300D01*
X272455D01*
Y17246D01*
X272509D01*
Y17139D01*
X272562D01*
Y17032D01*
X272616D01*
Y16978D01*
X272669D01*
Y16871D01*
X272723D01*
Y16764D01*
X272776D01*
Y16657D01*
X272830D01*
Y16603D01*
X272884D01*
Y16496D01*
X272937D01*
Y16389D01*
X272991D01*
Y16335D01*
X273044D01*
Y16228D01*
X273098D01*
Y16121D01*
X273152D01*
Y16013D01*
X273205D01*
Y15906D01*
X273259D01*
Y15853D01*
X273312D01*
Y15745D01*
X273366D01*
Y15638D01*
X273420D01*
Y15531D01*
X273473D01*
Y15424D01*
X273527D01*
Y15317D01*
X273580D01*
Y15210D01*
X273634D01*
Y15156D01*
X273688D01*
Y15049D01*
X273741D01*
Y14942D01*
X273795D01*
Y14834D01*
X273848D01*
Y14727D01*
X273902D01*
Y14620D01*
X273956D01*
Y14513D01*
X274009D01*
Y14352D01*
X274063D01*
Y14191D01*
X274116D01*
Y14084D01*
X274170D01*
Y13977D01*
X274223D01*
Y13762D01*
X274277D01*
Y13655D01*
X274331D01*
Y13441D01*
X274384D01*
Y12530D01*
X274331D01*
Y12369D01*
X274277D01*
Y12208D01*
X274223D01*
Y12101D01*
X274170D01*
Y11994D01*
X274116D01*
Y11940D01*
X274063D01*
Y11886D01*
X274009D01*
Y11779D01*
X273956D01*
Y11726D01*
X273902D01*
Y11672D01*
X273795D01*
Y11619D01*
X273741D01*
Y11565D01*
X273634D01*
Y11511D01*
X273580D01*
Y11458D01*
X273473D01*
Y11404D01*
X273366D01*
Y11350D01*
X273259D01*
Y11297D01*
X273044D01*
Y11243D01*
X272830D01*
Y11190D01*
X272509D01*
Y11136D01*
X272026D01*
Y11083D01*
X268703D01*
Y11136D01*
X234241D01*
Y11190D01*
X233919D01*
Y11243D01*
X233704D01*
Y11297D01*
X233544D01*
Y11350D01*
X233436D01*
Y11404D01*
X233329D01*
Y11458D01*
X233222D01*
Y11511D01*
X233169D01*
Y11565D01*
X233061D01*
Y11619D01*
X233008D01*
Y11672D01*
X232954D01*
Y11726D01*
X232901D01*
Y11779D01*
X232847D01*
Y11833D01*
X232793D01*
Y11886D01*
X232740D01*
Y11994D01*
X232686D01*
Y12047D01*
X232633D01*
Y12154D01*
X232579D01*
Y12315D01*
X232525D01*
Y12476D01*
X232472D01*
Y13441D01*
X232525D01*
Y13709D01*
X232579D01*
Y13870D01*
X232633D01*
Y14084D01*
X232686D01*
Y14191D01*
X232740D01*
Y14352D01*
X232793D01*
Y14513D01*
X232847D01*
Y14673D01*
X232901D01*
Y14781D01*
X232954D01*
Y14942D01*
X233008D01*
Y15049D01*
X233061D01*
Y15156D01*
X233115D01*
Y15263D01*
X233169D01*
Y15370D01*
X233222D01*
Y15531D01*
X233276D01*
Y15638D01*
X233329D01*
Y15745D01*
X233383D01*
Y15906D01*
X233436D01*
Y16013D01*
X233490D01*
Y16121D01*
X233544D01*
Y16228D01*
X233597D01*
Y16335D01*
X233651D01*
Y16442D01*
X233704D01*
Y16549D01*
X233758D01*
Y16657D01*
X233812D01*
Y16764D01*
X233865D01*
Y16871D01*
X233919D01*
Y16978D01*
X233973D01*
Y17085D01*
X234026D01*
Y17139D01*
X234080D01*
Y17246D01*
X234133D01*
Y17353D01*
X234187D01*
Y17407D01*
X234241D01*
Y17514D01*
X234294D01*
Y17621D01*
X234348D01*
Y17729D01*
X234401D01*
Y17782D01*
X234455D01*
Y17889D01*
X234508D01*
Y17997D01*
X234562D01*
Y18050D01*
X234616D01*
Y18157D01*
X234669D01*
Y18264D01*
X234723D01*
Y18372D01*
X234776D01*
Y18479D01*
X234830D01*
Y18532D01*
X234884D01*
Y18640D01*
X234937D01*
Y18693D01*
X234991D01*
Y18800D01*
X235044D01*
Y18908D01*
X235098D01*
Y19015D01*
X235152D01*
Y19122D01*
X235205D01*
Y19176D01*
X235259D01*
Y19283D01*
X235312D01*
Y19336D01*
X235366D01*
Y19444D01*
X235420D01*
Y19551D01*
X235473D01*
Y19658D01*
X235527D01*
Y19765D01*
X235580D01*
Y19819D01*
X235634D01*
Y19926D01*
X235688D01*
Y20033D01*
X235741D01*
Y20087D01*
X235795D01*
Y20194D01*
X235848D01*
Y20301D01*
X235902D01*
Y20408D01*
X235956D01*
Y20462D01*
X236009D01*
Y20569D01*
X236063D01*
Y20676D01*
X236116D01*
Y20784D01*
X236170D01*
Y20837D01*
X236224D01*
Y20944D01*
X236277D01*
Y21052D01*
X236331D01*
Y21159D01*
X236384D01*
Y21212D01*
X236438D01*
Y21319D01*
X236491D01*
Y21373D01*
X236545D01*
Y21480D01*
X236599D01*
Y21587D01*
X236652D01*
Y21695D01*
X236706D01*
Y21748D01*
X236759D01*
Y21855D01*
X236813D01*
Y21963D01*
X236867D01*
Y22070D01*
X236920D01*
Y22123D01*
X236974D01*
Y22231D01*
X237028D01*
Y22338D01*
X237081D01*
Y22391D01*
X237135D01*
Y22499D01*
X237188D01*
Y22606D01*
X237242D01*
Y22713D01*
X237296D01*
Y22767D01*
X237349D01*
Y22874D01*
X237403D01*
Y22981D01*
X237456D01*
Y23088D01*
X237510D01*
Y23195D01*
X237563D01*
Y23249D01*
X237617D01*
Y23356D01*
X237671D01*
Y23410D01*
X237724D01*
Y23517D01*
X237778D01*
Y23624D01*
X237831D01*
Y23731D01*
X237885D01*
Y23839D01*
X237939D01*
Y23892D01*
X237992D01*
Y23999D01*
X238046D01*
Y24106D01*
X238099D01*
Y24160D01*
X238153D01*
Y24267D01*
X238207D01*
Y24374D01*
X238260D01*
Y24482D01*
X238314D01*
Y24535D01*
X238367D01*
Y24643D01*
X238421D01*
Y24750D01*
X238475D01*
Y24857D01*
X238528D01*
Y24910D01*
X238582D01*
Y25018D01*
X238635D01*
Y25125D01*
X238689D01*
Y25178D01*
X238743D01*
Y25286D01*
X238796D01*
Y25393D01*
X238850D01*
Y25446D01*
X238903D01*
Y25554D01*
X238957D01*
Y25661D01*
X239011D01*
Y25768D01*
X239064D01*
Y25822D01*
X239118D01*
Y25929D01*
X239171D01*
Y26036D01*
X239225D01*
Y26090D01*
X239279D01*
Y26197D01*
X239332D01*
Y26304D01*
X239386D01*
Y26411D01*
X239439D01*
Y26465D01*
X239493D01*
Y26572D01*
X239546D01*
Y26679D01*
X239600D01*
Y26733D01*
X239654D01*
Y26840D01*
X239707D01*
Y26947D01*
X239761D01*
Y27054D01*
X239814D01*
Y27161D01*
X239868D01*
Y27215D01*
X239922D01*
Y27322D01*
X239975D01*
Y27430D01*
X240029D01*
Y27483D01*
X240083D01*
Y27590D01*
X240136D01*
Y27698D01*
X240190D01*
Y27805D01*
X240243D01*
Y27858D01*
X240297D01*
Y27965D01*
X240351D01*
Y28073D01*
X240404D01*
Y28180D01*
X240458D01*
Y28233D01*
X240511D01*
Y28341D01*
X240565D01*
Y28448D01*
X240618D01*
Y28501D01*
X240672D01*
Y28609D01*
X240726D01*
Y28716D01*
X240779D01*
Y28769D01*
X240833D01*
Y28877D01*
X240886D01*
Y28984D01*
X240940D01*
Y29091D01*
X240994D01*
Y29198D01*
X241047D01*
Y29252D01*
X241101D01*
Y29359D01*
X241154D01*
Y29413D01*
X241208D01*
Y29520D01*
X241262D01*
Y29627D01*
X241315D01*
Y29734D01*
X241369D01*
Y29788D01*
X241422D01*
Y29895D01*
X241476D01*
Y30002D01*
X241530D01*
Y30109D01*
X241583D01*
Y30163D01*
X241637D01*
Y30270D01*
X241690D01*
Y30377D01*
X241744D01*
Y30485D01*
X241798D01*
Y30538D01*
X241851D01*
Y30645D01*
X241905D01*
Y30753D01*
X241958D01*
Y30806D01*
X242012D01*
Y30913D01*
X242066D01*
Y31020D01*
X242119D01*
Y31128D01*
X242173D01*
Y31181D01*
X242226D01*
Y31288D01*
X242280D01*
Y31396D01*
X242334D01*
Y31503D01*
X242387D01*
Y31556D01*
X242441D01*
Y31664D01*
X242494D01*
Y31771D01*
X242548D01*
Y31878D01*
X242601D01*
Y31932D01*
X242655D01*
Y32039D01*
X242709D01*
Y32146D01*
X242762D01*
Y32200D01*
X242816D01*
Y32307D01*
X242869D01*
Y32414D01*
X242923D01*
Y32468D01*
X242977D01*
Y32575D01*
X243030D01*
Y32682D01*
X243084D01*
Y32789D01*
X243138D01*
Y32843D01*
X243191D01*
Y32950D01*
X243245D01*
Y33057D01*
X243298D01*
Y33164D01*
X243352D01*
Y33218D01*
X243406D01*
Y33325D01*
X243459D01*
Y33432D01*
X243513D01*
Y33486D01*
X243566D01*
Y33593D01*
X243620D01*
Y33700D01*
X243673D01*
Y33808D01*
X243727D01*
Y33861D01*
X243781D01*
Y33968D01*
X243834D01*
Y34075D01*
X243888D01*
Y34129D01*
X243941D01*
Y34236D01*
X243995D01*
Y34343D01*
X244049D01*
Y34451D01*
X244102D01*
Y34504D01*
X244156D01*
Y34611D01*
X244210D01*
Y34719D01*
X244263D01*
Y34772D01*
X244317D01*
Y34879D01*
X244370D01*
Y34987D01*
X244424D01*
Y35094D01*
X244477D01*
Y35201D01*
X244531D01*
Y35255D01*
X244585D01*
Y35362D01*
X244638D01*
Y35469D01*
X244692D01*
Y35523D01*
X244745D01*
Y35630D01*
X244799D01*
Y35737D01*
X244853D01*
Y35844D01*
X244906D01*
Y35898D01*
X244960D01*
Y36005D01*
X245013D01*
Y36112D01*
X245067D01*
Y36166D01*
X245121D01*
Y36273D01*
X245174D01*
Y36380D01*
X245228D01*
Y36487D01*
X245281D01*
Y36541D01*
X245335D01*
Y36648D01*
X245389D01*
Y36755D01*
X245442D01*
Y36809D01*
X245496D01*
Y36916D01*
X245549D01*
Y37023D01*
X245603D01*
Y37130D01*
X245657D01*
Y37184D01*
X245710D01*
Y37291D01*
X245764D01*
Y37398D01*
X245817D01*
Y37452D01*
X245871D01*
Y37559D01*
X245924D01*
Y37666D01*
X245978D01*
Y37774D01*
X246032D01*
Y37827D01*
X246085D01*
Y37934D01*
X246139D01*
Y38042D01*
X246193D01*
Y38149D01*
X246246D01*
Y38202D01*
X246300D01*
Y38310D01*
X246353D01*
Y38417D01*
X246407D01*
Y38524D01*
X246461D01*
Y38578D01*
X246514D01*
Y38685D01*
X246568D01*
Y38792D01*
X246621D01*
Y38846D01*
X246675D01*
Y38953D01*
X246728D01*
Y39060D01*
X246782D01*
Y39167D01*
X246836D01*
Y39221D01*
X246889D01*
Y39328D01*
X246943D01*
Y39435D01*
X246996D01*
Y39489D01*
X247050D01*
Y39596D01*
X247104D01*
Y39703D01*
X247157D01*
Y39810D01*
X247211D01*
Y39864D01*
X247265D01*
Y39971D01*
X247318D01*
Y40078D01*
X247372D01*
Y40185D01*
X247425D01*
Y40239D01*
X247479D01*
Y40346D01*
X247532D01*
Y40453D01*
X247586D01*
Y40507D01*
X247640D01*
Y40614D01*
X247693D01*
Y40721D01*
X247747D01*
Y40775D01*
X247800D01*
Y40882D01*
X247854D01*
Y40989D01*
X247908D01*
Y41097D01*
X247961D01*
Y41204D01*
X248015D01*
Y41257D01*
X248068D01*
Y41365D01*
X248122D01*
Y41472D01*
X248176D01*
Y41525D01*
X248229D01*
Y41633D01*
X248283D01*
Y41740D01*
X248336D01*
Y41847D01*
X248390D01*
Y41901D01*
X248444D01*
Y42008D01*
X248497D01*
Y42115D01*
X248551D01*
Y42222D01*
X248604D01*
Y42276D01*
X248658D01*
Y42383D01*
X248712D01*
Y42490D01*
X248765D01*
Y42597D01*
X248819D01*
Y42651D01*
X248872D01*
Y42758D01*
X248926D01*
Y42812D01*
X248980D01*
Y42919D01*
X249033D01*
Y43026D01*
X249087D01*
Y43133D01*
X249140D01*
Y43240D01*
X249194D01*
Y43348D01*
X249248D01*
Y43401D01*
X249301D01*
Y43508D01*
X249355D01*
Y43616D01*
X249408D01*
Y43669D01*
X249462D01*
Y43776D01*
X249516D01*
Y43830D01*
X249569D01*
Y43937D01*
X249623D01*
Y44044D01*
X249676D01*
Y44152D01*
X249730D01*
Y44205D01*
X249783D01*
Y44312D01*
X249837D01*
Y44420D01*
X249891D01*
Y44527D01*
X249944D01*
Y44580D01*
X249998D01*
Y44688D01*
X250051D01*
Y44795D01*
X250105D01*
Y44902D01*
X250159D01*
Y44956D01*
X250212D01*
Y45063D01*
X250266D01*
Y45170D01*
X250320D01*
Y45277D01*
X250373D01*
Y45331D01*
X250427D01*
Y45438D01*
X250480D01*
Y45491D01*
X250534D01*
Y45599D01*
X250587D01*
Y45652D01*
X250641D01*
Y45759D01*
X250695D01*
Y45867D01*
X250748D01*
Y45920D01*
X250802D01*
Y46027D01*
X250855D01*
Y46081D01*
X250909D01*
Y46188D01*
X250963D01*
Y46242D01*
X251016D01*
Y46349D01*
X251070D01*
Y46403D01*
X251123D01*
Y46456D01*
X251177D01*
Y46564D01*
X251231D01*
Y46617D01*
X251284D01*
Y46671D01*
X251338D01*
Y46724D01*
X251391D01*
Y46778D01*
X251445D01*
Y46832D01*
X251499D01*
Y46939D01*
X251552D01*
Y46992D01*
X251606D01*
Y47046D01*
X251659D01*
Y47099D01*
X251713D01*
Y47153D01*
X251767D01*
Y47207D01*
X251874D01*
Y47260D01*
X251927D01*
Y47314D01*
X251981D01*
Y47367D01*
X252034D01*
Y47421D01*
X252142D01*
Y47475D01*
X252195D01*
Y47528D01*
X252249D01*
Y47582D01*
X252356D01*
Y47635D01*
X252463D01*
Y47689D01*
X252571D01*
Y47743D01*
X252678D01*
Y47796D01*
X252838D01*
Y47850D01*
X253106D01*
Y47903D01*
X253750D01*
Y47850D01*
D02*
G37*
%LPC*%
G36*
X253482Y45920D02*
X253321D01*
Y45867D01*
X253267D01*
Y45813D01*
X253214D01*
Y45759D01*
X253160D01*
Y45706D01*
X253106D01*
Y45652D01*
X252999D01*
Y45545D01*
X252946D01*
Y45491D01*
X252892D01*
Y45438D01*
X252838D01*
Y45384D01*
X252785D01*
Y45331D01*
X252731D01*
Y45224D01*
X252678D01*
Y45170D01*
X252624D01*
Y45116D01*
X252571D01*
Y45009D01*
X252517D01*
Y44956D01*
X252463D01*
Y44848D01*
X252410D01*
Y44795D01*
X252356D01*
Y44688D01*
X252303D01*
Y44634D01*
X252249D01*
Y44527D01*
X252195D01*
Y44473D01*
X252142D01*
Y44366D01*
X252088D01*
Y44259D01*
X252034D01*
Y44205D01*
X251981D01*
Y44098D01*
X251927D01*
Y43991D01*
X251874D01*
Y43884D01*
X251820D01*
Y43830D01*
X251767D01*
Y43723D01*
X251713D01*
Y43616D01*
X251659D01*
Y43508D01*
X251606D01*
Y43455D01*
X251552D01*
Y43348D01*
X251499D01*
Y43240D01*
X251445D01*
Y43133D01*
X251391D01*
Y43026D01*
X251338D01*
Y42972D01*
X251284D01*
Y42865D01*
X251231D01*
Y42758D01*
X251177D01*
Y42704D01*
X251123D01*
Y42597D01*
X251070D01*
Y42490D01*
X251016D01*
Y42383D01*
X250963D01*
Y42329D01*
X250909D01*
Y42222D01*
X250855D01*
Y42115D01*
X250802D01*
Y42061D01*
X250748D01*
Y41954D01*
X250695D01*
Y41847D01*
X250641D01*
Y41740D01*
X250587D01*
Y41686D01*
X250534D01*
Y41579D01*
X250480D01*
Y41525D01*
X250427D01*
Y41365D01*
X250373D01*
Y41311D01*
X250320D01*
Y41204D01*
X250266D01*
Y41097D01*
X250212D01*
Y40989D01*
X250159D01*
Y40936D01*
X250105D01*
Y40829D01*
X250051D01*
Y40775D01*
X249998D01*
Y40668D01*
X249944D01*
Y40561D01*
X249891D01*
Y40453D01*
X249837D01*
Y40400D01*
X249783D01*
Y40293D01*
X249730D01*
Y40185D01*
X249676D01*
Y40132D01*
X249623D01*
Y40025D01*
X249569D01*
Y39917D01*
X249516D01*
Y39810D01*
X249462D01*
Y39703D01*
X249408D01*
Y39650D01*
X249355D01*
Y39542D01*
X249301D01*
Y39489D01*
X249248D01*
Y39382D01*
X249194D01*
Y39274D01*
X249140D01*
Y39167D01*
X249087D01*
Y39060D01*
X249033D01*
Y39006D01*
X248980D01*
Y38899D01*
X248926D01*
Y38792D01*
X248872D01*
Y38738D01*
X248819D01*
Y38631D01*
X248765D01*
Y38524D01*
X248712D01*
Y38417D01*
X248658D01*
Y38310D01*
X248604D01*
Y38256D01*
X248551D01*
Y38149D01*
X248497D01*
Y38095D01*
X248444D01*
Y37988D01*
X248390D01*
Y37881D01*
X248336D01*
Y37774D01*
X248283D01*
Y37666D01*
X248229D01*
Y37613D01*
X248176D01*
Y37506D01*
X248122D01*
Y37398D01*
X248068D01*
Y37345D01*
X248015D01*
Y37238D01*
X247961D01*
Y37130D01*
X247908D01*
Y37077D01*
X247854D01*
Y36970D01*
X247800D01*
Y36862D01*
X247747D01*
Y36755D01*
X247693D01*
Y36702D01*
X247640D01*
Y36595D01*
X247586D01*
Y36487D01*
X247532D01*
Y36380D01*
X247479D01*
Y36327D01*
X247425D01*
Y36219D01*
X247372D01*
Y36112D01*
X247318D01*
Y36059D01*
X247265D01*
Y35951D01*
X247211D01*
Y35844D01*
X247157D01*
Y35737D01*
X247104D01*
Y35683D01*
X247050D01*
Y35576D01*
X246996D01*
Y35469D01*
X246943D01*
Y35362D01*
X246889D01*
Y35308D01*
X246836D01*
Y35201D01*
X246782D01*
Y35094D01*
X246728D01*
Y35040D01*
X246675D01*
Y34933D01*
X246621D01*
Y34826D01*
X246568D01*
Y34772D01*
X246514D01*
Y34665D01*
X246461D01*
Y34558D01*
X246407D01*
Y34451D01*
X246353D01*
Y34343D01*
X246300D01*
Y34290D01*
X246246D01*
Y34183D01*
X246193D01*
Y34075D01*
X246139D01*
Y34022D01*
X246085D01*
Y33915D01*
X246032D01*
Y33808D01*
X245978D01*
Y33754D01*
X245924D01*
Y33647D01*
X245871D01*
Y33540D01*
X245817D01*
Y33486D01*
X245764D01*
Y33379D01*
X245710D01*
Y33272D01*
X245657D01*
Y33164D01*
X245603D01*
Y33057D01*
X245549D01*
Y33004D01*
X245496D01*
Y32896D01*
X245442D01*
Y32789D01*
X245389D01*
Y32736D01*
X245335D01*
Y32628D01*
X245281D01*
Y32521D01*
X245228D01*
Y32414D01*
X245174D01*
Y32360D01*
X245121D01*
Y32253D01*
X245067D01*
Y32146D01*
X245013D01*
Y32039D01*
X244960D01*
Y31985D01*
X244906D01*
Y31878D01*
X244853D01*
Y31771D01*
X244799D01*
Y31664D01*
X244745D01*
Y31610D01*
X244692D01*
Y31503D01*
X244638D01*
Y31396D01*
X244585D01*
Y31342D01*
X244531D01*
Y31235D01*
X244477D01*
Y31128D01*
X244424D01*
Y31020D01*
X244370D01*
Y30967D01*
X244317D01*
Y30860D01*
X244263D01*
Y30753D01*
X244210D01*
Y30699D01*
X244156D01*
Y30592D01*
X244102D01*
Y30485D01*
X244049D01*
Y30377D01*
X243995D01*
Y30324D01*
X243941D01*
Y30217D01*
X243888D01*
Y30109D01*
X243834D01*
Y30056D01*
X243781D01*
Y29948D01*
X243727D01*
Y29841D01*
X243673D01*
Y29734D01*
X243620D01*
Y29680D01*
X243566D01*
Y29573D01*
X243513D01*
Y29466D01*
X243459D01*
Y29413D01*
X243406D01*
Y29305D01*
X243352D01*
Y29198D01*
X243298D01*
Y29091D01*
X243245D01*
Y29037D01*
X243191D01*
Y28930D01*
X243138D01*
Y28823D01*
X243084D01*
Y28769D01*
X243030D01*
Y28662D01*
X242977D01*
Y28555D01*
X242923D01*
Y28448D01*
X242869D01*
Y28341D01*
X242816D01*
Y28287D01*
X242762D01*
Y28180D01*
X242709D01*
Y28073D01*
X242655D01*
Y28019D01*
X242601D01*
Y27912D01*
X242548D01*
Y27805D01*
X242494D01*
Y27698D01*
X242441D01*
Y27644D01*
X242387D01*
Y27537D01*
X242334D01*
Y27430D01*
X242280D01*
Y27376D01*
X242226D01*
Y27269D01*
X242173D01*
Y27161D01*
X242119D01*
Y27054D01*
X242066D01*
Y27001D01*
X242012D01*
Y26893D01*
X241958D01*
Y26786D01*
X241905D01*
Y26733D01*
X241851D01*
Y26625D01*
X241798D01*
Y26518D01*
X241744D01*
Y26411D01*
X241690D01*
Y26357D01*
X241637D01*
Y26250D01*
X241583D01*
Y26143D01*
X241530D01*
Y26036D01*
X241476D01*
Y25982D01*
X241422D01*
Y25875D01*
X241369D01*
Y25768D01*
X241315D01*
Y25661D01*
X241262D01*
Y25607D01*
X241208D01*
Y25500D01*
X241154D01*
Y25393D01*
X241101D01*
Y25339D01*
X241047D01*
Y25232D01*
X240994D01*
Y25125D01*
X240940D01*
Y25018D01*
X240886D01*
Y24964D01*
X240833D01*
Y24857D01*
X240779D01*
Y24750D01*
X240726D01*
Y24643D01*
X240672D01*
Y24589D01*
X240618D01*
Y24482D01*
X240565D01*
Y24374D01*
X240511D01*
Y24267D01*
X240458D01*
Y24214D01*
X240404D01*
Y24106D01*
X240351D01*
Y24053D01*
X240297D01*
Y23946D01*
X240243D01*
Y23839D01*
X240190D01*
Y23731D01*
X240136D01*
Y23624D01*
X240083D01*
Y23571D01*
X240029D01*
Y23463D01*
X239975D01*
Y23356D01*
X239922D01*
Y23302D01*
X239868D01*
Y23195D01*
X239814D01*
Y23088D01*
X239761D01*
Y23035D01*
X239707D01*
Y22927D01*
X239654D01*
Y22820D01*
X239600D01*
Y22767D01*
X239546D01*
Y22659D01*
X239493D01*
Y22552D01*
X239439D01*
Y22445D01*
X239386D01*
Y22391D01*
X239332D01*
Y22284D01*
X239279D01*
Y22177D01*
X239225D01*
Y22070D01*
X239171D01*
Y22016D01*
X239118D01*
Y21909D01*
X239064D01*
Y21802D01*
X239011D01*
Y21695D01*
X238957D01*
Y21641D01*
X238903D01*
Y21534D01*
X238850D01*
Y21427D01*
X238796D01*
Y21319D01*
X238743D01*
Y21266D01*
X238689D01*
Y21159D01*
X238635D01*
Y21052D01*
X238582D01*
Y20944D01*
X238528D01*
Y20891D01*
X238475D01*
Y20784D01*
X238421D01*
Y20676D01*
X238367D01*
Y20623D01*
X238314D01*
Y20516D01*
X238260D01*
Y20408D01*
X238207D01*
Y20355D01*
X238153D01*
Y20247D01*
X238099D01*
Y20140D01*
X238046D01*
Y20087D01*
X237992D01*
Y19980D01*
X237939D01*
Y19872D01*
X237885D01*
Y19765D01*
X237831D01*
Y19658D01*
X237778D01*
Y19604D01*
X237724D01*
Y19497D01*
X237671D01*
Y19390D01*
X237617D01*
Y19336D01*
X237563D01*
Y19229D01*
X237510D01*
Y19122D01*
X237456D01*
Y19015D01*
X237403D01*
Y18961D01*
X237349D01*
Y18854D01*
X237296D01*
Y18747D01*
X237242D01*
Y18693D01*
X237188D01*
Y18586D01*
X237135D01*
Y18479D01*
X237081D01*
Y18372D01*
X237028D01*
Y18318D01*
X236974D01*
Y18211D01*
X236920D01*
Y18104D01*
X236867D01*
Y18050D01*
X236813D01*
Y17943D01*
X236759D01*
Y17836D01*
X236706D01*
Y17729D01*
X236652D01*
Y17621D01*
X236599D01*
Y17568D01*
X236545D01*
Y17460D01*
X236491D01*
Y17353D01*
X236438D01*
Y17300D01*
X236384D01*
Y17192D01*
X236331D01*
Y17085D01*
X236277D01*
Y16978D01*
X236224D01*
Y16925D01*
X236170D01*
Y16817D01*
X236116D01*
Y16710D01*
X236063D01*
Y16657D01*
X236009D01*
Y16549D01*
X235956D01*
Y16442D01*
X235902D01*
Y16335D01*
X235848D01*
Y16228D01*
X235795D01*
Y16174D01*
X235741D01*
Y16067D01*
X235688D01*
Y15960D01*
X235634D01*
Y15906D01*
X235580D01*
Y15745D01*
X235527D01*
Y15638D01*
X235473D01*
Y15585D01*
X235420D01*
Y15477D01*
X235366D01*
Y15317D01*
X235312D01*
Y15210D01*
X235259D01*
Y15102D01*
X235205D01*
Y14995D01*
X235152D01*
Y14888D01*
X235098D01*
Y14781D01*
X235044D01*
Y14620D01*
X234991D01*
Y14513D01*
X234937D01*
Y14405D01*
X234884D01*
Y14298D01*
X234830D01*
Y14191D01*
X234776D01*
Y14030D01*
X234723D01*
Y13870D01*
X234669D01*
Y13762D01*
X234616D01*
Y13602D01*
X234562D01*
Y13441D01*
X234508D01*
Y13280D01*
X234455D01*
Y13119D01*
X234991D01*
Y13066D01*
X236277D01*
Y13119D01*
X268006D01*
Y13066D01*
X272026D01*
Y13119D01*
X272348D01*
Y13334D01*
X272294D01*
Y13494D01*
X272240D01*
Y13602D01*
X272187D01*
Y13709D01*
X272133D01*
Y13816D01*
X272080D01*
Y13923D01*
X272026D01*
Y14030D01*
X271972D01*
Y14138D01*
X271919D01*
Y14245D01*
X271865D01*
Y14352D01*
X271812D01*
Y14459D01*
X271758D01*
Y14566D01*
X271705D01*
Y14673D01*
X271651D01*
Y14727D01*
X271597D01*
Y14834D01*
X271544D01*
Y14942D01*
X271490D01*
Y15049D01*
X271437D01*
Y15156D01*
X271383D01*
Y15210D01*
X271329D01*
Y15317D01*
X271276D01*
Y15424D01*
X271222D01*
Y15531D01*
X271169D01*
Y15585D01*
X271115D01*
Y15692D01*
X271061D01*
Y15799D01*
X271008D01*
Y15906D01*
X270954D01*
Y15960D01*
X270901D01*
Y16067D01*
X270847D01*
Y16121D01*
X270793D01*
Y16228D01*
X270740D01*
Y16335D01*
X270686D01*
Y16442D01*
X270633D01*
Y16496D01*
X270579D01*
Y16549D01*
Y16603D01*
X270525D01*
Y16710D01*
X270472D01*
Y16764D01*
X270418D01*
Y16871D01*
X270365D01*
Y16978D01*
X270311D01*
Y17085D01*
X270257D01*
Y17192D01*
X270204D01*
Y17246D01*
X270150D01*
Y17353D01*
X270097D01*
Y17407D01*
X270043D01*
Y17514D01*
X269989D01*
Y17621D01*
X269936D01*
Y17729D01*
X269882D01*
Y17782D01*
X269829D01*
Y17889D01*
X269775D01*
Y17997D01*
X269721D01*
Y18104D01*
X269668D01*
Y18157D01*
X269614D01*
Y18264D01*
X269561D01*
Y18372D01*
X269507D01*
Y18479D01*
X269454D01*
Y18532D01*
X269400D01*
Y18640D01*
X269346D01*
Y18747D01*
X269293D01*
Y18854D01*
X269239D01*
Y18961D01*
X269185D01*
Y19015D01*
X269132D01*
Y19122D01*
X269078D01*
Y19229D01*
X269025D01*
Y19336D01*
X268971D01*
Y19390D01*
X268917D01*
Y19497D01*
X268864D01*
Y19604D01*
X268810D01*
Y19658D01*
X268757D01*
Y19765D01*
X268703D01*
Y19872D01*
X268650D01*
Y19980D01*
X268596D01*
Y20033D01*
X268542D01*
Y20140D01*
X268489D01*
Y20247D01*
X268435D01*
Y20355D01*
X268382D01*
Y20408D01*
X268328D01*
Y20516D01*
X268274D01*
Y20623D01*
X268221D01*
Y20730D01*
X268167D01*
Y20784D01*
X268113D01*
Y20891D01*
X268060D01*
Y20998D01*
X268006D01*
Y21105D01*
X267953D01*
Y21159D01*
X267899D01*
Y21266D01*
X267846D01*
Y21373D01*
X267792D01*
Y21480D01*
X267738D01*
Y21534D01*
X267685D01*
Y21641D01*
X267631D01*
Y21748D01*
X267578D01*
Y21855D01*
X267524D01*
Y21909D01*
X267470D01*
Y22016D01*
X267417D01*
Y22123D01*
X267363D01*
Y22231D01*
X267310D01*
Y22284D01*
X267256D01*
Y22391D01*
X267202D01*
Y22499D01*
X267149D01*
Y22606D01*
X267095D01*
Y22659D01*
X267042D01*
Y22767D01*
X266988D01*
Y22874D01*
X266934D01*
Y22981D01*
X266881D01*
Y23035D01*
X266827D01*
Y23142D01*
X266774D01*
Y23249D01*
X266720D01*
Y23356D01*
X266666D01*
Y23410D01*
X266613D01*
Y23517D01*
X266559D01*
Y23624D01*
X266506D01*
Y23731D01*
X266452D01*
Y23785D01*
X266399D01*
Y23892D01*
X266345D01*
Y23999D01*
X266291D01*
Y24053D01*
X266238D01*
Y24160D01*
X266184D01*
Y24267D01*
X266130D01*
Y24374D01*
X266077D01*
Y24482D01*
X266023D01*
Y24535D01*
X265970D01*
Y24643D01*
X265916D01*
Y24750D01*
X265862D01*
Y24803D01*
X265809D01*
Y24910D01*
X265755D01*
Y25018D01*
X265702D01*
Y25125D01*
X265648D01*
Y25232D01*
X265595D01*
Y25286D01*
X265541D01*
Y25393D01*
X265487D01*
Y25500D01*
X265434D01*
Y25607D01*
X265380D01*
Y25661D01*
X265326D01*
Y25768D01*
X265273D01*
Y25875D01*
X265219D01*
Y25929D01*
X265166D01*
Y26036D01*
X265112D01*
Y26143D01*
X265058D01*
Y26250D01*
X265005D01*
Y26357D01*
X264951D01*
Y26411D01*
X264898D01*
Y26518D01*
X264844D01*
Y26625D01*
X264791D01*
Y26679D01*
X264737D01*
Y26786D01*
X264683D01*
Y26893D01*
X264630D01*
Y27001D01*
X264576D01*
Y27054D01*
X264523D01*
Y27161D01*
X264469D01*
Y27269D01*
X264415D01*
Y27376D01*
X264362D01*
Y27483D01*
X264308D01*
Y27537D01*
X264255D01*
Y27644D01*
X264201D01*
Y27698D01*
X264147D01*
Y27805D01*
X264094D01*
Y27912D01*
X264040D01*
Y28019D01*
X263987D01*
Y28126D01*
X263933D01*
Y28180D01*
X263879D01*
Y28287D01*
X263826D01*
Y28394D01*
X263772D01*
Y28501D01*
X263719D01*
Y28555D01*
X263665D01*
Y28662D01*
X263611D01*
Y28769D01*
X263558D01*
Y28877D01*
X263504D01*
Y28930D01*
X263451D01*
Y29037D01*
X263397D01*
Y29145D01*
X263343D01*
Y29198D01*
X263290D01*
Y29359D01*
X263236D01*
Y29413D01*
X263183D01*
Y29520D01*
X263129D01*
Y29627D01*
X263075D01*
Y29680D01*
X263022D01*
Y29788D01*
X262968D01*
Y29895D01*
X262915D01*
Y29948D01*
X262861D01*
Y30056D01*
X262807D01*
Y30163D01*
X262754D01*
Y30270D01*
X262700D01*
Y30377D01*
X262647D01*
Y30431D01*
X262593D01*
Y30538D01*
X262540D01*
Y30645D01*
X262486D01*
Y30699D01*
X262432D01*
Y30806D01*
X262379D01*
Y30913D01*
X262325D01*
Y31020D01*
X262271D01*
Y31128D01*
X262218D01*
Y31181D01*
X262164D01*
Y31288D01*
X262111D01*
Y31396D01*
X262057D01*
Y31449D01*
X262003D01*
Y31556D01*
X261950D01*
Y31664D01*
X261896D01*
Y31771D01*
X261843D01*
Y31878D01*
X261789D01*
Y31932D01*
X261736D01*
Y32039D01*
X261682D01*
Y32146D01*
X261628D01*
Y32200D01*
X261575D01*
Y32307D01*
X261521D01*
Y32414D01*
X261468D01*
Y32521D01*
X261414D01*
Y32628D01*
X261360D01*
Y32682D01*
X261307D01*
Y32789D01*
X261253D01*
Y32896D01*
X261200D01*
Y32950D01*
X261146D01*
Y33057D01*
X261092D01*
Y33164D01*
X261039D01*
Y33272D01*
X260985D01*
Y33379D01*
X260932D01*
Y33432D01*
X260878D01*
Y33540D01*
X260824D01*
Y33647D01*
X260771D01*
Y33700D01*
X260717D01*
Y33808D01*
X260664D01*
Y33915D01*
X260610D01*
Y34022D01*
X260556D01*
Y34075D01*
X260503D01*
Y34183D01*
X260449D01*
Y34290D01*
X260396D01*
Y34343D01*
X260342D01*
Y34451D01*
X260288D01*
Y34558D01*
X260235D01*
Y34665D01*
X260181D01*
Y34772D01*
X260128D01*
Y34826D01*
X260074D01*
Y34933D01*
X260020D01*
Y35040D01*
X259967D01*
Y35094D01*
X259913D01*
Y35201D01*
X259860D01*
Y35308D01*
X259806D01*
Y35415D01*
X259752D01*
Y35523D01*
X259699D01*
Y35630D01*
X259645D01*
Y35683D01*
X259592D01*
Y35791D01*
X259538D01*
Y35844D01*
X259485D01*
Y35951D01*
X259431D01*
Y36059D01*
X259377D01*
Y36166D01*
X259324D01*
Y36273D01*
X259270D01*
Y36327D01*
X259216D01*
Y36434D01*
X259163D01*
Y36541D01*
X259109D01*
Y36595D01*
X259056D01*
Y36702D01*
X259002D01*
Y36809D01*
X258948D01*
Y36916D01*
X258895D01*
Y37023D01*
X258841D01*
Y37077D01*
X258788D01*
Y37184D01*
X258734D01*
Y37291D01*
X258681D01*
Y37345D01*
X258627D01*
Y37452D01*
X258573D01*
Y37559D01*
X258520D01*
Y37666D01*
X258466D01*
Y37774D01*
X258413D01*
Y37827D01*
X258359D01*
Y37934D01*
X258305D01*
Y38042D01*
X258252D01*
Y38095D01*
X258198D01*
Y38202D01*
X258145D01*
Y38310D01*
X258091D01*
Y38417D01*
X258037D01*
Y38524D01*
X257984D01*
Y38578D01*
X257930D01*
Y38685D01*
X257877D01*
Y38792D01*
X257823D01*
Y38846D01*
X257769D01*
Y38953D01*
X257716D01*
Y39060D01*
X257662D01*
Y39167D01*
X257609D01*
Y39221D01*
X257555D01*
Y39328D01*
X257501D01*
Y39435D01*
X257448D01*
Y39542D01*
X257394D01*
Y39596D01*
X257341D01*
Y39703D01*
X257287D01*
Y39810D01*
X257233D01*
Y39917D01*
X257180D01*
Y40025D01*
X257126D01*
Y40078D01*
X257073D01*
Y40185D01*
X257019D01*
Y40293D01*
X256965D01*
Y40346D01*
X256912D01*
Y40453D01*
X256858D01*
Y40561D01*
X256805D01*
Y40668D01*
X256751D01*
Y40775D01*
X256698D01*
Y40829D01*
X256644D01*
Y40936D01*
X256590D01*
Y41043D01*
X256537D01*
Y41097D01*
X256483D01*
Y41204D01*
X256430D01*
Y41311D01*
X256376D01*
Y41418D01*
X256322D01*
Y41472D01*
X256269D01*
Y41579D01*
X256215D01*
Y41686D01*
X256161D01*
Y41793D01*
X256108D01*
Y41847D01*
X256054D01*
Y41954D01*
X256001D01*
Y42061D01*
X255947D01*
Y42169D01*
X255893D01*
Y42222D01*
X255840D01*
Y42329D01*
X255786D01*
Y42437D01*
X255733D01*
Y42544D01*
X255679D01*
Y42597D01*
X255626D01*
Y42704D01*
X255572D01*
Y42812D01*
X255518D01*
Y42919D01*
X255465D01*
Y42972D01*
X255411D01*
Y43080D01*
X255358D01*
Y43187D01*
X255304D01*
Y43240D01*
X255250D01*
Y43348D01*
X255197D01*
Y43455D01*
X255143D01*
Y43562D01*
X255090D01*
Y43669D01*
X255036D01*
Y43776D01*
X254982D01*
Y43884D01*
X254929D01*
Y43937D01*
X254875D01*
Y44044D01*
X254822D01*
Y44152D01*
X254768D01*
Y44259D01*
X254714D01*
Y44366D01*
X254661D01*
Y44420D01*
X254607D01*
Y44527D01*
X254554D01*
Y44634D01*
X254500D01*
Y44688D01*
X254446D01*
Y44795D01*
X254393D01*
Y44848D01*
X254339D01*
Y44956D01*
X254286D01*
Y45063D01*
X254232D01*
Y45116D01*
X254178D01*
Y45170D01*
X254125D01*
Y45277D01*
X254071D01*
Y45331D01*
X254018D01*
Y45384D01*
X253964D01*
Y45438D01*
X253910D01*
Y45545D01*
X253857D01*
Y45599D01*
X253803D01*
Y45652D01*
X253750D01*
Y45706D01*
X253696D01*
Y45759D01*
X253643D01*
Y45813D01*
X253535D01*
Y45867D01*
X253482D01*
Y45920D01*
D02*
G37*
%LPD*%
G36*
X254446Y37452D02*
X254393D01*
Y37238D01*
X254339D01*
Y37077D01*
X254286D01*
Y36916D01*
X254232D01*
Y36648D01*
X254178D01*
Y36487D01*
X254125D01*
Y36327D01*
X254071D01*
Y36166D01*
X254018D01*
Y35951D01*
X253964D01*
Y35737D01*
X253910D01*
Y35576D01*
X253857D01*
Y35362D01*
X253803D01*
Y35201D01*
X253750D01*
Y34987D01*
X253696D01*
Y34826D01*
X253643D01*
Y34611D01*
X253589D01*
Y34451D01*
X253535D01*
Y34290D01*
X253482D01*
Y34075D01*
X253428D01*
Y33915D01*
X253375D01*
Y33700D01*
X253321D01*
Y33540D01*
X253267D01*
Y33325D01*
X253214D01*
Y33164D01*
X253160D01*
Y32950D01*
X253106D01*
Y32789D01*
X253053D01*
Y32628D01*
X252999D01*
Y32414D01*
X252946D01*
Y32253D01*
X252892D01*
Y32039D01*
X252838D01*
Y31878D01*
X252785D01*
Y31664D01*
X252731D01*
Y31503D01*
X252678D01*
Y31342D01*
X252624D01*
Y31128D01*
X252571D01*
Y30913D01*
X252517D01*
Y30753D01*
X252463D01*
Y30592D01*
X252410D01*
Y30377D01*
X252356D01*
Y30217D01*
X252303D01*
Y30056D01*
X252249D01*
Y29841D01*
X252195D01*
Y29627D01*
X252142D01*
Y29466D01*
X252088D01*
Y29252D01*
X252034D01*
Y29091D01*
X251981D01*
Y28877D01*
X251927D01*
Y28716D01*
X251874D01*
Y28501D01*
X251820D01*
Y28341D01*
X251767D01*
Y28180D01*
X251713D01*
Y27965D01*
X251659D01*
Y27805D01*
X251606D01*
Y27644D01*
X251713D01*
Y27698D01*
X251874D01*
Y27751D01*
X252088D01*
Y27805D01*
X252249D01*
Y27858D01*
X252463D01*
Y27912D01*
X252624D01*
Y27965D01*
X252838D01*
Y28019D01*
X252999D01*
Y28073D01*
X253214D01*
Y28126D01*
X253375D01*
Y28180D01*
X253589D01*
Y28233D01*
X253750D01*
Y28287D01*
X253964D01*
Y28341D01*
X254125D01*
Y28394D01*
X254286D01*
Y28448D01*
X254500D01*
Y28501D01*
X254714D01*
Y28555D01*
X254875D01*
Y28609D01*
X255036D01*
Y28662D01*
X255250D01*
Y28716D01*
X255411D01*
Y28769D01*
X255626D01*
Y28823D01*
X255786D01*
Y28877D01*
X256001D01*
Y28930D01*
X256161D01*
Y28984D01*
X256376D01*
Y29037D01*
X256537D01*
Y29091D01*
X256751D01*
Y29145D01*
X256912D01*
Y29198D01*
X257126D01*
Y29252D01*
X257287D01*
Y29305D01*
X257501D01*
Y29359D01*
X257609D01*
Y29198D01*
X257555D01*
Y28984D01*
X257501D01*
Y28769D01*
X257448D01*
Y28501D01*
X257394D01*
Y28287D01*
X257341D01*
Y28073D01*
X257287D01*
Y27805D01*
X257233D01*
Y27590D01*
X257180D01*
Y27376D01*
X257126D01*
Y27108D01*
X257073D01*
Y26893D01*
X257019D01*
Y26625D01*
X256965D01*
Y26465D01*
X256912D01*
Y26197D01*
X256858D01*
Y25982D01*
X256805D01*
Y25768D01*
X256751D01*
Y25554D01*
X256698D01*
Y25339D01*
X256644D01*
Y25071D01*
X256590D01*
Y24910D01*
X256537D01*
Y24643D01*
X256483D01*
Y24374D01*
X256430D01*
Y24160D01*
X256376D01*
Y23946D01*
X256322D01*
Y23678D01*
X256269D01*
Y23463D01*
X256215D01*
Y23249D01*
X256161D01*
Y22981D01*
X256108D01*
Y22767D01*
X256054D01*
Y22552D01*
X256001D01*
Y22338D01*
X255947D01*
Y22070D01*
X255893D01*
Y21909D01*
X255840D01*
Y21641D01*
X255786D01*
Y21427D01*
X255733D01*
Y21159D01*
X255679D01*
Y20944D01*
X255626D01*
Y20730D01*
X255572D01*
Y20516D01*
X255518D01*
Y20247D01*
X255465D01*
Y20033D01*
X255411D01*
Y19765D01*
X255358D01*
Y19551D01*
X255304D01*
Y19336D01*
X255250D01*
Y19122D01*
X255197D01*
Y18908D01*
X255143D01*
Y18800D01*
X255197D01*
Y18854D01*
X255465D01*
Y18908D01*
X255679D01*
Y18961D01*
X255893D01*
Y19015D01*
X256108D01*
Y19068D01*
X256322D01*
Y19122D01*
X256537D01*
Y19176D01*
X256751D01*
Y19229D01*
X257019D01*
Y19176D01*
X256965D01*
Y19068D01*
X256912D01*
Y19015D01*
X256858D01*
Y18961D01*
X256805D01*
Y18908D01*
X256751D01*
Y18854D01*
X256698D01*
Y18747D01*
X256644D01*
Y18693D01*
X256590D01*
Y18640D01*
X256537D01*
Y18586D01*
X256483D01*
Y18532D01*
X256430D01*
Y18425D01*
X256376D01*
Y18372D01*
X256322D01*
Y18318D01*
X256269D01*
Y18264D01*
X256215D01*
Y18157D01*
X256161D01*
Y18104D01*
X256108D01*
Y18050D01*
X256054D01*
Y17997D01*
X256001D01*
Y17943D01*
X255947D01*
Y17836D01*
X255893D01*
Y17782D01*
X255840D01*
Y17729D01*
X255786D01*
Y17675D01*
X255733D01*
Y17621D01*
X255679D01*
Y17514D01*
X255626D01*
Y17460D01*
X255572D01*
Y17407D01*
X255518D01*
Y17353D01*
X255465D01*
Y17300D01*
X255411D01*
Y17192D01*
X255358D01*
Y17139D01*
X255304D01*
Y17085D01*
X255250D01*
Y17032D01*
X255197D01*
Y16978D01*
X255143D01*
Y16871D01*
X255090D01*
Y16817D01*
X255036D01*
Y16764D01*
X254982D01*
Y16710D01*
X254929D01*
Y16657D01*
X254875D01*
Y16549D01*
X254822D01*
Y16496D01*
X254768D01*
Y16442D01*
X254714D01*
Y16389D01*
X254661D01*
Y16335D01*
X254607D01*
Y16228D01*
X254554D01*
Y16174D01*
X254500D01*
Y16121D01*
X254446D01*
Y16067D01*
X254393D01*
Y15960D01*
X254339D01*
Y15906D01*
X254286D01*
Y15853D01*
X254232D01*
Y15799D01*
X254178D01*
Y15692D01*
X254125D01*
Y15638D01*
X254071D01*
Y15585D01*
X254018D01*
Y15531D01*
X253964D01*
Y15477D01*
X253910D01*
Y15424D01*
X253857D01*
Y15317D01*
X253803D01*
Y15263D01*
X253750D01*
Y15210D01*
X253696D01*
Y15156D01*
X253643D01*
Y15049D01*
X253589D01*
Y14995D01*
X253535D01*
Y14942D01*
X253482D01*
Y14888D01*
X253428D01*
Y15049D01*
X253375D01*
Y15210D01*
X253321D01*
Y15370D01*
X253267D01*
Y15531D01*
X253214D01*
Y15692D01*
X253160D01*
Y15906D01*
X253106D01*
Y16013D01*
X253053D01*
Y16228D01*
X252999D01*
Y16389D01*
X252946D01*
Y16549D01*
X252892D01*
Y16764D01*
X252838D01*
Y16871D01*
X252785D01*
Y17032D01*
X252731D01*
Y17192D01*
X252678D01*
Y17407D01*
X252624D01*
Y17568D01*
X252571D01*
Y17729D01*
X252517D01*
Y17889D01*
X252463D01*
Y18050D01*
X252410D01*
Y18264D01*
X252356D01*
Y18425D01*
X252303D01*
Y18586D01*
X252249D01*
Y18747D01*
X252195D01*
Y18908D01*
X252142D01*
Y19122D01*
X252088D01*
Y19283D01*
X252034D01*
Y19444D01*
X251981D01*
Y19604D01*
X251927D01*
Y19765D01*
X251874D01*
Y19926D01*
X251820D01*
Y20087D01*
X251767D01*
Y20194D01*
X251927D01*
Y20140D01*
X252034D01*
Y20087D01*
X252088D01*
Y20033D01*
X252142D01*
Y19980D01*
X252249D01*
Y19926D01*
X252356D01*
Y19872D01*
X252463D01*
Y19819D01*
X252571D01*
Y19765D01*
X252624D01*
Y19712D01*
X252731D01*
Y19658D01*
X252838D01*
Y19604D01*
X252892D01*
Y19551D01*
X252999D01*
Y19497D01*
X253106D01*
Y19444D01*
X253160D01*
Y19390D01*
X253267D01*
Y19336D01*
X253428D01*
Y19658D01*
X253482D01*
Y19980D01*
X253535D01*
Y20301D01*
X253589D01*
Y20623D01*
X253643D01*
Y20891D01*
X253696D01*
Y21212D01*
X253750D01*
Y21480D01*
X253803D01*
Y21802D01*
X253857D01*
Y22123D01*
X253910D01*
Y22445D01*
X253964D01*
Y22767D01*
X254018D01*
Y23035D01*
X254071D01*
Y23356D01*
X254125D01*
Y23624D01*
X254178D01*
Y23999D01*
X254232D01*
Y24267D01*
X254286D01*
Y24589D01*
X254339D01*
Y24910D01*
X254393D01*
Y25178D01*
X254446D01*
Y25500D01*
X254500D01*
Y25768D01*
X254554D01*
Y26143D01*
X254607D01*
Y26411D01*
X254661D01*
Y26733D01*
X254714D01*
Y26786D01*
X254500D01*
Y26733D01*
X254286D01*
Y26679D01*
X254125D01*
Y26625D01*
X253964D01*
Y26572D01*
X253803D01*
Y26518D01*
X253643D01*
Y26465D01*
X253428D01*
Y26411D01*
X253267D01*
Y26357D01*
X253106D01*
Y26304D01*
X252946D01*
Y26250D01*
X252785D01*
Y26197D01*
X252571D01*
Y26143D01*
X252410D01*
Y26090D01*
X252249D01*
Y26036D01*
X252088D01*
Y25982D01*
X251874D01*
Y25929D01*
X251713D01*
Y25875D01*
X251552D01*
Y25822D01*
X251391D01*
Y25768D01*
X251231D01*
Y25714D01*
X251016D01*
Y25661D01*
X250855D01*
Y25607D01*
X250695D01*
Y25554D01*
X250534D01*
Y25500D01*
X250373D01*
Y25446D01*
X250212D01*
Y25393D01*
X249998D01*
Y25339D01*
X249837D01*
Y25286D01*
X249676D01*
Y25232D01*
X249516D01*
Y25178D01*
X249355D01*
Y25125D01*
X249140D01*
Y25071D01*
X248980D01*
Y25018D01*
X248765D01*
Y25071D01*
X248819D01*
Y25339D01*
X248872D01*
Y25661D01*
X248926D01*
Y25982D01*
X248980D01*
Y26197D01*
X249033D01*
Y26572D01*
X249087D01*
Y26840D01*
X249140D01*
Y27161D01*
X249194D01*
Y27483D01*
X249248D01*
Y27751D01*
X249301D01*
Y28073D01*
X249355D01*
Y28341D01*
X249408D01*
Y28662D01*
X249462D01*
Y28930D01*
X249516D01*
Y29198D01*
X249569D01*
Y29520D01*
X249623D01*
Y29841D01*
X249676D01*
Y30109D01*
X249730D01*
Y30485D01*
X249783D01*
Y30699D01*
X249837D01*
Y31020D01*
X249891D01*
Y31342D01*
X249944D01*
Y31610D01*
X249998D01*
Y31932D01*
X250051D01*
Y32200D01*
X250105D01*
Y32521D01*
X250159D01*
Y32843D01*
X250212D01*
Y33057D01*
X250266D01*
Y33432D01*
X250320D01*
Y33700D01*
X250373D01*
Y34022D01*
X250427D01*
Y34290D01*
X250480D01*
Y34611D01*
X250534D01*
Y34933D01*
X250587D01*
Y35201D01*
X250641D01*
Y35469D01*
X250695D01*
Y35791D01*
X250748D01*
Y36059D01*
X250802D01*
Y36380D01*
X250855D01*
Y36702D01*
X250909D01*
Y36970D01*
X250963D01*
Y37345D01*
X251016D01*
Y37506D01*
X254446D01*
Y37452D01*
D02*
G37*
D10*
X214819Y29000D02*
G03*
X214819Y29000I-492J0D01*
G01*
X113992Y8200D02*
G03*
X113992Y8200I-492J0D01*
G01*
X210389Y75760D02*
G03*
X210389Y75760I-492J0D01*
G01*
X266252Y73248D02*
G03*
X266252Y73248I-492J0D01*
G01*
X136492Y136669D02*
G03*
X136492Y136669I-492J0D01*
G01*
D11*
X92234Y91827D02*
G03*
X92234Y91827I-300J0D01*
G01*
X157600Y18000D02*
Y20000D01*
X157500Y37500D02*
Y39500D01*
Y37500D02*
X159500D01*
X76850Y43750D02*
Y60450D01*
X56150Y43750D02*
Y60450D01*
X189300Y177500D02*
Y179500D01*
X157600Y20000D02*
X159600D01*
X98350Y95650D02*
X100263D01*
X127650Y93737D02*
Y95650D01*
X125737Y66350D02*
X127650D01*
X98350D02*
Y68263D01*
Y93737D02*
Y95650D01*
X125737D02*
X127650D01*
Y66350D02*
Y68263D01*
X98350Y66350D02*
X100263D01*
X157500Y177500D02*
Y179500D01*
X185300Y20000D02*
X187300D01*
Y22000D01*
X187500Y35500D02*
Y37500D01*
X185500D02*
X187500D01*
D12*
X279432Y67205D02*
G03*
X279432Y67205I-394J0D01*
G01*
X211965Y9315D02*
Y34905D01*
X164720D02*
X211965D01*
X164720Y9315D02*
Y34905D01*
Y9315D02*
X211965D01*
X689Y13618D02*
X49508D01*
X689D02*
Y167949D01*
X49508D01*
Y13618D02*
Y167949D01*
X66706Y31733D02*
X67494D01*
X66706Y35867D02*
X67494D01*
X103638Y40892D02*
Y53908D01*
X94362Y40892D02*
Y53908D01*
X110464Y47067D02*
X121536D01*
X110464Y39933D02*
X121536D01*
X110464Y56567D02*
X121536D01*
X110464Y49433D02*
X121536D01*
X85667Y42564D02*
Y53636D01*
X78533Y42564D02*
Y53636D01*
X67867Y72106D02*
Y72894D01*
X63733Y72106D02*
Y72894D01*
X258567Y78964D02*
Y90036D01*
X251433Y78964D02*
Y90036D01*
Y94964D02*
Y106036D01*
X258567Y94964D02*
Y106036D01*
X102988Y24093D02*
X114012D01*
X102988Y10707D02*
X114012D01*
X120033Y13023D02*
Y24095D01*
X127167Y13023D02*
Y24095D01*
X130492Y18538D02*
X143508D01*
X130492Y9262D02*
X143508D01*
X89933Y10864D02*
Y21936D01*
X97067Y10864D02*
Y21936D01*
X130964Y27467D02*
X142036D01*
X130964Y20333D02*
X142036D01*
X146933Y10364D02*
Y21436D01*
X154067Y10364D02*
Y21436D01*
X298933Y50606D02*
Y51394D01*
X303067Y50606D02*
Y51394D01*
X296638Y42992D02*
Y56008D01*
X287362Y42992D02*
Y56008D01*
X271933Y95606D02*
Y96394D01*
X276067Y95606D02*
Y96394D01*
X271433Y68606D02*
Y69394D01*
X275567Y68606D02*
Y69394D01*
X53939Y153663D02*
X66956D01*
X53939Y162939D02*
X66956D01*
X292227Y97598D02*
X297148D01*
X292227Y62402D02*
X297148D01*
X307857Y97598D02*
X312896D01*
X307857Y62402D02*
X312896D01*
X222692Y95468D02*
Y96453D01*
X221708D02*
X222692D01*
X206944Y95468D02*
Y96453D01*
X207928D01*
X222692Y80705D02*
Y81689D01*
X221708Y80705D02*
X222692D01*
X206944D02*
Y81689D01*
Y80705D02*
X207928D01*
X263496Y81122D02*
Y83878D01*
X275504D01*
Y81122D02*
Y83878D01*
X263496Y81122D02*
X275504D01*
X227933Y93606D02*
Y94394D01*
X232067Y93606D02*
Y94394D01*
X211192Y54562D02*
X224208D01*
X211192Y63838D02*
X224208D01*
X211864Y65733D02*
X222936D01*
X211864Y72867D02*
X222936D01*
X249138Y72992D02*
Y86008D01*
X239862Y72992D02*
Y86008D01*
X237567Y74964D02*
Y86036D01*
X230433Y74964D02*
Y86036D01*
X204567Y61964D02*
Y73036D01*
X197433Y61964D02*
Y73036D01*
X149567Y61464D02*
Y72536D01*
X142433Y61464D02*
Y72536D01*
X113500Y119659D02*
Y122341D01*
X138500Y119659D02*
Y122341D01*
X142067Y88964D02*
Y100036D01*
X134933Y88964D02*
Y100036D01*
X82433Y81464D02*
Y92536D01*
X89567Y81464D02*
Y92536D01*
X111067Y106606D02*
Y107394D01*
X106933Y106606D02*
Y107394D01*
X91964Y110067D02*
X103036D01*
X91964Y102933D02*
X103036D01*
X134067Y51964D02*
Y63036D01*
X126933Y51964D02*
Y63036D01*
X68567Y82606D02*
Y83394D01*
X64433Y82606D02*
Y83394D01*
X56006Y35767D02*
X56794D01*
X56006Y31633D02*
X56794D01*
X73906Y72467D02*
X74694D01*
X73906Y68333D02*
X74694D01*
X57106Y82933D02*
X57894D01*
X57106Y87067D02*
X57894D01*
X58054Y165734D02*
X58842D01*
X58054Y169868D02*
X58842D01*
X64433Y94606D02*
Y95394D01*
X68567Y94606D02*
Y95394D01*
X57106Y99067D02*
X57894D01*
X57106Y94933D02*
X57894D01*
X63059Y125953D02*
Y128047D01*
X57941Y132709D02*
X59213D01*
X57941Y121291D02*
Y124307D01*
Y129693D02*
Y132709D01*
Y121291D02*
X59213D01*
X63059Y108953D02*
Y111047D01*
X57941Y115709D02*
X59213D01*
X57941Y104291D02*
Y107307D01*
Y112693D02*
Y115709D01*
Y104291D02*
X59213D01*
X63059Y142953D02*
Y145047D01*
X57941Y149709D02*
X59213D01*
X57941Y138291D02*
Y141307D01*
Y146693D02*
Y149709D01*
Y138291D02*
X59213D01*
D13*
X202000Y133999D02*
Y139997D01*
X204999D01*
X205999Y138998D01*
Y136998D01*
X204999Y135999D01*
X202000D01*
X210997Y133999D02*
X208998D01*
X207998Y134999D01*
Y136998D01*
X208998Y137998D01*
X210997D01*
X211997Y136998D01*
Y135999D01*
X207998D01*
X213996Y137998D02*
Y133999D01*
Y135999D01*
X214996Y136998D01*
X215996Y137998D01*
X216995D01*
X219994D02*
Y133999D01*
Y135999D01*
X220994Y136998D01*
X221993Y137998D01*
X222993D01*
X225992D02*
Y134999D01*
X226992Y133999D01*
X229991D01*
Y133000D01*
X228991Y132000D01*
X227992D01*
X229991Y133999D02*
Y137998D01*
X237988Y139997D02*
X241987Y133999D01*
Y139997D02*
X237988Y133999D01*
X243986Y137998D02*
Y134999D01*
X244986Y133999D01*
X247985D01*
Y137998D01*
X201835Y4001D02*
Y7999D01*
X203834D01*
X204501Y7333D01*
Y6000D01*
X203834Y5334D01*
X201835D01*
X208499Y7333D02*
X207833Y7999D01*
X206500D01*
X205834Y7333D01*
Y6667D01*
X206500Y6000D01*
X207833D01*
X208499Y5334D01*
Y4667D01*
X207833Y4001D01*
X206500D01*
X205834Y4667D01*
X209832Y4001D02*
X211165D01*
X210499D01*
Y7999D01*
X209832Y7333D01*
X78768Y60599D02*
Y57267D01*
X79434Y56601D01*
X80767D01*
X81434Y57267D01*
Y60599D01*
X85432Y56601D02*
X82766D01*
X85432Y59266D01*
Y59933D01*
X84766Y60599D01*
X83433D01*
X82766Y59933D01*
X45334Y174499D02*
X44001D01*
X44667D01*
Y171167D01*
X44001Y170501D01*
X43334D01*
X42668Y171167D01*
X49332Y170501D02*
X46666D01*
X49332Y173167D01*
Y173833D01*
X48666Y174499D01*
X47333D01*
X46666Y173833D01*
X285834Y105499D02*
X284501D01*
X285167D01*
Y102167D01*
X284501Y101501D01*
X283834D01*
X283168Y102167D01*
X287167Y104833D02*
X287833Y105499D01*
X289166D01*
X289832Y104833D01*
Y104166D01*
X289166Y103500D01*
X288499D01*
X289166D01*
X289832Y102833D01*
Y102167D01*
X289166Y101501D01*
X287833D01*
X287167Y102167D01*
X55168Y70801D02*
Y74799D01*
X57167D01*
X57834Y74133D01*
Y72800D01*
X57167Y72134D01*
X55168D01*
X56501D02*
X57834Y70801D01*
X59167Y74799D02*
X61832D01*
Y74133D01*
X59167Y71467D01*
Y70801D01*
X80067Y38033D02*
X79401Y38699D01*
X78068D01*
X77402Y38033D01*
Y35367D01*
X78068Y34701D01*
X79401D01*
X80067Y35367D01*
X81400Y34701D02*
X82733D01*
X82067D01*
Y38699D01*
X81400Y38033D01*
X87398Y34701D02*
X84733D01*
X87398Y37366D01*
Y38033D01*
X86732Y38699D01*
X85399D01*
X84733Y38033D01*
X204168Y105999D02*
Y102667D01*
X204834Y102001D01*
X206167D01*
X206834Y102667D01*
Y105999D01*
X210832D02*
X208167D01*
Y104000D01*
X209499Y104666D01*
X210166D01*
X210832Y104000D01*
Y102667D01*
X210166Y102001D01*
X208833D01*
X208167Y102667D01*
X153968Y59399D02*
Y56067D01*
X154634Y55401D01*
X155967D01*
X156633Y56067D01*
Y59399D01*
X159966Y55401D02*
Y59399D01*
X157966Y57400D01*
X160632D01*
X99168Y8399D02*
Y5067D01*
X99834Y4401D01*
X101167D01*
X101834Y5067D01*
Y8399D01*
X103166Y7733D02*
X103833Y8399D01*
X105166D01*
X105832Y7733D01*
Y7067D01*
X105166Y6400D01*
X104499D01*
X105166D01*
X105832Y5734D01*
Y5067D01*
X105166Y4401D01*
X103833D01*
X103166Y5067D01*
X91834Y64499D02*
Y61167D01*
X92501Y60501D01*
X93834D01*
X94500Y61167D01*
Y64499D01*
X95833Y60501D02*
X97166D01*
X96499D01*
Y64499D01*
X95833Y63833D01*
X298502Y40501D02*
Y44499D01*
X300501D01*
X301167Y43833D01*
Y42500D01*
X300501Y41834D01*
X298502D01*
X299834D02*
X301167Y40501D01*
X302500D02*
X303833D01*
X303167D01*
Y44499D01*
X302500Y43833D01*
X305833Y44499D02*
X308498D01*
Y43833D01*
X305833Y41167D01*
Y40501D01*
X227502Y100501D02*
Y104499D01*
X229501D01*
X230167Y103833D01*
Y102500D01*
X229501Y101834D01*
X227502D01*
X228835D02*
X230167Y100501D01*
X231500D02*
X232833D01*
X232167D01*
Y104499D01*
X231500Y103833D01*
X237498Y104499D02*
X236165Y103833D01*
X234833Y102500D01*
Y101167D01*
X235499Y100501D01*
X236832D01*
X237498Y101167D01*
Y101834D01*
X236832Y102500D01*
X234833D01*
X268502Y102501D02*
Y106499D01*
X270501D01*
X271167Y105833D01*
Y104500D01*
X270501Y103833D01*
X268502D01*
X269834D02*
X271167Y102501D01*
X272500D02*
X273833D01*
X273167D01*
Y106499D01*
X272500Y105833D01*
X277832Y102501D02*
Y106499D01*
X275833Y104500D01*
X278498D01*
X269002Y58501D02*
Y62499D01*
X271001D01*
X271667Y61833D01*
Y60500D01*
X271001Y59834D01*
X269002D01*
X270335D02*
X271667Y58501D01*
X273000D02*
X274333D01*
X273667D01*
Y62499D01*
X273000Y61833D01*
X278998Y58501D02*
X276333D01*
X278998Y61166D01*
Y61833D01*
X278332Y62499D01*
X276999D01*
X276333Y61833D01*
X51968Y25301D02*
Y29299D01*
X53967D01*
X54634Y28633D01*
Y27300D01*
X53967Y26634D01*
X51968D01*
X53301D02*
X54634Y25301D01*
X55967D02*
X57300D01*
X56633D01*
Y29299D01*
X55967Y28633D01*
X59299Y25301D02*
X60632D01*
X59965D01*
Y29299D01*
X59299Y28633D01*
X62802Y25301D02*
Y29299D01*
X64801D01*
X65467Y28633D01*
Y27300D01*
X64801Y26634D01*
X62802D01*
X64135D02*
X65467Y25301D01*
X66800D02*
X68133D01*
X67467D01*
Y29299D01*
X66800Y28633D01*
X70133D02*
X70799Y29299D01*
X72132D01*
X72798Y28633D01*
Y25967D01*
X72132Y25301D01*
X70799D01*
X70133Y25967D01*
Y28633D01*
X65668Y166001D02*
Y169999D01*
X67667D01*
X68334Y169333D01*
Y168000D01*
X67667Y167333D01*
X65668D01*
X67001D02*
X68334Y166001D01*
X69666Y166667D02*
X70333Y166001D01*
X71666D01*
X72332Y166667D01*
Y169333D01*
X71666Y169999D01*
X70333D01*
X69666Y169333D01*
Y168667D01*
X70333Y168000D01*
X72332D01*
X80868Y68301D02*
Y72299D01*
X82867D01*
X83534Y71633D01*
Y70300D01*
X82867Y69634D01*
X80868D01*
X82201D02*
X83534Y68301D01*
X84866Y71633D02*
X85533Y72299D01*
X86866D01*
X87532Y71633D01*
Y70966D01*
X86866Y70300D01*
X87532Y69634D01*
Y68967D01*
X86866Y68301D01*
X85533D01*
X84866Y68967D01*
Y69634D01*
X85533Y70300D01*
X84866Y70966D01*
Y71633D01*
X85533Y70300D02*
X86866D01*
X71168Y81001D02*
Y84999D01*
X73167D01*
X73834Y84333D01*
Y83000D01*
X73167Y82334D01*
X71168D01*
X72501D02*
X73834Y81001D01*
X77832Y84999D02*
X76499Y84333D01*
X75166Y83000D01*
Y81667D01*
X75833Y81001D01*
X77166D01*
X77832Y81667D01*
Y82334D01*
X77166Y83000D01*
X75166D01*
X54168Y77001D02*
Y80999D01*
X56167D01*
X56834Y80333D01*
Y79000D01*
X56167Y78334D01*
X54168D01*
X55501D02*
X56834Y77001D01*
X60832Y80999D02*
X58166D01*
Y79000D01*
X59499Y79666D01*
X60166D01*
X60832Y79000D01*
Y77667D01*
X60166Y77001D01*
X58833D01*
X58166Y77667D01*
X54168Y89001D02*
Y92999D01*
X56167D01*
X56834Y92333D01*
Y91000D01*
X56167Y90334D01*
X54168D01*
X55501D02*
X56834Y89001D01*
X60166D02*
Y92999D01*
X58166Y91000D01*
X60832D01*
X70668Y91001D02*
Y94999D01*
X72667D01*
X73334Y94333D01*
Y93000D01*
X72667Y92334D01*
X70668D01*
X72001D02*
X73334Y91001D01*
X74667Y94333D02*
X75333Y94999D01*
X76666D01*
X77332Y94333D01*
Y93666D01*
X76666Y93000D01*
X75999D01*
X76666D01*
X77332Y92334D01*
Y91667D01*
X76666Y91001D01*
X75333D01*
X74667Y91667D01*
X105168Y115001D02*
Y118999D01*
X107167D01*
X107834Y118333D01*
Y117000D01*
X107167Y116333D01*
X105168D01*
X106501D02*
X107834Y115001D01*
X111832D02*
X109167D01*
X111832Y117666D01*
Y118333D01*
X111166Y118999D01*
X109833D01*
X109167Y118333D01*
X73834Y113667D02*
Y116333D01*
X73167Y116999D01*
X71834D01*
X71168Y116333D01*
Y113667D01*
X71834Y113001D01*
X73167D01*
X72501Y114333D02*
X73834Y113001D01*
X73167D02*
X73834Y113667D01*
X75166Y116333D02*
X75833Y116999D01*
X77166D01*
X77832Y116333D01*
Y115666D01*
X77166Y115000D01*
X76499D01*
X77166D01*
X77832Y114333D01*
Y113667D01*
X77166Y113001D01*
X75833D01*
X75166Y113667D01*
X74053Y130667D02*
Y133333D01*
X73387Y133999D01*
X72054D01*
X71387Y133333D01*
Y130667D01*
X72054Y130001D01*
X73387D01*
X72720Y131333D02*
X74053Y130001D01*
X73387D02*
X74053Y130667D01*
X78052Y130001D02*
X75386D01*
X78052Y132667D01*
Y133333D01*
X77385Y133999D01*
X76053D01*
X75386Y133333D01*
X74000Y147667D02*
Y150333D01*
X73334Y150999D01*
X72001D01*
X71334Y150333D01*
Y147667D01*
X72001Y147001D01*
X73334D01*
X72667Y148334D02*
X74000Y147001D01*
X73334D02*
X74000Y147667D01*
X75333Y147001D02*
X76666D01*
X75999D01*
Y150999D01*
X75333Y150333D01*
X117999Y146698D02*
X115999D01*
X116999D01*
Y141700D01*
X115999Y140700D01*
X115000D01*
X114000Y141700D01*
X119998Y140700D02*
X121997D01*
X120998D01*
Y146698D01*
X119998Y145698D01*
X134801Y7699D02*
X132135D01*
Y5700D01*
X133468D01*
X132135D01*
Y3701D01*
X136134Y7699D02*
Y3701D01*
X138133D01*
X138799Y4367D01*
Y5034D01*
X138133Y5700D01*
X136134D01*
X138133D01*
X138799Y6366D01*
Y7033D01*
X138133Y7699D01*
X136134D01*
X140132Y3701D02*
X141465D01*
X140799D01*
Y7699D01*
X140132Y7033D01*
X263834Y95499D02*
Y91501D01*
X265834D01*
X266500Y92167D01*
Y94833D01*
X265834Y95499D01*
X263834D01*
X267833Y91501D02*
X269166D01*
X268499D01*
Y95499D01*
X267833Y94833D01*
X288834Y38833D02*
X288168Y39499D01*
X286835D01*
X286168Y38833D01*
Y36167D01*
X286835Y35501D01*
X288168D01*
X288834Y36167D01*
X292833Y35501D02*
X290167D01*
X292833Y38166D01*
Y38833D01*
X292166Y39499D01*
X290834D01*
X290167Y38833D01*
X296832Y39499D02*
X295499Y38833D01*
X294166Y37500D01*
Y36167D01*
X294832Y35501D01*
X296165D01*
X296832Y36167D01*
Y36834D01*
X296165Y37500D01*
X294166D01*
X253834Y74833D02*
X253168Y75499D01*
X251835D01*
X251168Y74833D01*
Y72167D01*
X251835Y71501D01*
X253168D01*
X253834Y72167D01*
X257833Y71501D02*
X255167D01*
X257833Y74166D01*
Y74833D01*
X257166Y75499D01*
X255834D01*
X255167Y74833D01*
X261832Y75499D02*
X259166D01*
Y73500D01*
X260499Y74166D01*
X261165D01*
X261832Y73500D01*
Y72167D01*
X261165Y71501D01*
X259832D01*
X259166Y72167D01*
X252334Y112833D02*
X251668Y113499D01*
X250335D01*
X249668Y112833D01*
Y110167D01*
X250335Y109501D01*
X251668D01*
X252334Y110167D01*
X256333Y109501D02*
X253667D01*
X256333Y112167D01*
Y112833D01*
X255666Y113499D01*
X254334D01*
X253667Y112833D01*
X259665Y109501D02*
Y113499D01*
X257666Y111500D01*
X260332D01*
X228634Y70433D02*
X227968Y71099D01*
X226635D01*
X225968Y70433D01*
Y67767D01*
X226635Y67101D01*
X227968D01*
X228634Y67767D01*
X232633Y67101D02*
X229967D01*
X232633Y69766D01*
Y70433D01*
X231966Y71099D01*
X230634D01*
X229967Y70433D01*
X233966D02*
X234632Y71099D01*
X235965D01*
X236632Y70433D01*
Y69766D01*
X235965Y69100D01*
X235299D01*
X235965D01*
X236632Y68434D01*
Y67767D01*
X235965Y67101D01*
X234632D01*
X233966Y67767D01*
X215334Y51833D02*
X214668Y52499D01*
X213335D01*
X212668Y51833D01*
Y49167D01*
X213335Y48501D01*
X214668D01*
X215334Y49167D01*
X219333Y48501D02*
X216667D01*
X219333Y51166D01*
Y51833D01*
X218666Y52499D01*
X217334D01*
X216667Y51833D01*
X223332Y48501D02*
X220666D01*
X223332Y51166D01*
Y51833D01*
X222665Y52499D01*
X221332D01*
X220666Y51833D01*
X234667Y91801D02*
X234001Y91134D01*
Y89801D01*
X234667Y89135D01*
X237333D01*
X237999Y89801D01*
Y91134D01*
X237333Y91801D01*
X237999Y95799D02*
Y93134D01*
X235333Y95799D01*
X234667D01*
X234001Y95133D01*
Y93800D01*
X234667Y93134D01*
X237999Y97132D02*
Y98465D01*
Y97799D01*
X234001D01*
X234667Y97132D01*
X241834Y68933D02*
X241168Y69599D01*
X239835D01*
X239168Y68933D01*
Y66267D01*
X239835Y65601D01*
X241168D01*
X241834Y66267D01*
X245833Y65601D02*
X243167D01*
X245833Y68266D01*
Y68933D01*
X245166Y69599D01*
X243834D01*
X243167Y68933D01*
X247166D02*
X247832Y69599D01*
X249165D01*
X249832Y68933D01*
Y66267D01*
X249165Y65601D01*
X247832D01*
X247166Y66267D01*
Y68933D01*
X199251Y58500D02*
X198751Y59000D01*
X197751D01*
X197251Y58500D01*
Y56500D01*
X197751Y56001D01*
X198751D01*
X199251Y56500D01*
X200250Y56001D02*
X201250D01*
X200750D01*
Y59000D01*
X200250Y58500D01*
X202749Y56500D02*
X203249Y56001D01*
X204249D01*
X204749Y56500D01*
Y58500D01*
X204249Y59000D01*
X203249D01*
X202749Y58500D01*
Y58000D01*
X203249Y57500D01*
X204749D01*
X141167Y78833D02*
X140501Y79499D01*
X139168D01*
X138502Y78833D01*
Y76167D01*
X139168Y75501D01*
X140501D01*
X141167Y76167D01*
X142500Y75501D02*
X143833D01*
X143167D01*
Y79499D01*
X142500Y78833D01*
X145833D02*
X146499Y79499D01*
X147832D01*
X148498Y78833D01*
Y78166D01*
X147832Y77500D01*
X148498Y76834D01*
Y76167D01*
X147832Y75501D01*
X146499D01*
X145833Y76167D01*
Y76834D01*
X146499Y77500D01*
X145833Y78166D01*
Y78833D01*
X146499Y77500D02*
X147832D01*
X80367Y18033D02*
X79701Y18699D01*
X78368D01*
X77702Y18033D01*
Y15367D01*
X78368Y14701D01*
X79701D01*
X80367Y15367D01*
X81700Y14701D02*
X83033D01*
X82367D01*
Y18699D01*
X81700Y18033D01*
X85033Y18699D02*
X87698D01*
Y18033D01*
X85033Y15367D01*
Y14701D01*
X119367Y32933D02*
X118701Y33599D01*
X117368D01*
X116702Y32933D01*
Y30267D01*
X117368Y29601D01*
X118701D01*
X119367Y30267D01*
X120700Y29601D02*
X122033D01*
X121367D01*
Y33599D01*
X120700Y32933D01*
X126698Y33599D02*
X124033D01*
Y31600D01*
X125365Y32266D01*
X126032D01*
X126698Y31600D01*
Y30267D01*
X126032Y29601D01*
X124699D01*
X124033Y30267D01*
X147667Y28733D02*
X147001Y29399D01*
X145668D01*
X145002Y28733D01*
Y26067D01*
X145668Y25401D01*
X147001D01*
X147667Y26067D01*
X149000Y25401D02*
X150333D01*
X149667D01*
Y29399D01*
X149000Y28733D01*
X154332Y25401D02*
Y29399D01*
X152333Y27400D01*
X154998D01*
X134167Y33233D02*
X133501Y33899D01*
X132168D01*
X131502Y33233D01*
Y30567D01*
X132168Y29901D01*
X133501D01*
X134167Y30567D01*
X135500Y29901D02*
X136833D01*
X136167D01*
Y33899D01*
X135500Y33233D01*
X138833D02*
X139499Y33899D01*
X140832D01*
X141498Y33233D01*
Y32566D01*
X140832Y31900D01*
X140165D01*
X140832D01*
X141498Y31234D01*
Y30567D01*
X140832Y29901D01*
X139499D01*
X138833Y30567D01*
X73834Y159833D02*
X73167Y160499D01*
X71834D01*
X71168Y159833D01*
Y157167D01*
X71834Y156501D01*
X73167D01*
X73834Y157167D01*
X75167Y156501D02*
X76500D01*
X75833D01*
Y160499D01*
X75167Y159833D01*
X78499Y156501D02*
X79832D01*
X79166D01*
Y160499D01*
X78499Y159833D01*
X127267Y42133D02*
X126601Y42799D01*
X125268D01*
X124602Y42133D01*
Y39467D01*
X125268Y38801D01*
X126601D01*
X127267Y39467D01*
X128600Y38801D02*
X129933D01*
X129267D01*
Y42799D01*
X128600Y42133D01*
X131933D02*
X132599Y42799D01*
X133932D01*
X134598Y42133D01*
Y39467D01*
X133932Y38801D01*
X132599D01*
X131933Y39467D01*
Y42133D01*
X127533Y48033D02*
X126867Y48699D01*
X125534D01*
X124868Y48033D01*
Y45367D01*
X125534Y44701D01*
X126867D01*
X127533Y45367D01*
X128867D02*
X129533Y44701D01*
X130866D01*
X131532Y45367D01*
Y48033D01*
X130866Y48699D01*
X129533D01*
X128867Y48033D01*
Y47366D01*
X129533Y46700D01*
X131532D01*
X85334Y99333D02*
X84667Y99999D01*
X83334D01*
X82668Y99333D01*
Y96667D01*
X83334Y96001D01*
X84667D01*
X85334Y96667D01*
X86667Y99333D02*
X87333Y99999D01*
X88666D01*
X89332Y99333D01*
Y98666D01*
X88666Y98000D01*
X89332Y97334D01*
Y96667D01*
X88666Y96001D01*
X87333D01*
X86667Y96667D01*
Y97334D01*
X87333Y98000D01*
X86667Y98666D01*
Y99333D01*
X87333Y98000D02*
X88666D01*
X138833Y54333D02*
X138167Y54999D01*
X136834D01*
X136168Y54333D01*
Y51667D01*
X136834Y51001D01*
X138167D01*
X138833Y51667D01*
X142832Y54999D02*
X140166D01*
Y53000D01*
X141499Y53666D01*
X142166D01*
X142832Y53000D01*
Y51667D01*
X142166Y51001D01*
X140833D01*
X140166Y51667D01*
X84834Y107833D02*
X84167Y108499D01*
X82834D01*
X82168Y107833D01*
Y105167D01*
X82834Y104501D01*
X84167D01*
X84834Y105167D01*
X88166Y104501D02*
Y108499D01*
X86167Y106500D01*
X88832D01*
X137833Y85333D02*
X137167Y85999D01*
X135834D01*
X135168Y85333D01*
Y82667D01*
X135834Y82001D01*
X137167D01*
X137833Y82667D01*
X139166Y85333D02*
X139833Y85999D01*
X141166D01*
X141832Y85333D01*
Y84666D01*
X141166Y84000D01*
X140499D01*
X141166D01*
X141832Y83334D01*
Y82667D01*
X141166Y82001D01*
X139833D01*
X139166Y82667D01*
X98800Y37033D02*
X98134Y37699D01*
X96801D01*
X96134Y37033D01*
Y34367D01*
X96801Y33701D01*
X98134D01*
X98800Y34367D01*
X100133Y33701D02*
X101466D01*
X100799D01*
Y37699D01*
X100133Y37033D01*
D14*
X158022Y171226D02*
Y163228D01*
Y167227D01*
X163354D01*
Y171226D01*
Y163228D01*
X166019D02*
X168685D01*
X167352D01*
Y168560D01*
X166019D01*
X175350Y160563D02*
X176683D01*
X178015Y161896D01*
Y168560D01*
X174017D01*
X172684Y167227D01*
Y164561D01*
X174017Y163228D01*
X178015D01*
X180681Y171226D02*
Y163228D01*
Y167227D01*
X182014Y168560D01*
X184680D01*
X186013Y167227D01*
Y163228D01*
X188679Y167227D02*
X194010D01*
X196676Y171226D02*
Y165894D01*
X199342Y163228D01*
X202008Y165894D01*
Y171226D01*
X206007Y163228D02*
X208672D01*
X210005Y164561D01*
Y167227D01*
X208672Y168560D01*
X206007D01*
X204674Y167227D01*
Y164561D01*
X206007Y163228D01*
X212671D02*
X215337D01*
X214004D01*
Y171226D01*
X212671D01*
X220668Y169893D02*
Y168560D01*
X219336D01*
X222001D01*
X220668D01*
Y164561D01*
X222001Y163228D01*
X227333Y168560D02*
X229999D01*
X231332Y167227D01*
Y163228D01*
X227333D01*
X226000Y164561D01*
X227333Y165894D01*
X231332D01*
X236663Y160563D02*
X237996D01*
X239329Y161896D01*
Y168560D01*
X235330D01*
X233997Y167227D01*
Y164561D01*
X235330Y163228D01*
X239329D01*
X245993D02*
X243328D01*
X241995Y164561D01*
Y167227D01*
X243328Y168560D01*
X245993D01*
X247326Y167227D01*
Y165894D01*
X241995D01*
X257990Y163228D02*
Y171226D01*
X261988D01*
X263321Y169893D01*
Y167227D01*
X261988Y165894D01*
X257990D01*
X267320Y163228D02*
X269986D01*
X271319Y164561D01*
Y167227D01*
X269986Y168560D01*
X267320D01*
X265987Y167227D01*
Y164561D01*
X267320Y163228D01*
X273985Y168560D02*
Y164561D01*
X275317Y163228D01*
X276650Y164561D01*
X277983Y163228D01*
X279316Y164561D01*
Y168560D01*
X285981Y163228D02*
X283315D01*
X281982Y164561D01*
Y167227D01*
X283315Y168560D01*
X285981D01*
X287314Y167227D01*
Y165894D01*
X281982D01*
X289979Y168560D02*
Y163228D01*
Y165894D01*
X291312Y167227D01*
X292645Y168560D01*
X293978D01*
X168019Y152830D02*
X166686Y154163D01*
X164020D01*
X162687Y152830D01*
Y151497D01*
X164020Y150164D01*
X166686D01*
X168019Y148832D01*
Y147499D01*
X166686Y146166D01*
X164020D01*
X162687Y147499D01*
X170685Y151497D02*
Y147499D01*
X172018Y146166D01*
X176016D01*
Y151497D01*
X178682Y143500D02*
Y151497D01*
X182681D01*
X184014Y150164D01*
Y147499D01*
X182681Y146166D01*
X178682D01*
X186679Y143500D02*
Y151497D01*
X190678D01*
X192011Y150164D01*
Y147499D01*
X190678Y146166D01*
X186679D01*
X194677D02*
X197343D01*
X196010D01*
Y154163D01*
X194677D01*
X201341Y151497D02*
Y147499D01*
X202674Y146166D01*
X206673D01*
Y144833D01*
X205340Y143500D01*
X204007D01*
X206673Y146166D02*
Y151497D01*
X222668Y152830D02*
X221335Y154163D01*
X218669D01*
X217336Y152830D01*
Y147499D01*
X218669Y146166D01*
X221335D01*
X222668Y147499D01*
X226666Y146166D02*
X229332D01*
X230665Y147499D01*
Y150164D01*
X229332Y151497D01*
X226666D01*
X225334Y150164D01*
Y147499D01*
X226666Y146166D01*
X233331D02*
Y151497D01*
X237330D01*
X238663Y150164D01*
Y146166D01*
X242661Y152830D02*
Y151497D01*
X241328D01*
X243994D01*
X242661D01*
Y147499D01*
X243994Y146166D01*
X247993Y151497D02*
Y146166D01*
Y148832D01*
X249326Y150164D01*
X250659Y151497D01*
X251992D01*
X257323Y146166D02*
X259989D01*
X261322Y147499D01*
Y150164D01*
X259989Y151497D01*
X257323D01*
X255990Y150164D01*
Y147499D01*
X257323Y146166D01*
X263988D02*
X266653D01*
X265321D01*
Y154163D01*
X263988D01*
X270652Y146166D02*
X273318D01*
X271985D01*
Y154163D01*
X270652D01*
X281315Y146166D02*
X278650D01*
X277317Y147499D01*
Y150164D01*
X278650Y151497D01*
X281315D01*
X282648Y150164D01*
Y148832D01*
X277317D01*
X285314Y151497D02*
Y146166D01*
Y148832D01*
X286647Y150164D01*
X287980Y151497D01*
X289313D01*
D15*
X53135Y39125D02*
X56467Y42457D01*
Y39125D02*
X53135Y42457D01*
X54801Y39125D02*
Y42457D01*
X56467Y40791D02*
X53135D01*
M02*
