G04*
G04 #@! TF.GenerationSoftware,Altium Limited,Altium Designer,26.7.1 (11)*
G04*
G04 Layer_Color=8388736*
G04 Board_Origin=26900000|31050000*
%FSLAX25Y25*%
%MOIN*%
G70*
G04*
G04 #@! TF.SameCoordinates,40CBDD28-AB79-417D-9518-67BF38A8FD92*
G04*
G04*
G04 #@! TF.FilePolarity,Negative*
G04*
G01*
G75*
%ADD17R,0.02200X0.05750*%
%ADD18R,0.03985X0.04953*%
%ADD19R,0.04921X0.03150*%
G04:AMPARAMS|DCode=20|XSize=71.82mil|YSize=24.33mil|CornerRadius=12.17mil|HoleSize=0mil|Usage=FLASHONLY|Rotation=180.000|XOffset=0mil|YOffset=0mil|HoleType=Round|Shape=RoundedRectangle|*
%AMROUNDEDRECTD20*
21,1,0.07182,0.00000,0,0,180.0*
21,1,0.04749,0.02433,0,0,180.0*
1,1,0.02433,-0.02375,0.00000*
1,1,0.02433,0.02375,0.00000*
1,1,0.02433,0.02375,0.00000*
1,1,0.02433,-0.02375,0.00000*
%
%ADD20ROUNDEDRECTD20*%
%ADD21R,0.03150X0.04921*%
%ADD22R,0.05924X0.06127*%
%ADD23R,0.04953X0.03985*%
G04:AMPARAMS|DCode=24|XSize=71.07mil|YSize=24.1mil|CornerRadius=12.05mil|HoleSize=0mil|Usage=FLASHONLY|Rotation=180.000|XOffset=0mil|YOffset=0mil|HoleType=Round|Shape=RoundedRectangle|*
%AMROUNDEDRECTD24*
21,1,0.07107,0.00000,0,0,180.0*
21,1,0.04697,0.02410,0,0,180.0*
1,1,0.02410,-0.02349,0.00000*
1,1,0.02410,0.02349,0.00000*
1,1,0.02410,0.02349,0.00000*
1,1,0.02410,-0.02349,0.00000*
%
%ADD24ROUNDEDRECTD24*%
%ADD25R,0.02913X0.10984*%
%ADD26R,0.06496X0.02362*%
%ADD27R,0.06127X0.05924*%
%ADD28R,0.04700X0.01200*%
%ADD29R,0.01200X0.04700*%
%ADD30R,0.02717X0.03898*%
G04:AMPARAMS|DCode=31|XSize=9.42mil|YSize=39.75mil|CornerRadius=4.71mil|HoleSize=0mil|Usage=FLASHONLY|Rotation=90.000|XOffset=0mil|YOffset=0mil|HoleType=Round|Shape=RoundedRectangle|*
%AMROUNDEDRECTD31*
21,1,0.00942,0.03033,0,0,90.0*
21,1,0.00000,0.03975,0,0,90.0*
1,1,0.00942,0.01517,0.00000*
1,1,0.00942,0.01517,0.00000*
1,1,0.00942,-0.01517,0.00000*
1,1,0.00942,-0.01517,0.00000*
%
%ADD31ROUNDEDRECTD31*%
%ADD33R,0.05728X0.06127*%
G04:AMPARAMS|DCode=34|XSize=39.75mil|YSize=9.42mil|CornerRadius=4.71mil|HoleSize=0mil|Usage=FLASHONLY|Rotation=90.000|XOffset=0mil|YOffset=0mil|HoleType=Round|Shape=RoundedRectangle|*
%AMROUNDEDRECTD34*
21,1,0.03975,0.00000,0,0,90.0*
21,1,0.03033,0.00942,0,0,90.0*
1,1,0.00942,0.00000,0.01517*
1,1,0.00942,0.00000,-0.01517*
1,1,0.00942,0.00000,-0.01517*
1,1,0.00942,0.00000,0.01517*
%
%ADD34ROUNDEDRECTD34*%
%ADD35R,0.07107X0.02410*%
%ADD37R,0.00942X0.03975*%
%ADD38R,0.07182X0.02433*%
%ADD39R,0.04921X0.02756*%
%ADD40R,0.10039X0.10039*%
%ADD41R,0.04921X0.01575*%
%ADD42C,0.06102*%
%ADD43R,0.06102X0.06102*%
%ADD44C,0.06496*%
G04:AMPARAMS|DCode=45|XSize=64.96mil|YSize=64.96mil|CornerRadius=16.24mil|HoleSize=0mil|Usage=FLASHONLY|Rotation=270.000|XOffset=0mil|YOffset=0mil|HoleType=Round|Shape=RoundedRectangle|*
%AMROUNDEDRECTD45*
21,1,0.06496,0.03248,0,0,270.0*
21,1,0.03248,0.06496,0,0,270.0*
1,1,0.03248,-0.01624,-0.01624*
1,1,0.03248,-0.01624,0.01624*
1,1,0.03248,0.01624,0.01624*
1,1,0.03248,0.01624,-0.01624*
%
%ADD45ROUNDEDRECTD45*%
%ADD46C,0.18898*%
%ADD47C,0.02559*%
%ADD48O,0.08268X0.03937*%
%ADD49O,0.07087X0.03937*%
D17*
X74000Y41375D02*
D03*
X59000D02*
D03*
X69000Y62825D02*
D03*
X64000D02*
D03*
Y41375D02*
D03*
X69000D02*
D03*
X59000Y62825D02*
D03*
X74000D02*
D03*
D18*
X82100Y45041D02*
D03*
X93500Y19459D02*
D03*
X86000Y90059D02*
D03*
X150500Y18959D02*
D03*
X123600Y21618D02*
D03*
X130500Y54441D02*
D03*
X146000Y63941D02*
D03*
X138500Y91441D02*
D03*
X234000Y83559D02*
D03*
X255000Y97441D02*
D03*
Y87559D02*
D03*
X150500Y12841D02*
D03*
X201000Y64441D02*
D03*
X234000Y77441D02*
D03*
X255000Y103559D02*
D03*
Y81441D02*
D03*
X130500Y60559D02*
D03*
X146000Y70059D02*
D03*
X138500Y97559D02*
D03*
X93500Y13341D02*
D03*
X123600Y15500D02*
D03*
X82100Y51159D02*
D03*
X201000Y70559D02*
D03*
X86000Y83941D02*
D03*
D19*
X66500Y79850D02*
D03*
Y91850D02*
D03*
X109000Y110150D02*
D03*
X273500Y65850D02*
D03*
X274000Y99150D02*
D03*
X301000Y47850D02*
D03*
X66500Y98150D02*
D03*
Y86150D02*
D03*
X65800Y75650D02*
D03*
Y69350D02*
D03*
X301000Y54150D02*
D03*
X274000Y92850D02*
D03*
X273500Y72150D02*
D03*
X230000Y97150D02*
D03*
Y90850D02*
D03*
X109000Y103850D02*
D03*
D20*
X64280Y130740D02*
D03*
Y147740D02*
D03*
Y113740D02*
D03*
X56720Y127000D02*
D03*
Y110000D02*
D03*
Y144000D02*
D03*
D21*
X61597Y167801D02*
D03*
X54350Y97000D02*
D03*
X55298Y167801D02*
D03*
X70250Y33800D02*
D03*
X77450Y70400D02*
D03*
X60650Y97000D02*
D03*
Y85000D02*
D03*
X63950Y33800D02*
D03*
X59550Y33700D02*
D03*
X53250D02*
D03*
X54350Y85000D02*
D03*
X71150Y70400D02*
D03*
D22*
X63994Y158301D02*
D03*
X214154Y59200D02*
D03*
X56901Y158301D02*
D03*
X221246Y59200D02*
D03*
D23*
X100559Y106500D02*
D03*
X139559Y23900D02*
D03*
X112941Y53000D02*
D03*
Y43500D02*
D03*
X214341Y69300D02*
D03*
X119059Y43500D02*
D03*
Y53000D02*
D03*
X94441Y106500D02*
D03*
X133441Y23900D02*
D03*
X220459Y69300D02*
D03*
D24*
X113030Y17400D02*
D03*
X103971Y13660D02*
D03*
X113030Y21140D02*
D03*
X103971D02*
D03*
D25*
X116000Y129012D02*
D03*
X126000D02*
D03*
X131000D02*
D03*
X136000D02*
D03*
Y112988D02*
D03*
X126000D02*
D03*
X131000D02*
D03*
X121000Y129012D02*
D03*
X116000Y112988D02*
D03*
X121000D02*
D03*
D26*
X154207Y63400D02*
D03*
Y98400D02*
D03*
X192593Y63400D02*
D03*
Y93400D02*
D03*
X154207Y73400D02*
D03*
X192593D02*
D03*
Y83400D02*
D03*
X154207Y68400D02*
D03*
Y78400D02*
D03*
Y83400D02*
D03*
Y88400D02*
D03*
Y93400D02*
D03*
X192593Y98400D02*
D03*
Y88400D02*
D03*
Y78400D02*
D03*
Y68400D02*
D03*
D27*
X99000Y50946D02*
D03*
X244500Y83046D02*
D03*
Y75954D02*
D03*
X292000Y45954D02*
D03*
X99000Y43854D02*
D03*
X292000Y53046D02*
D03*
D28*
X129732Y89858D02*
D03*
X96268Y80016D02*
D03*
X129732Y87890D02*
D03*
Y85921D02*
D03*
Y83953D02*
D03*
Y80016D02*
D03*
Y78047D02*
D03*
Y76079D02*
D03*
Y74110D02*
D03*
Y72142D02*
D03*
Y70173D02*
D03*
X96268D02*
D03*
Y76079D02*
D03*
Y78047D02*
D03*
Y81984D02*
D03*
Y83953D02*
D03*
Y85921D02*
D03*
Y87890D02*
D03*
Y89858D02*
D03*
Y74110D02*
D03*
Y72142D02*
D03*
Y91827D02*
D03*
X129732D02*
D03*
Y81984D02*
D03*
D29*
X121858Y64268D02*
D03*
X113984D02*
D03*
X104142Y97732D02*
D03*
X106110D02*
D03*
X110047D02*
D03*
X112016D02*
D03*
X113984D02*
D03*
X115953D02*
D03*
X119890D02*
D03*
Y64268D02*
D03*
X112016D02*
D03*
X110047D02*
D03*
X108079D02*
D03*
X106110D02*
D03*
X102173D02*
D03*
X108079Y97732D02*
D03*
X104142Y64268D02*
D03*
X115953D02*
D03*
X123827D02*
D03*
X102173Y97732D02*
D03*
X121858D02*
D03*
X117921D02*
D03*
Y64268D02*
D03*
X123827Y97732D02*
D03*
D30*
X265760Y87598D02*
D03*
X269500Y77402D02*
D03*
X265760D02*
D03*
X273240Y87598D02*
D03*
Y77402D02*
D03*
D31*
X222500Y83657D02*
D03*
Y85626D02*
D03*
Y87594D02*
D03*
Y89563D02*
D03*
Y91531D02*
D03*
Y93500D02*
D03*
X207136D02*
D03*
Y91531D02*
D03*
Y89563D02*
D03*
Y87594D02*
D03*
Y85626D02*
D03*
Y83657D02*
D03*
D33*
X140644Y13900D02*
D03*
X133356D02*
D03*
D34*
X211865Y80897D02*
D03*
X213834D02*
D03*
X215802D02*
D03*
X217771D02*
D03*
X219739D02*
D03*
Y96261D02*
D03*
X217771D02*
D03*
X215802D02*
D03*
X213834D02*
D03*
X211865D02*
D03*
X209897D02*
D03*
D35*
X113030Y13660D02*
D03*
D37*
X209897Y80897D02*
D03*
D38*
X64280Y123260D02*
D03*
Y140260D02*
D03*
Y106260D02*
D03*
D39*
X283940Y70551D02*
D03*
Y89449D02*
D03*
Y67402D02*
D03*
Y92598D02*
D03*
D40*
X214818Y88579D02*
D03*
D41*
X283940Y73110D02*
D03*
Y75079D02*
D03*
Y77047D02*
D03*
Y86890D02*
D03*
Y84921D02*
D03*
Y82953D02*
D03*
Y79016D02*
D03*
Y80984D02*
D03*
D42*
X193500Y29000D02*
D03*
X173500D02*
D03*
X183500D02*
D03*
D43*
X203500D02*
D03*
D44*
X32500Y58067D02*
D03*
Y79878D02*
D03*
Y123500D02*
D03*
Y112594D02*
D03*
Y101689D02*
D03*
Y90784D02*
D03*
Y68972D02*
D03*
X43681Y74425D02*
D03*
Y118047D02*
D03*
Y63520D02*
D03*
Y128953D02*
D03*
Y96236D02*
D03*
Y85331D02*
D03*
Y107142D02*
D03*
D45*
Y52614D02*
D03*
D46*
X38091Y25232D02*
D03*
Y156335D02*
D03*
D47*
X288172Y68622D02*
D03*
Y91378D02*
D03*
D48*
X286204Y97008D02*
D03*
Y62992D02*
D03*
D49*
X302660Y97008D02*
D03*
Y62992D02*
D03*
M02*
