M48
;Layer_Color=9474304
;FILE_FORMAT=2:5
INCH
;TYPE=PLATED
T01F00S00C0.01200
T03F00S00C0.03937
T04F00S00C0.04291
T05F00S00C0.12598
%
T01
X0348000Y0349000
X0359300Y0340600
X0362900Y0344100
X0362600Y0336000
X0371600Y0337500
X0371800Y0342700
X0375000Y0348500
X0375500Y0355500
Y0363500
X0378000Y0369000
X0381500Y0369500
X0388500Y0370000
X0404941Y0371059
X0405000Y0364100
X0409500Y0375500
Y0380500
X0413500Y0403000
Y0407000
X0417600Y0408900
X0409500Y0439500
X0399000Y0447500
X0393500
X0380512Y0439512
X0374000Y0423000
X0368000
X0362000
X0358000Y0408000
X0360500Y0399000
X0370500Y0385500
X0375500Y0381000
X0378000Y0388000
X0367700Y0367400
X0351100Y0369100
X0367700Y0348100
X0390700Y0337700
X0400600Y0341300
X0414100Y0337400
X0419400Y0335300
X0467700Y0335800
X0467000Y0395600
X0467400Y0403900
X0383000Y0414000
X0341000Y0416500
X0340500Y0424000
X0341500Y0433500
X0340500Y0441000
X0342000Y0451000
X0340500Y0458000
X0330500Y0402000
X0324000Y0401000
Y0389500
X0330500
X0472200Y0398500
X0481000Y0396500
X0486500
Y0402000
X0481000
X0483600Y0385600
X0487400Y0385500
X0492800Y0385600
X0491711Y0391014
X0497000Y0396500
X0499000Y0412000
X0517393Y0402500
X0537500
X0538000Y0410000
X0529500Y0413000
X0548408Y0404500
X0547300Y0395000
X0557626Y0389750
X0561800Y0390500
X0548000Y0380000
X0542500Y0372500
X0536500Y0383000
X0524000Y0386000
X0496038Y0379600
X0496100Y0376000
X0489000Y0363000
X0484500
X0475941Y0374941
X0476000Y0381000
X0561000Y0350000
X0570000Y0354500
X0340448Y0468801
X0335448Y0478301
T03
X0442500Y0322000
X0452500
X0462500
X0472500
T04
X0301500Y0368567
Y0379472
Y0390378
Y0401284
Y0412189
Y0423095
Y0434000
X0312681Y0439453
Y0428547
Y0417642
Y0406736
Y0395831
Y0384925
Y0374020
Y0363114
T05
X0307090Y0335732
Y0466835
M30
